<svg width="25" height="25" viewBox="0 0 25 25" fill="none" xmlns="http://www.w3.org/2000/svg">
<path d="M13.7206 3.125H9.37516C7.41098 3.125 6.42888 3.125 5.81869 3.73519C5.2085 4.34539 5.2085 5.32748 5.2085 7.29167V17.7083C5.2085 19.6725 5.2085 20.6546 5.81869 21.2648C6.42888 21.875 7.41098 21.875 9.37516 21.875H15.6252C17.5893 21.875 18.5714 21.875 19.1816 21.2648C19.7918 20.6546 19.7918 19.6725 19.7918 17.7083V9.19628C19.7918 8.7705 19.7918 8.55761 19.7125 8.36618C19.6332 8.17475 19.4827 8.02421 19.1816 7.72314L15.1937 3.73519C14.8926 3.43412 14.7421 3.28358 14.5507 3.20429C14.3592 3.125 14.1463 3.125 13.7206 3.125Z" fill="#FAFAFA" stroke="#000C14" stroke-width="2"/>
<path d="M13.5415 3.125V7.29167C13.5415 8.27376 13.5415 8.76481 13.8466 9.0699C14.1517 9.375 14.6427 9.375 15.6248 9.375H19.7915" stroke="#000C14" stroke-width="2"/>
</svg>
