<svg width="427" height="227" viewBox="0 0 427 227" fill="none" xmlns="http://www.w3.org/2000/svg">
<g clip-path="url(#clip0_863_4814)">
<rect x="26" y="41" width="194" height="51" rx="5" fill="white"/>
<path d="M89.5128 72V60.3636H93.6605C94.562 60.3636 95.3101 60.5189 95.9048 60.8295C96.5033 61.1402 96.9503 61.5701 97.2457 62.1193C97.5412 62.6648 97.6889 63.2955 97.6889 64.0114C97.6889 64.7235 97.5393 65.3504 97.2401 65.892C96.9446 66.4299 96.4976 66.8485 95.8991 67.1477C95.3045 67.447 94.5563 67.5966 93.6548 67.5966H90.5128V66.0852H93.4957C94.0639 66.0852 94.526 66.0038 94.8821 65.8409C95.242 65.678 95.5052 65.4413 95.6719 65.1307C95.8385 64.8201 95.9219 64.447 95.9219 64.0114C95.9219 63.572 95.8366 63.1913 95.6662 62.8693C95.4995 62.5473 95.2363 62.3011 94.8764 62.1307C94.5204 61.9564 94.0526 61.8693 93.473 61.8693H91.2685V72H89.5128ZM95.2571 66.75L98.1321 72H96.1321L93.3139 66.75H95.2571ZM103.341 72.1761C102.481 72.1761 101.741 71.9924 101.119 71.625C100.502 71.2538 100.025 70.733 99.6875 70.0625C99.3542 69.3883 99.1875 68.5985 99.1875 67.6932C99.1875 66.7992 99.3542 66.0114 99.6875 65.3295C100.025 64.6477 100.494 64.1155 101.097 63.733C101.703 63.3504 102.411 63.1591 103.222 63.1591C103.714 63.1591 104.191 63.2405 104.653 63.4034C105.116 63.5663 105.53 63.822 105.898 64.1705C106.265 64.5189 106.555 64.9716 106.767 65.5284C106.979 66.0814 107.085 66.7538 107.085 67.5455V68.1477H100.148V66.875H105.42C105.42 66.428 105.33 66.0322 105.148 65.6875C104.966 65.339 104.71 65.0644 104.381 64.8636C104.055 64.6629 103.672 64.5625 103.233 64.5625C102.756 64.5625 102.339 64.6799 101.983 64.9148C101.631 65.1458 101.358 65.4489 101.165 65.8239C100.975 66.1951 100.881 66.5985 100.881 67.0341V68.0284C100.881 68.6117 100.983 69.108 101.188 69.517C101.396 69.9261 101.686 70.2386 102.057 70.4545C102.428 70.6667 102.862 70.7727 103.358 70.7727C103.68 70.7727 103.973 70.7273 104.239 70.6364C104.504 70.5417 104.733 70.4015 104.926 70.2159C105.119 70.0303 105.267 69.8011 105.369 69.5284L106.977 69.8182C106.848 70.2917 106.617 70.7064 106.284 71.0625C105.955 71.4148 105.54 71.6894 105.04 71.8864C104.544 72.0795 103.977 72.1761 103.341 72.1761ZM115.51 65.4034L113.97 65.6761C113.906 65.4792 113.804 65.2917 113.663 65.1136C113.527 64.9356 113.341 64.7898 113.107 64.6761C112.872 64.5625 112.578 64.5057 112.226 64.5057C111.745 64.5057 111.343 64.6136 111.021 64.8295C110.699 65.0417 110.538 65.3163 110.538 65.6534C110.538 65.9451 110.646 66.1799 110.862 66.358C111.078 66.536 111.427 66.6818 111.908 66.7955L113.294 67.1136C114.097 67.2992 114.696 67.5852 115.089 67.9716C115.483 68.358 115.68 68.8598 115.68 69.4773C115.68 70 115.529 70.4659 115.226 70.875C114.927 71.2803 114.508 71.5985 113.97 71.8295C113.436 72.0606 112.817 72.1761 112.112 72.1761C111.135 72.1761 110.338 71.9678 109.72 71.5511C109.103 71.1307 108.724 70.5341 108.584 69.7614L110.226 69.5114C110.328 69.9394 110.538 70.2633 110.857 70.483C111.175 70.6989 111.589 70.8068 112.101 70.8068C112.658 70.8068 113.103 70.6913 113.436 70.4602C113.769 70.2254 113.936 69.9394 113.936 69.6023C113.936 69.3295 113.834 69.1004 113.629 68.9148C113.429 68.7292 113.12 68.589 112.703 68.4943L111.226 68.1705C110.411 67.9848 109.809 67.6894 109.419 67.2841C109.033 66.8788 108.839 66.3655 108.839 65.7443C108.839 65.2292 108.983 64.7784 109.271 64.392C109.559 64.0057 109.957 63.7045 110.464 63.4886C110.972 63.2689 111.554 63.1591 112.209 63.1591C113.152 63.1591 113.894 63.3636 114.436 63.7727C114.978 64.178 115.336 64.7216 115.51 65.4034ZM121.31 72.1761C120.45 72.1761 119.709 71.9924 119.088 71.625C118.471 71.2538 117.993 70.733 117.656 70.0625C117.323 69.3883 117.156 68.5985 117.156 67.6932C117.156 66.7992 117.323 66.0114 117.656 65.3295C117.993 64.6477 118.463 64.1155 119.065 63.733C119.671 63.3504 120.38 63.1591 121.19 63.1591C121.683 63.1591 122.16 63.2405 122.622 63.4034C123.084 63.5663 123.499 63.822 123.866 64.1705C124.234 64.5189 124.524 64.9716 124.736 65.5284C124.948 66.0814 125.054 66.7538 125.054 67.5455V68.1477H118.116V66.875H123.389C123.389 66.428 123.298 66.0322 123.116 65.6875C122.935 65.339 122.679 65.0644 122.349 64.8636C122.024 64.6629 121.641 64.5625 121.202 64.5625C120.724 64.5625 120.308 64.6799 119.952 64.9148C119.599 65.1458 119.327 65.4489 119.134 65.8239C118.944 66.1951 118.849 66.5985 118.849 67.0341V68.0284C118.849 68.6117 118.952 69.108 119.156 69.517C119.365 69.9261 119.654 70.2386 120.026 70.4545C120.397 70.6667 120.83 70.7727 121.327 70.7727C121.649 70.7727 121.942 70.7273 122.207 70.6364C122.473 70.5417 122.702 70.4015 122.895 70.2159C123.088 70.0303 123.236 69.8011 123.338 69.5284L124.946 69.8182C124.817 70.2917 124.586 70.7064 124.253 71.0625C123.923 71.4148 123.509 71.6894 123.009 71.8864C122.512 72.0795 121.946 72.1761 121.31 72.1761ZM129.479 72.1932C128.926 72.1932 128.426 72.0909 127.979 71.8864C127.532 71.678 127.178 71.3769 126.916 70.983C126.659 70.589 126.53 70.1061 126.53 69.5341C126.53 69.0417 126.625 68.6364 126.814 68.3182C127.003 68 127.259 67.7481 127.581 67.5625C127.903 67.3769 128.263 67.2367 128.661 67.142C129.058 67.0473 129.464 66.9754 129.876 66.9261C130.399 66.8655 130.823 66.8163 131.149 66.7784C131.475 66.7367 131.712 66.6705 131.859 66.5795C132.007 66.4886 132.081 66.3409 132.081 66.1364V66.0966C132.081 65.6004 131.941 65.2159 131.661 64.9432C131.384 64.6705 130.971 64.5341 130.422 64.5341C129.85 64.5341 129.399 64.661 129.07 64.9148C128.744 65.1648 128.518 65.4432 128.393 65.75L126.797 65.3864C126.986 64.8561 127.263 64.428 127.626 64.1023C127.994 63.7727 128.416 63.5341 128.893 63.3864C129.371 63.2348 129.873 63.1591 130.399 63.1591C130.748 63.1591 131.117 63.2008 131.507 63.2841C131.901 63.3636 132.268 63.5114 132.609 63.7273C132.954 63.9432 133.236 64.2519 133.456 64.6534C133.676 65.0511 133.786 65.5682 133.786 66.2045V72H132.126V70.8068H132.058C131.948 71.0265 131.784 71.2424 131.564 71.4545C131.344 71.6667 131.062 71.8428 130.717 71.983C130.373 72.1231 129.96 72.1932 129.479 72.1932ZM129.848 70.8295C130.318 70.8295 130.719 70.7367 131.053 70.5511C131.39 70.3655 131.645 70.1231 131.82 69.8239C131.998 69.5208 132.087 69.197 132.087 68.8523V67.7273C132.026 67.7879 131.909 67.8447 131.734 67.8977C131.564 67.947 131.369 67.9905 131.149 68.0284C130.929 68.0625 130.715 68.0947 130.507 68.125C130.299 68.1515 130.125 68.1742 129.984 68.1932C129.655 68.2348 129.354 68.3049 129.081 68.4034C128.812 68.5019 128.596 68.6439 128.433 68.8295C128.274 69.0114 128.195 69.2538 128.195 69.5568C128.195 69.9773 128.35 70.2955 128.661 70.5114C128.971 70.7235 129.367 70.8295 129.848 70.8295ZM136.048 72V63.2727H137.69V64.6591H137.781C137.94 64.1894 138.221 63.8201 138.622 63.5511C139.027 63.2784 139.486 63.142 139.997 63.142C140.103 63.142 140.228 63.1458 140.372 63.1534C140.52 63.161 140.635 63.1705 140.719 63.1818V64.8068C140.651 64.7879 140.529 64.767 140.355 64.7443C140.181 64.7178 140.007 64.7045 139.832 64.7045C139.431 64.7045 139.073 64.7898 138.759 64.9602C138.448 65.1269 138.202 65.3598 138.02 65.6591C137.838 65.9545 137.747 66.2917 137.747 66.6705V72H136.048ZM145.553 72.1761C144.708 72.1761 143.981 71.9848 143.371 71.6023C142.765 71.2159 142.299 70.6837 141.973 70.0057C141.647 69.3277 141.484 68.5511 141.484 67.6761C141.484 66.7898 141.651 66.0076 141.984 65.3295C142.318 64.6477 142.787 64.1155 143.393 63.733C144 63.3504 144.714 63.1591 145.536 63.1591C146.198 63.1591 146.789 63.2822 147.308 63.5284C147.827 63.7708 148.246 64.1117 148.564 64.5511C148.886 64.9905 149.077 65.5038 149.138 66.0909H147.484C147.393 65.6818 147.185 65.3295 146.859 65.0341C146.537 64.7386 146.106 64.5909 145.564 64.5909C145.09 64.5909 144.676 64.7159 144.32 64.9659C143.967 65.2121 143.693 65.5644 143.496 66.0227C143.299 66.4773 143.2 67.0152 143.2 67.6364C143.2 68.2727 143.297 68.822 143.49 69.2841C143.683 69.7462 143.956 70.1042 144.308 70.358C144.664 70.6117 145.083 70.7386 145.564 70.7386C145.886 70.7386 146.178 70.6799 146.439 70.5625C146.704 70.4413 146.926 70.2689 147.104 70.0455C147.286 69.822 147.412 69.553 147.484 69.2386H149.138C149.077 69.803 148.893 70.3068 148.587 70.75C148.28 71.1932 147.869 71.5417 147.354 71.7955C146.842 72.0492 146.242 72.1761 145.553 72.1761ZM152.653 66.8182V72H150.955V60.3636H152.631V64.6932H152.739C152.943 64.2235 153.256 63.8504 153.676 63.5739C154.097 63.2973 154.646 63.1591 155.324 63.1591C155.922 63.1591 156.445 63.2822 156.892 63.5284C157.343 63.7746 157.691 64.142 157.938 64.6307C158.188 65.1155 158.312 65.7216 158.312 66.4489V72H156.614V66.6534C156.614 66.0133 156.449 65.517 156.119 65.1648C155.79 64.8087 155.331 64.6307 154.744 64.6307C154.343 64.6307 153.983 64.7159 153.665 64.8864C153.35 65.0568 153.102 65.3068 152.92 65.6364C152.742 65.9621 152.653 66.3561 152.653 66.8182ZM161.699 72.108C161.388 72.108 161.121 71.9981 160.898 71.7784C160.674 71.5549 160.562 71.286 160.562 70.9716C160.562 70.661 160.674 70.3958 160.898 70.1761C161.121 69.9527 161.388 69.8409 161.699 69.8409C162.009 69.8409 162.277 69.9527 162.5 70.1761C162.723 70.3958 162.835 70.661 162.835 70.9716C162.835 71.1799 162.782 71.3712 162.676 71.5455C162.574 71.7159 162.438 71.8523 162.267 71.9545C162.097 72.0568 161.907 72.108 161.699 72.108ZM165.111 75.2727V63.2727H166.77V64.6875H166.912C167.01 64.5057 167.152 64.2955 167.338 64.0568C167.524 63.8182 167.781 63.6098 168.111 63.4318C168.44 63.25 168.876 63.1591 169.418 63.1591C170.122 63.1591 170.751 63.3371 171.304 63.6932C171.857 64.0492 172.291 64.5625 172.605 65.233C172.923 65.9034 173.082 66.7102 173.082 67.6534C173.082 68.5966 172.925 69.4053 172.611 70.0795C172.296 70.75 171.865 71.267 171.315 71.6307C170.766 71.9905 170.139 72.1705 169.435 72.1705C168.904 72.1705 168.471 72.0814 168.134 71.9034C167.8 71.7254 167.539 71.517 167.349 71.2784C167.16 71.0398 167.014 70.8277 166.912 70.642H166.81V75.2727H165.111ZM166.776 67.6364C166.776 68.25 166.865 68.7879 167.043 69.25C167.221 69.7121 167.478 70.0739 167.815 70.3352C168.152 70.5928 168.565 70.7216 169.054 70.7216C169.562 70.7216 169.986 70.5871 170.327 70.3182C170.668 70.0455 170.925 69.6761 171.099 69.2102C171.277 68.7443 171.366 68.2197 171.366 67.6364C171.366 67.0606 171.279 66.5436 171.105 66.0852C170.935 65.6269 170.677 65.2652 170.332 65C169.991 64.7348 169.565 64.6023 169.054 64.6023C168.562 64.6023 168.145 64.7292 167.804 64.983C167.467 65.2367 167.211 65.5909 167.037 66.0455C166.863 66.5 166.776 67.0303 166.776 67.6364ZM178.253 72.1705C177.548 72.1705 176.92 71.9905 176.366 71.6307C175.817 71.267 175.385 70.75 175.071 70.0795C174.76 69.4053 174.605 68.5966 174.605 67.6534C174.605 66.7102 174.762 65.9034 175.077 65.233C175.395 64.5625 175.83 64.0492 176.384 63.6932C176.937 63.3371 177.563 63.1591 178.264 63.1591C178.806 63.1591 179.241 63.25 179.571 63.4318C179.904 63.6098 180.162 63.8182 180.344 64.0568C180.529 64.2955 180.673 64.5057 180.776 64.6875H180.878V60.3636H182.577V72H180.918V70.642H180.776C180.673 70.8277 180.526 71.0398 180.332 71.2784C180.143 71.517 179.882 71.7254 179.548 71.9034C179.215 72.0814 178.783 72.1705 178.253 72.1705ZM178.628 70.7216C179.116 70.7216 179.529 70.5928 179.866 70.3352C180.207 70.0739 180.465 69.7121 180.639 69.25C180.817 68.7879 180.906 68.25 180.906 67.6364C180.906 67.0303 180.819 66.5 180.645 66.0455C180.471 65.5909 180.215 65.2367 179.878 64.983C179.541 64.7292 179.124 64.6023 178.628 64.6023C178.116 64.6023 177.69 64.7348 177.349 65C177.009 65.2652 176.751 65.6269 176.577 66.0852C176.406 66.5436 176.321 67.0606 176.321 67.6364C176.321 68.2197 176.408 68.7443 176.582 69.2102C176.757 69.6761 177.014 70.0455 177.355 70.3182C177.7 70.5871 178.124 70.7216 178.628 70.7216ZM189.155 63.2727V64.6364H184.223V63.2727H189.155ZM185.575 72V62.2614C185.575 61.7159 185.695 61.2633 185.933 60.9034C186.172 60.5398 186.488 60.2689 186.882 60.0909C187.276 59.9091 187.704 59.8182 188.166 59.8182C188.507 59.8182 188.799 59.8466 189.041 59.9034C189.284 59.9564 189.464 60.0057 189.581 60.0511L189.183 61.4261C189.104 61.4034 189.001 61.3769 188.876 61.3466C188.751 61.3125 188.6 61.2955 188.422 61.2955C188.009 61.2955 187.714 61.3977 187.536 61.6023C187.361 61.8068 187.274 62.1023 187.274 62.4886V72H185.575Z" fill="#000C14"/>
<path d="M71.4645 55.75H66.25C63.893 55.75 62.7145 55.75 61.9822 56.4822C61.25 57.2145 61.25 58.393 61.25 60.75V73.25C61.25 75.607 61.25 76.7855 61.9822 77.5178C62.7145 78.25 63.893 78.25 66.25 78.25H73.75C76.107 78.25 77.2855 78.25 78.0178 77.5178C78.75 76.7855 78.75 75.607 78.75 73.25V63.0355C78.75 62.5246 78.75 62.2691 78.6548 62.0394C78.5597 61.8097 78.3791 61.6291 78.0178 61.2678L73.2322 56.4822C72.8709 56.1209 72.6903 55.9403 72.4606 55.8452C72.2309 55.75 71.9754 55.75 71.4645 55.75Z" fill="#D9CAB3" stroke="black"/>
</g>
<g clip-path="url(#clip1_863_4814)">
<rect x="26" y="124" width="194" height="51" rx="5" fill="white"/>
<path d="M106.839 155.17C106.134 155.17 105.505 154.991 104.952 154.631C104.403 154.267 103.971 153.75 103.657 153.08C103.346 152.405 103.191 151.597 103.191 150.653C103.191 149.71 103.348 148.903 103.663 148.233C103.981 147.562 104.416 147.049 104.969 146.693C105.522 146.337 106.149 146.159 106.85 146.159C107.392 146.159 107.827 146.25 108.157 146.432C108.49 146.61 108.748 146.818 108.93 147.057C109.115 147.295 109.259 147.506 109.362 147.688H109.464V143.364H111.163V155H109.504V153.642H109.362C109.259 153.828 109.112 154.04 108.918 154.278C108.729 154.517 108.468 154.725 108.134 154.903C107.801 155.081 107.369 155.17 106.839 155.17ZM107.214 153.722C107.702 153.722 108.115 153.593 108.452 153.335C108.793 153.074 109.051 152.712 109.225 152.25C109.403 151.788 109.492 151.25 109.492 150.636C109.492 150.03 109.405 149.5 109.231 149.045C109.057 148.591 108.801 148.237 108.464 147.983C108.127 147.729 107.71 147.602 107.214 147.602C106.702 147.602 106.276 147.735 105.935 148C105.594 148.265 105.337 148.627 105.163 149.085C104.992 149.544 104.907 150.061 104.907 150.636C104.907 151.22 104.994 151.744 105.168 152.21C105.343 152.676 105.6 153.045 105.941 153.318C106.286 153.587 106.71 153.722 107.214 153.722ZM116.127 155.193C115.574 155.193 115.074 155.091 114.627 154.886C114.18 154.678 113.826 154.377 113.565 153.983C113.307 153.589 113.178 153.106 113.178 152.534C113.178 152.042 113.273 151.636 113.462 151.318C113.652 151 113.907 150.748 114.229 150.562C114.551 150.377 114.911 150.237 115.309 150.142C115.707 150.047 116.112 149.975 116.525 149.926C117.048 149.866 117.472 149.816 117.798 149.778C118.123 149.737 118.36 149.67 118.508 149.58C118.656 149.489 118.729 149.341 118.729 149.136V149.097C118.729 148.6 118.589 148.216 118.309 147.943C118.032 147.67 117.62 147.534 117.07 147.534C116.498 147.534 116.048 147.661 115.718 147.915C115.392 148.165 115.167 148.443 115.042 148.75L113.445 148.386C113.635 147.856 113.911 147.428 114.275 147.102C114.642 146.773 115.065 146.534 115.542 146.386C116.019 146.235 116.521 146.159 117.048 146.159C117.396 146.159 117.765 146.201 118.156 146.284C118.549 146.364 118.917 146.511 119.258 146.727C119.603 146.943 119.885 147.252 120.104 147.653C120.324 148.051 120.434 148.568 120.434 149.205V155H118.775V153.807H118.707C118.597 154.027 118.432 154.242 118.212 154.455C117.993 154.667 117.71 154.843 117.366 154.983C117.021 155.123 116.608 155.193 116.127 155.193ZM116.496 153.83C116.966 153.83 117.368 153.737 117.701 153.551C118.038 153.366 118.294 153.123 118.468 152.824C118.646 152.521 118.735 152.197 118.735 151.852V150.727C118.674 150.788 118.557 150.845 118.383 150.898C118.212 150.947 118.017 150.991 117.798 151.028C117.578 151.062 117.364 151.095 117.156 151.125C116.947 151.152 116.773 151.174 116.633 151.193C116.303 151.235 116.002 151.305 115.729 151.403C115.46 151.502 115.245 151.644 115.082 151.83C114.923 152.011 114.843 152.254 114.843 152.557C114.843 152.977 114.998 153.295 115.309 153.511C115.62 153.723 116.015 153.83 116.496 153.83ZM126.771 146.273V147.636H122.004V146.273H126.771ZM123.282 144.182H124.981V152.438C124.981 152.767 125.03 153.015 125.129 153.182C125.227 153.345 125.354 153.456 125.509 153.517C125.668 153.574 125.841 153.602 126.026 153.602C126.163 153.602 126.282 153.593 126.384 153.574C126.487 153.555 126.566 153.54 126.623 153.528L126.93 154.932C126.831 154.97 126.691 155.008 126.509 155.045C126.327 155.087 126.1 155.11 125.827 155.114C125.38 155.121 124.964 155.042 124.577 154.875C124.191 154.708 123.879 154.451 123.64 154.102C123.401 153.754 123.282 153.316 123.282 152.79V144.182ZM131.19 155.193C130.637 155.193 130.137 155.091 129.69 154.886C129.243 154.678 128.888 154.377 128.627 153.983C128.37 153.589 128.241 153.106 128.241 152.534C128.241 152.042 128.335 151.636 128.525 151.318C128.714 151 128.97 150.748 129.292 150.562C129.614 150.377 129.974 150.237 130.371 150.142C130.769 150.047 131.174 149.975 131.587 149.926C132.11 149.866 132.534 149.816 132.86 149.778C133.186 149.737 133.423 149.67 133.57 149.58C133.718 149.489 133.792 149.341 133.792 149.136V149.097C133.792 148.6 133.652 148.216 133.371 147.943C133.095 147.67 132.682 147.534 132.133 147.534C131.561 147.534 131.11 147.661 130.781 147.915C130.455 148.165 130.229 148.443 130.104 148.75L128.508 148.386C128.697 147.856 128.974 147.428 129.337 147.102C129.705 146.773 130.127 146.534 130.604 146.386C131.082 146.235 131.584 146.159 132.11 146.159C132.459 146.159 132.828 146.201 133.218 146.284C133.612 146.364 133.979 146.511 134.32 146.727C134.665 146.943 134.947 147.252 135.167 147.653C135.387 148.051 135.496 148.568 135.496 149.205V155H133.837V153.807H133.769C133.659 154.027 133.495 154.242 133.275 154.455C133.055 154.667 132.773 154.843 132.428 154.983C132.084 155.123 131.671 155.193 131.19 155.193ZM131.559 153.83C132.029 153.83 132.43 153.737 132.763 153.551C133.101 153.366 133.356 153.123 133.531 152.824C133.709 152.521 133.798 152.197 133.798 151.852V150.727C133.737 150.788 133.62 150.845 133.445 150.898C133.275 150.947 133.08 150.991 132.86 151.028C132.64 151.062 132.426 151.095 132.218 151.125C132.01 151.152 131.835 151.174 131.695 151.193C131.366 151.235 131.065 151.305 130.792 151.403C130.523 151.502 130.307 151.644 130.144 151.83C129.985 152.011 129.906 152.254 129.906 152.557C129.906 152.977 130.061 153.295 130.371 153.511C130.682 153.723 131.078 153.83 131.559 153.83ZM141.435 155.176C140.591 155.176 139.863 154.985 139.254 154.602C138.647 154.216 138.182 153.684 137.856 153.006C137.53 152.328 137.367 151.551 137.367 150.676C137.367 149.79 137.534 149.008 137.867 148.33C138.201 147.648 138.67 147.116 139.276 146.733C139.882 146.35 140.596 146.159 141.418 146.159C142.081 146.159 142.672 146.282 143.191 146.528C143.71 146.771 144.129 147.112 144.447 147.551C144.769 147.991 144.96 148.504 145.021 149.091H143.367C143.276 148.682 143.068 148.33 142.742 148.034C142.42 147.739 141.988 147.591 141.447 147.591C140.973 147.591 140.558 147.716 140.202 147.966C139.85 148.212 139.576 148.564 139.379 149.023C139.182 149.477 139.083 150.015 139.083 150.636C139.083 151.273 139.18 151.822 139.373 152.284C139.566 152.746 139.839 153.104 140.191 153.358C140.547 153.612 140.966 153.739 141.447 153.739C141.769 153.739 142.06 153.68 142.322 153.562C142.587 153.441 142.808 153.269 142.987 153.045C143.168 152.822 143.295 152.553 143.367 152.239H145.021C144.96 152.803 144.776 153.307 144.469 153.75C144.163 154.193 143.752 154.542 143.237 154.795C142.725 155.049 142.125 155.176 141.435 155.176ZM148.536 143.364V155H146.837V143.364H148.536ZM150.822 155V146.273H152.521V155H150.822ZM151.68 144.926C151.384 144.926 151.13 144.828 150.918 144.631C150.71 144.43 150.606 144.191 150.606 143.915C150.606 143.634 150.71 143.396 150.918 143.199C151.13 142.998 151.384 142.898 151.68 142.898C151.975 142.898 152.227 142.998 152.435 143.199C152.647 143.396 152.754 143.634 152.754 143.915C152.754 144.191 152.647 144.43 152.435 144.631C152.227 144.828 151.975 144.926 151.68 144.926ZM158.567 155.176C157.708 155.176 156.967 154.992 156.346 154.625C155.728 154.254 155.251 153.733 154.914 153.062C154.581 152.388 154.414 151.598 154.414 150.693C154.414 149.799 154.581 149.011 154.914 148.33C155.251 147.648 155.721 147.116 156.323 146.733C156.929 146.35 157.638 146.159 158.448 146.159C158.941 146.159 159.418 146.241 159.88 146.403C160.342 146.566 160.757 146.822 161.124 147.17C161.492 147.519 161.781 147.972 161.994 148.528C162.206 149.081 162.312 149.754 162.312 150.545V151.148H155.374V149.875H160.647C160.647 149.428 160.556 149.032 160.374 148.688C160.192 148.339 159.937 148.064 159.607 147.864C159.281 147.663 158.899 147.562 158.46 147.562C157.982 147.562 157.566 147.68 157.21 147.915C156.857 148.146 156.585 148.449 156.391 148.824C156.202 149.195 156.107 149.598 156.107 150.034V151.028C156.107 151.612 156.21 152.108 156.414 152.517C156.622 152.926 156.912 153.239 157.283 153.455C157.655 153.667 158.088 153.773 158.585 153.773C158.906 153.773 159.2 153.727 159.465 153.636C159.73 153.542 159.96 153.402 160.153 153.216C160.346 153.03 160.494 152.801 160.596 152.528L162.204 152.818C162.075 153.292 161.844 153.706 161.511 154.062C161.181 154.415 160.766 154.689 160.266 154.886C159.77 155.08 159.204 155.176 158.567 155.176ZM165.896 149.818V155H164.197V146.273H165.827V147.693H165.935C166.136 147.231 166.451 146.86 166.879 146.58C167.31 146.299 167.854 146.159 168.509 146.159C169.104 146.159 169.625 146.284 170.072 146.534C170.519 146.78 170.865 147.148 171.112 147.636C171.358 148.125 171.481 148.729 171.481 149.449V155H169.782V149.653C169.782 149.021 169.617 148.527 169.288 148.17C168.958 147.811 168.505 147.631 167.93 147.631C167.536 147.631 167.185 147.716 166.879 147.886C166.576 148.057 166.335 148.307 166.157 148.636C165.983 148.962 165.896 149.356 165.896 149.818ZM177.833 146.273V147.636H173.066V146.273H177.833ZM174.344 144.182H176.043V152.438C176.043 152.767 176.093 153.015 176.191 153.182C176.29 153.345 176.416 153.456 176.572 153.517C176.731 153.574 176.903 153.602 177.089 153.602C177.225 153.602 177.344 153.593 177.447 153.574C177.549 153.555 177.629 153.54 177.685 153.528L177.992 154.932C177.894 154.97 177.754 155.008 177.572 155.045C177.39 155.087 177.163 155.11 176.89 155.114C176.443 155.121 176.026 155.042 175.64 154.875C175.254 154.708 174.941 154.451 174.702 154.102C174.464 153.754 174.344 153.316 174.344 152.79V144.182Z" fill="#000C14"/>
<path d="M64.8335 143.292C64.8335 141.406 64.8335 140.463 65.4193 139.877C66.0051 139.292 66.9479 139.292 68.8335 139.292H71.9266C72.7441 139.292 73.1529 139.292 73.5204 139.444C73.888 139.596 74.177 139.885 74.7551 140.463L76.7869 142.495C77.365 143.073 77.654 143.362 78.0216 143.514C78.3891 143.667 78.7978 143.667 79.6154 143.667H84.1668C86.0524 143.667 86.9953 143.667 87.581 144.252C88.1668 144.838 88.1668 145.781 88.1668 147.667V155.708C88.1668 157.594 88.1668 158.537 87.581 159.123C86.9953 159.708 86.0524 159.708 84.1668 159.708H68.8335C66.9479 159.708 66.0051 159.708 65.4193 159.123C64.8335 158.537 64.8335 157.594 64.8335 155.708V143.292Z" fill="#D9CAB3" stroke="black"/>
</g>
<path d="M290.312 49.6926L312.368 22.0233L337.646 38.4583V58.1401C337.646 61.1576 335.199 63.6042 332.182 63.6042H299.679C294.506 63.6042 290.312 59.4093 290.312 54.2366V49.6926Z" fill="#283593"/>
<path d="M290.312 29.891C290.312 26.0096 293.457 22.8649 297.337 22.8649H329.667L337.646 18.9008V38.9094C337.646 41.9284 335.199 44.375 332.182 44.375H299.679C294.506 44.375 290.312 48.5699 290.312 53.7425V29.891Z" fill="url(#paint0_linear_863_4814)"/>
<path d="M290.312 29.891C290.312 26.0096 293.457 22.8649 297.337 22.8649H329.667L337.646 18.9008V38.9094C337.646 41.9284 335.199 44.375 332.182 44.375H299.679C294.506 44.375 290.312 48.5699 290.312 53.7425V29.891Z" fill="#1E88E5" fill-opacity="0.6"/>
<path d="M290.312 15.2842C290.312 10.1115 294.506 5.91663 299.679 5.91663H332.183C335.199 5.91663 337.646 8.36317 337.646 11.3807V19.6803C337.646 22.6993 335.199 25.1458 332.182 25.1458H299.679C294.506 25.1458 290.312 29.3407 290.312 34.5134V15.2842Z" fill="#00E5FF"/>
<path d="M288.094 34.0209H302.885C305.744 34.0209 308.062 36.3387 308.062 39.198V53.9896C308.062 56.8489 305.744 59.1667 302.885 59.1667H288.094C285.234 59.1667 282.917 56.8489 282.917 53.9896V39.198C282.917 36.3387 285.234 34.0209 288.094 34.0209Z" fill="#1565C0"/>
<path d="M304.109 39.4094L301.014 53.7766L297.315 53.7795L295.49 45.1575L293.577 53.7795H289.844L286.871 39.4124H289.921L291.755 48.8938L293.577 39.4124H297.316L299.226 48.8938L301.016 39.4124L304.109 39.4094Z" fill="white"/>
<path d="M375.271 90.625H357.32C356.016 90.625 354.958 91.6175 354.958 92.8413V102.066H375.271V90.625Z" fill="#169154"/>
<path d="M354.958 125.006V134.159C354.958 135.382 356.016 136.375 357.319 136.375H375.271V125.006H354.958Z" fill="#18482A"/>
<path d="M354.958 102.066H375.271V113.506H354.958V102.066Z" fill="#0C8045"/>
<path d="M354.958 113.506H375.271V125.007H354.958V113.506Z" fill="#17472A"/>
<path d="M393.222 90.625H375.271V102.066H395.583V92.8413C395.583 91.6175 394.526 90.625 393.222 90.625Z" fill="#29C27F"/>
<path d="M375.271 125.006V136.375H393.223C394.526 136.375 395.583 135.382 395.583 134.16V125.007L375.271 125.006Z" fill="#27663F"/>
<path d="M375.271 102.066H395.583V113.506H375.271V102.066Z" fill="#19AC65"/>
<path d="M375.271 113.506H395.583V125.007H375.271V113.506Z" fill="#129652"/>
<path d="M366.223 126.208H343.693C342.436 126.208 341.417 125.251 341.417 124.072V102.928C341.417 101.749 342.436 100.792 343.693 100.792H366.223C367.48 100.792 368.5 101.749 368.5 102.928V124.072C368.5 125.251 367.48 126.208 366.223 126.208Z" fill="#0C7238"/>
<path d="M349.28 107.146H352.511L355.133 111.917L357.904 107.146H360.922L356.764 113.5L361.017 119.854H357.833L354.976 114.86L352.131 119.854H348.9L353.224 113.477L349.28 107.146Z" fill="white"/>
<path d="M288.833 191.5C288.833 206.204 300.754 218.125 315.458 218.125C330.163 218.125 342.083 206.204 342.083 191.5H315.458H288.833Z" fill="#DC4C2C"/>
<path d="M315.458 164.875V191.5H342.083C342.083 176.796 330.163 164.875 315.458 164.875Z" fill="#F7A278"/>
<path d="M315.458 164.875C300.754 164.875 288.833 176.796 288.833 191.5H315.458V164.875Z" fill="#C06346"/>
<path d="M310.013 206.292H285.403C284.03 206.292 282.917 205.178 282.917 203.805V179.195C282.917 177.822 284.03 176.708 285.403 176.708H310.013C311.386 176.708 312.5 177.822 312.5 179.195V203.805C312.5 205.178 311.386 206.292 310.013 206.292Z" fill="#9B341F"/>
<path d="M298.704 184.122H291.792V198.914H294.785V193.705H298.152C300.927 193.705 303.177 191.456 303.177 188.681V188.595C303.177 186.125 301.174 184.122 298.704 184.122ZM300.03 189.071C300.03 190.342 298.999 191.373 297.729 191.373H294.785V186.455H297.729C298.999 186.455 300.03 187.486 300.03 188.756V189.071Z" fill="white"/>
<defs>
<linearGradient id="paint0_linear_863_4814" x1="290.312" y1="36.3209" x2="326.561" y2="36.3209" gradientUnits="userSpaceOnUse">
<stop stop-color="#66C0FF"/>
<stop offset="0.26" stop-color="#0094F0"/>
</linearGradient>
<clipPath id="clip0_863_4814">
<rect x="26" y="41" width="194" height="51" rx="5" fill="white"/>
</clipPath>
<clipPath id="clip1_863_4814">
<rect x="26" y="124" width="194" height="51" rx="5" fill="white"/>
</clipPath>
</defs>
</svg>
