<svg width="31" height="36" viewBox="0 0 31 36" fill="none" xmlns="http://www.w3.org/2000/svg">
<path d="M25.168 7.00001L28.275 6.19995L28.2982 6.23407L28.3766 24.9946L28.275 25.0966L27.6348 25.1239L25.2044 24.7456L25.168 24.6499V7.00001Z" fill="#7A3E65"/>
<path d="M7.19824 26.3999L7.2097 26.4007L15.4113 28.7839L15.4321 28.8L15.4678 28.8284L15.4562 35.9696L15.4321 36L7.19824 32V26.3999Z" fill="#7A3E65"/>
<path d="M25.1679 24.6499L15.4456 26.9782L10.5643 25.8L7.19824 26.3999L15.4321 28.7999L28.1401 25.3594L28.2749 25.0966L25.1679 24.6499Z" fill="#CFB2C1"/>
<path d="M23.666 9.59998L23.5868 9.50968L15.5206 7.16593L15.4321 7.20004L15.3511 7.15869L2.65868 10.8186L2.58936 10.9034L2.69123 10.9592L5.5938 11.3848L5.6964 11.35L15.4186 9.02176L20.3 10.2L23.666 9.59998Z" fill="#512843"/>
<path d="M5.69626 28.9999L2.58922 29.7499L2.5838 29.732L2.46143 11.0415L2.58922 10.9033L5.69626 11.3499V28.9999Z" fill="#C17B9E"/>
<path d="M9.89099 21.7499L15.4321 22.3999L15.4737 22.3378L15.4962 13.6709L15.4321 13.5999L9.89099 14.2499V21.7499Z" fill="#7A3E65"/>
<path d="M20.9732 21.7499L15.4321 22.3999V13.5999L20.9732 14.2499V21.7499Z" fill="#C17B9E"/>
<path d="M23.666 9.59998L15.4321 7.20005V0L23.666 3.99993V9.59998Z" fill="#C17B9E"/>
<path d="M15.4321 0L0 7.44998V28.5499L2.58934 29.75V10.9034L15.4321 7.20005V0Z" fill="#7A3E65"/>
<path d="M28.2749 6.19995V25.0966L15.4321 28.7999V36L30.8642 28.5499V7.44995L28.2749 6.19995Z" fill="#C17B9E"/>
</svg>
