<svg width="443" height="198" viewBox="0 0 443 198" fill="none" xmlns="http://www.w3.org/2000/svg">
<path d="M23.8256 108.49C27.2599 111.282 27.838 114.249 25.56 117.39C22.752 121.172 17.5547 122.545 13.1553 120.418L13.1185 120.4C13.1079 120.395 13.0972 120.39 13.0866 120.384C8.14113 117.971 6.09624 112.022 8.51923 107.096L14.0033 95.9467L17.085 89.6818L20.7886 82.1525C22.5884 78.4937 26.3421 76.4228 30.1848 76.5796C33.8967 76.5656 37.4694 78.6193 39.2114 82.1607L51.4808 107.104C53.9038 112.03 51.8589 117.979 46.9134 120.393C46.9028 120.398 46.8921 120.403 46.8815 120.408L46.8447 120.426C41.9296 122.803 36.0185 120.81 33.5561 115.971C32.2798 113.297 33.131 110.774 36.1097 108.4H36.1087C38.3488 106.598 39.7815 103.839 39.7815 100.748C39.7815 95.3177 35.362 90.9158 29.9103 90.9158C24.4587 90.9158 20.0392 95.3177 20.0392 100.748C20.0392 103.891 21.5204 106.69 23.8256 108.49ZM29.9193 105.9C27.0548 105.9 24.7327 103.588 24.7327 100.735C24.7327 97.8815 27.0548 95.5686 29.9193 95.5686C32.7837 95.5686 35.1058 97.8815 35.1058 100.735C35.1058 103.588 32.7837 105.9 29.9193 105.9Z" fill="#FF8F34"/>
<path d="M408.031 109.174C411.351 111.873 411.91 114.74 409.708 117.777C406.994 121.433 401.97 122.76 397.717 120.704L397.681 120.687C397.671 120.682 397.661 120.677 397.65 120.672C392.87 118.339 390.893 112.587 393.235 107.826L398.537 97.0484L401.516 90.9924L405.096 83.714C406.835 80.1772 410.464 78.1753 414.179 78.3269C417.767 78.3133 421.22 80.2986 422.904 83.722L434.765 107.834C437.107 112.595 435.13 118.347 430.35 120.68C430.339 120.685 430.329 120.69 430.319 120.695L430.283 120.712C425.532 123.009 419.818 121.083 417.438 116.405C416.204 113.82 417.027 111.381 419.906 109.087H419.905C422.071 107.344 423.455 104.678 423.455 101.689C423.455 96.4404 419.183 92.1852 413.913 92.1852C408.643 92.1852 404.371 96.4404 404.371 101.689C404.371 104.728 405.803 107.434 408.031 109.174ZM413.922 106.67C411.153 106.67 408.908 104.435 408.908 101.677C408.908 98.9187 411.153 96.6829 413.922 96.6829C416.691 96.6829 418.936 98.9187 418.936 101.677C418.936 104.435 416.691 106.67 413.922 106.67Z" fill="#FF8F34"/>
<mask id="mask0_204_110" style="mask-type:alpha" maskUnits="userSpaceOnUse" x="180" y="6" width="36" height="36">
<path fill-rule="evenodd" clip-rule="evenodd" d="M198.747 6.34174C198.285 6.07554 197.715 6.07554 197.252 6.34174L187.502 11.948C187.037 12.2156 186.75 12.7115 186.75 13.2483V15.3463L183.755 17.0617C183.288 17.3289 183 17.8255 183 18.3633V21.3151L180.738 22.648C180.281 22.9177 180 23.4092 180 23.9403V30.6333C180 31.1644 180.281 31.6558 180.738 31.9255L197.238 41.6504C197.708 41.9274 198.292 41.9274 198.762 41.6504L215.262 31.9255C215.719 31.6558 216 31.1644 216 30.6333V23.9403C216 23.4092 215.719 22.9177 215.262 22.648L212.997 21.3133V18.3633C212.997 17.8255 212.709 17.3289 212.242 17.0617L209.25 15.3477V13.2483C209.25 12.7115 208.963 12.2156 208.497 11.948L198.747 6.34174Z" fill="#C4C4C4"/>
</mask>
<g mask="url(#mask0_204_110)">
<path d="M215.262 22.6479C215.719 22.9176 216 23.4091 216 23.9402V30.6331C216 31.1643 215.719 31.6557 215.262 31.9254L198.762 41.6503C198.292 41.9273 197.708 41.9273 197.238 41.6503L180.738 31.9254C180.281 31.6557 180 31.1643 180 30.6331V23.9402C180 23.4091 180.281 22.9176 180.738 22.6479L197.238 12.9231C197.708 12.6461 198.292 12.6461 198.762 12.9231L215.262 22.6479Z" fill="url(#paint0_linear_204_110)"/>
<path d="M212.243 28.8799C212.709 28.6127 212.997 28.116 212.997 27.5782V18.3634C212.997 17.8256 212.709 17.3289 212.243 17.0617L198.744 9.33162C198.282 9.06719 197.715 9.06719 197.253 9.33163L183.755 17.0617C183.288 17.3289 183 17.8256 183 18.3634V27.5782C183 28.116 183.288 28.6127 183.755 28.8799L197.253 36.61C197.715 36.8744 198.282 36.8744 198.744 36.61L212.243 28.8799Z" fill="url(#paint1_linear_204_110)"/>
<g filter="url(#filter0_f_204_110)">
<path d="M197.252 7.09174C197.715 6.82554 198.285 6.82554 198.747 7.09174L208.497 12.698C208.963 12.9656 209.25 13.4615 209.25 13.9983V25.2003C209.25 25.7371 208.963 26.233 208.497 26.5006L198.747 32.1069C198.285 32.373 197.715 32.373 197.252 32.1069L187.502 26.5006C187.037 26.233 186.75 25.7371 186.75 25.2003V13.9983C186.75 13.4615 187.037 12.9656 187.502 12.698L197.252 7.09174Z" fill="black" fill-opacity="0.32"/>
</g>
<g filter="url(#filter1_f_204_110)">
<path d="M197.252 6.48407C197.715 6.21787 198.285 6.21787 198.747 6.48407L208.497 12.0903C208.963 12.3579 209.25 12.8538 209.25 13.3907V24.5926C209.25 25.1294 208.963 25.6253 208.497 25.8929L198.747 31.4992C198.285 31.7654 197.715 31.7654 197.252 31.4992L187.502 25.8929C187.037 25.6253 186.75 25.1294 186.75 24.5926V13.3907C186.75 12.8538 187.037 12.3579 187.502 12.0903L197.252 6.48407Z" fill="black" fill-opacity="0.24"/>
</g>
<path d="M197.252 6.34174C197.715 6.07554 198.285 6.07554 198.747 6.34174L208.497 11.948C208.963 12.2156 209.25 12.7115 209.25 13.2483V24.4503C209.25 24.9871 208.963 25.483 208.497 25.7506L198.747 31.3569C198.285 31.623 197.715 31.623 197.252 31.3569L187.502 25.7506C187.037 25.483 186.75 24.9871 186.75 24.4503V13.2483C186.75 12.7115 187.037 12.2156 187.502 11.948L197.252 6.34174Z" fill="url(#paint2_linear_204_110)"/>
<path d="M197.252 6.34141C197.715 6.07535 198.284 6.07532 198.747 6.34134L208.414 11.8975C208.788 12.1121 208.791 12.6498 208.421 12.8692L198.764 18.5845C198.292 18.8634 197.707 18.8633 197.236 18.5845L187.581 12.8692C187.21 12.6498 187.214 12.1122 187.587 11.8975L197.252 6.34141Z" fill="url(#paint3_linear_204_110)"/>
</g>
<path d="M141.763 27.5313V38.0331C142.208 37.9546 142.637 37.801 143.03 37.5789L151.72 32.5826C152.994 31.8482 153.779 30.4906 153.781 29.0206V19.0565C153.781 18.6521 153.714 18.2598 153.598 17.8838L144.153 23.3326C142.211 24.7058 141.791 26.0058 141.764 27.5313" fill="#FFC600"/>
<path d="M157.044 15.8945L153.598 17.8837C153.714 18.2589 153.78 18.6521 153.78 19.0547V29.0214C153.78 30.4867 152.991 31.8521 151.72 32.5834L143.03 37.5788C142.637 37.801 142.209 37.9549 141.764 38.034V42.0003C142.378 41.912 142.971 41.7091 143.511 41.4024L154.795 34.9133C156.369 34.0047 157.34 32.3264 157.343 30.509V17.5671C157.341 16.9965 157.24 16.4306 157.044 15.8945Z" fill="#F6EB61"/>
<path d="M140.972 24.2302C141.485 23.3913 142.251 22.6678 143.351 21.9751L152.859 16.4893C152.546 16.0882 152.159 15.7501 151.72 15.493L143.031 10.4976C141.76 9.76972 140.199 9.77037 138.929 10.4993L130.275 15.4921C129.819 15.7546 129.437 16.1082 129.122 16.5108L138.585 21.9708C139.691 22.6678 140.458 23.3913 140.972 24.2302Z" fill="#439879"/>
<path d="M130.275 15.4924L138.929 10.4996C140.199 9.77036 141.76 9.76938 143.03 10.497L151.72 15.4941C152.168 15.7514 152.546 16.0964 152.858 16.4896L156.299 14.5047C155.895 13.9592 155.382 13.5024 154.794 13.1625L143.51 6.67345C141.938 5.77429 140.008 5.7756 138.439 6.67689L127.199 13.1608C126.606 13.5078 126.09 13.9724 125.682 14.5262L129.121 16.5102C129.437 16.0997 129.828 15.7538 130.274 15.4915" fill="#28CDFB"/>
<path d="M138.929 37.5759L130.275 32.5831C129.005 31.8482 128.221 30.4925 128.219 29.0246V19.0518C128.219 18.6595 128.284 18.2775 128.392 17.911L124.944 15.9209C124.756 16.4478 124.659 17.0025 124.657 17.5617V30.5148C124.66 32.3297 125.628 34.006 127.199 34.9148L138.438 41.3995C138.971 41.7058 139.556 41.9028 140.179 41.9983V38.0294C139.74 37.9493 139.317 37.7961 138.929 37.5759Z" fill="#FDD757"/>
<path d="M137.775 23.322L128.392 17.9102C128.284 18.2767 128.22 18.6587 128.22 19.051V29.0237C128.22 30.4881 129.008 31.8518 130.276 32.5823L138.928 37.576C139.322 37.8014 139.745 37.9459 140.179 38.0277V27.5284C140.151 26.0055 139.732 24.7055 137.775 23.322" fill="#EC8B00"/>
<path d="M99.363 8.63696C101.056 10.3301 101.935 12.4511 101.999 14.9998V33.0002C101.935 35.5483 101.056 37.6699 99.363 39.363C97.6699 41.0562 95.5483 41.9352 92.9995 42H74.9998C72.4511 41.9352 70.3301 41.0562 68.637 39.363C66.9438 37.6699 66.0648 35.5483 66 33.0002V14.9998C66.0648 12.4511 66.9438 10.3301 68.637 8.63696C70.3301 6.94378 72.4511 6.0648 74.9998 6H92.9995C95.5483 6.0648 97.6699 6.94378 99.363 8.63696ZM96.8803 23.1213C96.3145 22.5585 96.0205 21.8523 95.9971 21.0027V14.9998C95.9791 14.1503 95.6875 13.4429 95.1223 12.8777C94.5571 12.3119 93.8491 12.0209 92.9995 12.0029H90.0026V26.9973L77.9974 12.0029H74.9998C74.1503 12.0209 73.4429 12.3119 72.8777 12.8777C72.3119 13.4429 72.0209 14.1503 72.0029 14.9998V21.0027C71.9795 21.8523 71.6855 22.5585 71.1197 23.1213C70.5545 23.6835 69.8471 23.9763 68.9975 23.9997C69.8471 24.0237 70.5545 24.3165 71.1197 24.8787C71.6855 25.4415 71.9795 26.1477 72.0029 26.9973V33.0002C72.0209 33.8491 72.3119 34.5571 72.8777 35.1223C73.4429 35.6875 74.1503 35.9791 74.9998 35.9971H77.9974V21.0027L90.0026 35.9971H92.9995C93.8491 35.9791 94.5571 35.6875 95.1223 35.1223C95.6875 34.5571 95.9791 33.8491 95.9971 33.0002V26.9973C96.0205 26.1477 96.3145 25.4415 96.8803 24.8787C97.4455 24.3165 98.1529 24.0237 99.0024 23.9997C98.1529 23.9763 97.4455 23.6835 96.8803 23.1213Z" fill="#3C5AFD"/>
<mask id="mask1_204_110" style="mask-type:alpha" maskUnits="userSpaceOnUse" x="354" y="6" width="36" height="36">
<path fill-rule="evenodd" clip-rule="evenodd" d="M372.747 6.34174C372.285 6.07554 371.715 6.07554 371.252 6.34174L361.502 11.948C361.037 12.2156 360.75 12.7115 360.75 13.2483V15.3463L357.755 17.0617C357.288 17.3289 357 17.8255 357 18.3633V21.3151L354.738 22.648C354.281 22.9177 354 23.4092 354 23.9403V30.6333C354 31.1644 354.281 31.6558 354.738 31.9255L371.238 41.6504C371.708 41.9274 372.292 41.9274 372.762 41.6504L389.262 31.9255C389.719 31.6558 390 31.1644 390 30.6333V23.9403C390 23.4092 389.719 22.9177 389.262 22.648L386.997 21.3133V18.3633C386.997 17.8255 386.709 17.3289 386.242 17.0617L383.25 15.3477V13.2483C383.25 12.7115 382.963 12.2156 382.497 11.948L372.747 6.34174Z" fill="#C4C4C4"/>
</mask>
<g mask="url(#mask1_204_110)">
<path d="M389.262 22.6479C389.719 22.9176 390 23.4091 390 23.9402V30.6331C390 31.1643 389.719 31.6557 389.262 31.9254L372.762 41.6503C372.292 41.9273 371.708 41.9273 371.238 41.6503L354.738 31.9254C354.281 31.6557 354 31.1643 354 30.6331V23.9402C354 23.4091 354.281 22.9176 354.738 22.6479L371.238 12.9231C371.708 12.6461 372.292 12.6461 372.762 12.9231L389.262 22.6479Z" fill="url(#paint4_linear_204_110)"/>
<path d="M386.243 28.8799C386.709 28.6127 386.997 28.116 386.997 27.5782V18.3634C386.997 17.8256 386.709 17.3289 386.243 17.0617L372.744 9.33162C372.282 9.06719 371.715 9.06719 371.253 9.33163L357.755 17.0617C357.288 17.3289 357 17.8256 357 18.3634V27.5782C357 28.116 357.288 28.6127 357.755 28.8799L371.253 36.61C371.715 36.8744 372.282 36.8744 372.744 36.61L386.243 28.8799Z" fill="url(#paint5_linear_204_110)"/>
<g filter="url(#filter2_f_204_110)">
<path d="M371.252 7.09174C371.715 6.82554 372.285 6.82554 372.747 7.09174L382.497 12.698C382.963 12.9656 383.25 13.4615 383.25 13.9983V25.2003C383.25 25.7371 382.963 26.233 382.497 26.5006L372.747 32.1069C372.285 32.373 371.715 32.373 371.252 32.1069L361.502 26.5006C361.037 26.233 360.75 25.7371 360.75 25.2003V13.9983C360.75 13.4615 361.037 12.9656 361.502 12.698L371.252 7.09174Z" fill="black" fill-opacity="0.32"/>
</g>
<g filter="url(#filter3_f_204_110)">
<path d="M371.252 6.48407C371.715 6.21787 372.285 6.21787 372.747 6.48407L382.497 12.0903C382.963 12.3579 383.25 12.8538 383.25 13.3907V24.5926C383.25 25.1294 382.963 25.6253 382.497 25.8929L372.747 31.4992C372.285 31.7654 371.715 31.7654 371.252 31.4992L361.502 25.8929C361.037 25.6253 360.75 25.1294 360.75 24.5926V13.3907C360.75 12.8538 361.037 12.3579 361.502 12.0903L371.252 6.48407Z" fill="black" fill-opacity="0.24"/>
</g>
<path d="M371.252 6.34174C371.715 6.07554 372.285 6.07554 372.747 6.34174L382.497 11.948C382.963 12.2156 383.25 12.7115 383.25 13.2483V24.4503C383.25 24.9871 382.963 25.483 382.497 25.7506L372.747 31.3569C372.285 31.623 371.715 31.623 371.252 31.3569L361.502 25.7506C361.037 25.483 360.75 24.9871 360.75 24.4503V13.2483C360.75 12.7115 361.037 12.2156 361.502 11.948L371.252 6.34174Z" fill="url(#paint6_linear_204_110)"/>
<path d="M371.252 6.34141C371.715 6.07535 372.284 6.07532 372.747 6.34134L382.414 11.8975C382.788 12.1121 382.791 12.6498 382.421 12.8692L372.764 18.5845C372.292 18.8634 371.707 18.8633 371.236 18.5845L361.581 12.8692C361.21 12.6498 361.214 12.1122 361.587 11.8975L371.252 6.34141Z" fill="url(#paint7_linear_204_110)"/>
</g>
<path d="M315.763 27.5313V38.0331C316.208 37.9546 316.637 37.801 317.03 37.5789L325.72 32.5826C326.994 31.8482 327.779 30.4906 327.781 29.0206V19.0565C327.781 18.6521 327.714 18.2598 327.598 17.8838L318.153 23.3326C316.211 24.7058 315.791 26.0058 315.764 27.5313" fill="#FFC600"/>
<path d="M331.044 15.8945L327.598 17.8837C327.714 18.2589 327.78 18.6521 327.78 19.0547V29.0214C327.78 30.4867 326.991 31.8521 325.72 32.5834L317.03 37.5788C316.637 37.801 316.209 37.9549 315.764 38.034V42.0003C316.378 41.912 316.971 41.7091 317.511 41.4024L328.795 34.9133C330.369 34.0047 331.34 32.3264 331.343 30.509V17.5671C331.341 16.9965 331.24 16.4306 331.044 15.8945Z" fill="#F6EB61"/>
<path d="M314.972 24.2302C315.485 23.3913 316.251 22.6678 317.351 21.9751L326.859 16.4893C326.546 16.0882 326.159 15.7501 325.72 15.493L317.031 10.4976C315.76 9.76972 314.199 9.77037 312.929 10.4993L304.275 15.4921C303.819 15.7546 303.437 16.1082 303.122 16.5108L312.585 21.9708C313.691 22.6678 314.458 23.3913 314.972 24.2302Z" fill="#439879"/>
<path d="M304.275 15.4924L312.929 10.4996C314.199 9.77036 315.76 9.76938 317.03 10.497L325.72 15.4941C326.168 15.7514 326.546 16.0964 326.858 16.4896L330.299 14.5047C329.895 13.9592 329.382 13.5024 328.794 13.1625L317.51 6.67345C315.938 5.77429 314.008 5.7756 312.439 6.67689L301.199 13.1608C300.606 13.5078 300.09 13.9724 299.682 14.5262L303.121 16.5102C303.437 16.0997 303.828 15.7538 304.274 15.4915" fill="#28CDFB"/>
<path d="M312.929 37.5759L304.275 32.5831C303.005 31.8482 302.221 30.4925 302.219 29.0246V19.0518C302.219 18.6595 302.284 18.2775 302.392 17.911L298.944 15.9209C298.756 16.4478 298.659 17.0025 298.657 17.5617V30.5148C298.66 32.3297 299.628 34.006 301.199 34.9148L312.438 41.3995C312.971 41.7058 313.556 41.9028 314.179 41.9983V38.0294C313.74 37.9493 313.317 37.7961 312.929 37.5759Z" fill="#FDD757"/>
<path d="M311.775 23.322L302.392 17.9102C302.284 18.2767 302.22 18.6587 302.22 19.051V29.0237C302.22 30.4881 303.008 31.8518 304.276 32.5823L312.928 37.576C313.322 37.8014 313.745 37.9459 314.179 38.0277V27.5284C314.151 26.0055 313.732 24.7055 311.775 23.322" fill="#EC8B00"/>
<path d="M273.363 8.63696C275.056 10.3301 275.935 12.4511 275.999 14.9998V33.0002C275.935 35.5483 275.056 37.6699 273.363 39.363C271.67 41.0562 269.548 41.9352 267 42H249C246.451 41.9352 244.33 41.0562 242.637 39.363C240.944 37.6699 240.065 35.5483 240 33.0002V14.9998C240.065 12.4511 240.944 10.3301 242.637 8.63696C244.33 6.94378 246.451 6.0648 249 6H267C269.548 6.0648 271.67 6.94378 273.363 8.63696ZM270.88 23.1213C270.314 22.5585 270.02 21.8523 269.997 21.0027V14.9998C269.979 14.1503 269.688 13.4429 269.122 12.8777C268.557 12.3119 267.849 12.0209 267 12.0029H264.003V26.9973L251.997 12.0029H249C248.15 12.0209 247.443 12.3119 246.878 12.8777C246.312 13.4429 246.021 14.1503 246.003 14.9998V21.0027C245.979 21.8523 245.686 22.5585 245.12 23.1213C244.555 23.6835 243.847 23.9763 242.998 23.9997C243.847 24.0237 244.555 24.3165 245.12 24.8787C245.686 25.4415 245.979 26.1477 246.003 26.9973V33.0002C246.021 33.8491 246.312 34.5571 246.878 35.1223C247.443 35.6875 248.15 35.9791 249 35.9971H251.997V21.0027L264.003 35.9971H267C267.849 35.9791 268.557 35.6875 269.122 35.1223C269.688 34.5571 269.979 33.8491 269.997 33.0002V26.9973C270.02 26.1477 270.314 25.4415 270.88 24.8787C271.445 24.3165 272.153 24.0237 273.002 23.9997C272.153 23.9763 271.445 23.6835 270.88 23.1213Z" fill="#3C5AFD"/>
<mask id="mask2_204_110" style="mask-type:alpha" maskUnits="userSpaceOnUse" x="180" y="156" width="36" height="36">
<path fill-rule="evenodd" clip-rule="evenodd" d="M198.747 156.342C198.285 156.076 197.715 156.076 197.252 156.342L187.502 161.948C187.037 162.216 186.75 162.711 186.75 163.248V165.346L183.755 167.062C183.288 167.329 183 167.826 183 168.363V171.315L180.738 172.648C180.281 172.918 180 173.409 180 173.94V180.633C180 181.164 180.281 181.656 180.738 181.926L197.238 191.65C197.708 191.927 198.292 191.927 198.762 191.65L215.262 181.926C215.719 181.656 216 181.164 216 180.633V173.94C216 173.409 215.719 172.918 215.262 172.648L212.997 171.313V168.363C212.997 167.826 212.709 167.329 212.242 167.062L209.25 165.348V163.248C209.25 162.711 208.963 162.216 208.497 161.948L198.747 156.342Z" fill="#C4C4C4"/>
</mask>
<g mask="url(#mask2_204_110)">
<path d="M215.262 172.648C215.719 172.918 216 173.409 216 173.94V180.633C216 181.164 215.719 181.656 215.262 181.925L198.762 191.65C198.292 191.927 197.708 191.927 197.238 191.65L180.738 181.925C180.281 181.656 180 181.164 180 180.633V173.94C180 173.409 180.281 172.918 180.738 172.648L197.238 162.923C197.708 162.646 198.292 162.646 198.762 162.923L215.262 172.648Z" fill="url(#paint8_linear_204_110)"/>
<path d="M212.243 178.88C212.709 178.613 212.997 178.116 212.997 177.578V168.363C212.997 167.826 212.709 167.329 212.243 167.062L198.744 159.332C198.282 159.067 197.715 159.067 197.253 159.332L183.755 167.062C183.288 167.329 183 167.826 183 168.363V177.578C183 178.116 183.288 178.613 183.755 178.88L197.253 186.61C197.715 186.874 198.282 186.874 198.744 186.61L212.243 178.88Z" fill="url(#paint9_linear_204_110)"/>
<g filter="url(#filter4_f_204_110)">
<path d="M197.252 157.092C197.715 156.826 198.285 156.826 198.747 157.092L208.497 162.698C208.963 162.966 209.25 163.461 209.25 163.998V175.2C209.25 175.737 208.963 176.233 208.497 176.501L198.747 182.107C198.285 182.373 197.715 182.373 197.252 182.107L187.502 176.501C187.037 176.233 186.75 175.737 186.75 175.2V163.998C186.75 163.461 187.037 162.966 187.502 162.698L197.252 157.092Z" fill="black" fill-opacity="0.32"/>
</g>
<g filter="url(#filter5_f_204_110)">
<path d="M197.252 156.484C197.715 156.218 198.285 156.218 198.747 156.484L208.497 162.09C208.963 162.358 209.25 162.854 209.25 163.391V174.593C209.25 175.129 208.963 175.625 208.497 175.893L198.747 181.499C198.285 181.765 197.715 181.765 197.252 181.499L187.502 175.893C187.037 175.625 186.75 175.129 186.75 174.593V163.391C186.75 162.854 187.037 162.358 187.502 162.09L197.252 156.484Z" fill="black" fill-opacity="0.24"/>
</g>
<path d="M197.252 156.342C197.715 156.076 198.285 156.076 198.747 156.342L208.497 161.948C208.963 162.216 209.25 162.711 209.25 163.248V174.45C209.25 174.987 208.963 175.483 208.497 175.751L198.747 181.357C198.285 181.623 197.715 181.623 197.252 181.357L187.502 175.751C187.037 175.483 186.75 174.987 186.75 174.45V163.248C186.75 162.711 187.037 162.216 187.502 161.948L197.252 156.342Z" fill="url(#paint10_linear_204_110)"/>
<path d="M197.252 156.341C197.715 156.075 198.284 156.075 198.747 156.341L208.414 161.897C208.788 162.112 208.791 162.65 208.421 162.869L198.764 168.585C198.292 168.863 197.707 168.863 197.236 168.584L187.581 162.869C187.21 162.65 187.214 162.112 187.587 161.897L197.252 156.341Z" fill="url(#paint11_linear_204_110)"/>
</g>
<path d="M141.763 177.531V188.033C142.208 187.955 142.637 187.801 143.03 187.579L151.72 182.583C152.994 181.848 153.779 180.491 153.781 179.021V169.056C153.781 168.652 153.714 168.26 153.598 167.884L144.153 173.333C142.211 174.706 141.791 176.006 141.764 177.531" fill="#FFC600"/>
<path d="M157.044 165.895L153.598 167.884C153.714 168.259 153.78 168.652 153.78 169.055V179.021C153.78 180.487 152.991 181.852 151.72 182.583L143.03 187.579C142.637 187.801 142.209 187.955 141.764 188.034V192C142.378 191.912 142.971 191.709 143.511 191.402L154.795 184.913C156.369 184.005 157.34 182.326 157.343 180.509V167.567C157.341 166.997 157.24 166.431 157.044 165.895Z" fill="#F6EB61"/>
<path d="M140.972 174.23C141.485 173.391 142.251 172.668 143.351 171.975L152.859 166.489C152.546 166.088 152.159 165.75 151.72 165.493L143.031 160.498C141.76 159.77 140.199 159.77 138.929 160.499L130.275 165.492C129.819 165.755 129.437 166.108 129.122 166.511L138.585 171.971C139.691 172.668 140.458 173.391 140.972 174.23Z" fill="#439879"/>
<path d="M130.275 165.492L138.929 160.5C140.199 159.77 141.76 159.769 143.03 160.497L151.72 165.494C152.168 165.751 152.546 166.096 152.858 166.49L156.299 164.505C155.895 163.959 155.382 163.502 154.794 163.162L143.51 156.673C141.938 155.774 140.008 155.776 138.439 156.677L127.199 163.161C126.606 163.508 126.09 163.972 125.682 164.526L129.121 166.51C129.437 166.1 129.828 165.754 130.274 165.492" fill="#28CDFB"/>
<path d="M138.929 187.576L130.275 182.583C129.005 181.848 128.221 180.492 128.219 179.025V169.052C128.219 168.66 128.284 168.277 128.392 167.911L124.944 165.921C124.756 166.448 124.659 167.003 124.657 167.562V180.515C124.66 182.33 125.628 184.006 127.199 184.915L138.438 191.399C138.971 191.706 139.556 191.903 140.179 191.998V188.029C139.74 187.949 139.317 187.796 138.929 187.576Z" fill="#FDD757"/>
<path d="M137.775 173.322L128.392 167.91C128.284 168.277 128.22 168.659 128.22 169.051V179.024C128.22 180.488 129.008 181.852 130.276 182.582L138.928 187.576C139.322 187.801 139.745 187.946 140.179 188.028V177.528C140.151 176.006 139.732 174.705 137.775 173.322" fill="#EC8B00"/>
<path d="M99.363 158.637C101.056 160.33 101.935 162.451 101.999 165V183C101.935 185.548 101.056 187.67 99.363 189.363C97.6699 191.056 95.5483 191.935 92.9995 192H74.9998C72.4511 191.935 70.3301 191.056 68.637 189.363C66.9438 187.67 66.0648 185.548 66 183V165C66.0648 162.451 66.9438 160.33 68.637 158.637C70.3301 156.944 72.4511 156.065 74.9998 156H92.9995C95.5483 156.065 97.6699 156.944 99.363 158.637ZM96.8803 173.121C96.3145 172.559 96.0205 171.852 95.9971 171.003V165C95.9791 164.15 95.6875 163.443 95.1223 162.878C94.5571 162.312 93.8491 162.021 92.9995 162.003H90.0026V176.997L77.9974 162.003H74.9998C74.1503 162.021 73.4429 162.312 72.8777 162.878C72.3119 163.443 72.0209 164.15 72.0029 165V171.003C71.9795 171.852 71.6855 172.559 71.1197 173.121C70.5545 173.684 69.8471 173.976 68.9975 174C69.8471 174.024 70.5545 174.316 71.1197 174.879C71.6855 175.441 71.9795 176.148 72.0029 176.997V183C72.0209 183.849 72.3119 184.557 72.8777 185.122C73.4429 185.688 74.1503 185.979 74.9998 185.997H77.9974V171.003L90.0026 185.997H92.9995C93.8491 185.979 94.5571 185.688 95.1223 185.122C95.6875 184.557 95.9791 183.849 95.9971 183V176.997C96.0205 176.148 96.3145 175.441 96.8803 174.879C97.4455 174.316 98.1529 174.024 99.0024 174C98.1529 173.976 97.4455 173.684 96.8803 173.121Z" fill="#3C5AFD"/>
<mask id="mask3_204_110" style="mask-type:alpha" maskUnits="userSpaceOnUse" x="354" y="156" width="36" height="36">
<path fill-rule="evenodd" clip-rule="evenodd" d="M372.747 156.342C372.285 156.076 371.715 156.076 371.252 156.342L361.502 161.948C361.037 162.216 360.75 162.711 360.75 163.248V165.346L357.755 167.062C357.288 167.329 357 167.826 357 168.363V171.315L354.738 172.648C354.281 172.918 354 173.409 354 173.94V180.633C354 181.164 354.281 181.656 354.738 181.926L371.238 191.65C371.708 191.927 372.292 191.927 372.762 191.65L389.262 181.926C389.719 181.656 390 181.164 390 180.633V173.94C390 173.409 389.719 172.918 389.262 172.648L386.997 171.313V168.363C386.997 167.826 386.709 167.329 386.242 167.062L383.25 165.348V163.248C383.25 162.711 382.963 162.216 382.497 161.948L372.747 156.342Z" fill="#C4C4C4"/>
</mask>
<g mask="url(#mask3_204_110)">
<path d="M389.262 172.648C389.719 172.918 390 173.409 390 173.94V180.633C390 181.164 389.719 181.656 389.262 181.925L372.762 191.65C372.292 191.927 371.708 191.927 371.238 191.65L354.738 181.925C354.281 181.656 354 181.164 354 180.633V173.94C354 173.409 354.281 172.918 354.738 172.648L371.238 162.923C371.708 162.646 372.292 162.646 372.762 162.923L389.262 172.648Z" fill="url(#paint12_linear_204_110)"/>
<path d="M386.243 178.88C386.709 178.613 386.997 178.116 386.997 177.578V168.363C386.997 167.826 386.709 167.329 386.243 167.062L372.744 159.332C372.282 159.067 371.715 159.067 371.253 159.332L357.755 167.062C357.288 167.329 357 167.826 357 168.363V177.578C357 178.116 357.288 178.613 357.755 178.88L371.253 186.61C371.715 186.874 372.282 186.874 372.744 186.61L386.243 178.88Z" fill="url(#paint13_linear_204_110)"/>
<g filter="url(#filter6_f_204_110)">
<path d="M371.252 157.092C371.715 156.826 372.285 156.826 372.747 157.092L382.497 162.698C382.963 162.966 383.25 163.461 383.25 163.998V175.2C383.25 175.737 382.963 176.233 382.497 176.501L372.747 182.107C372.285 182.373 371.715 182.373 371.252 182.107L361.502 176.501C361.037 176.233 360.75 175.737 360.75 175.2V163.998C360.75 163.461 361.037 162.966 361.502 162.698L371.252 157.092Z" fill="black" fill-opacity="0.32"/>
</g>
<g filter="url(#filter7_f_204_110)">
<path d="M371.252 156.484C371.715 156.218 372.285 156.218 372.747 156.484L382.497 162.09C382.963 162.358 383.25 162.854 383.25 163.391V174.593C383.25 175.129 382.963 175.625 382.497 175.893L372.747 181.499C372.285 181.765 371.715 181.765 371.252 181.499L361.502 175.893C361.037 175.625 360.75 175.129 360.75 174.593V163.391C360.75 162.854 361.037 162.358 361.502 162.09L371.252 156.484Z" fill="black" fill-opacity="0.24"/>
</g>
<path d="M371.252 156.342C371.715 156.076 372.285 156.076 372.747 156.342L382.497 161.948C382.963 162.216 383.25 162.711 383.25 163.248V174.45C383.25 174.987 382.963 175.483 382.497 175.751L372.747 181.357C372.285 181.623 371.715 181.623 371.252 181.357L361.502 175.751C361.037 175.483 360.75 174.987 360.75 174.45V163.248C360.75 162.711 361.037 162.216 361.502 161.948L371.252 156.342Z" fill="url(#paint14_linear_204_110)"/>
<path d="M371.252 156.341C371.715 156.075 372.284 156.075 372.747 156.341L382.414 161.897C382.788 162.112 382.791 162.65 382.421 162.869L372.764 168.585C372.292 168.863 371.707 168.863 371.236 168.584L361.581 162.869C361.21 162.65 361.214 162.112 361.587 161.897L371.252 156.341Z" fill="url(#paint15_linear_204_110)"/>
</g>
<path d="M315.763 177.531V188.033C316.208 187.955 316.637 187.801 317.03 187.579L325.72 182.583C326.994 181.848 327.779 180.491 327.781 179.021V169.056C327.781 168.652 327.714 168.26 327.598 167.884L318.153 173.333C316.211 174.706 315.791 176.006 315.764 177.531" fill="#FFC600"/>
<path d="M331.044 165.895L327.598 167.884C327.714 168.259 327.78 168.652 327.78 169.055V179.021C327.78 180.487 326.991 181.852 325.72 182.583L317.03 187.579C316.637 187.801 316.209 187.955 315.764 188.034V192C316.378 191.912 316.971 191.709 317.511 191.402L328.795 184.913C330.369 184.005 331.34 182.326 331.343 180.509V167.567C331.341 166.997 331.24 166.431 331.044 165.895Z" fill="#F6EB61"/>
<path d="M314.972 174.23C315.485 173.391 316.251 172.668 317.351 171.975L326.859 166.489C326.546 166.088 326.159 165.75 325.72 165.493L317.031 160.498C315.76 159.77 314.199 159.77 312.929 160.499L304.275 165.492C303.819 165.755 303.437 166.108 303.122 166.511L312.585 171.971C313.691 172.668 314.458 173.391 314.972 174.23Z" fill="#439879"/>
<path d="M304.275 165.492L312.929 160.5C314.199 159.77 315.76 159.769 317.03 160.497L325.72 165.494C326.168 165.751 326.546 166.096 326.858 166.49L330.299 164.505C329.895 163.959 329.382 163.502 328.794 163.162L317.51 156.673C315.938 155.774 314.008 155.776 312.439 156.677L301.199 163.161C300.606 163.508 300.09 163.972 299.682 164.526L303.121 166.51C303.437 166.1 303.828 165.754 304.274 165.492" fill="#28CDFB"/>
<path d="M312.929 187.576L304.275 182.583C303.005 181.848 302.221 180.492 302.219 179.025V169.052C302.219 168.66 302.284 168.277 302.392 167.911L298.944 165.921C298.756 166.448 298.659 167.003 298.657 167.562V180.515C298.66 182.33 299.628 184.006 301.199 184.915L312.438 191.399C312.971 191.706 313.556 191.903 314.179 191.998V188.029C313.74 187.949 313.317 187.796 312.929 187.576Z" fill="#FDD757"/>
<path d="M311.775 173.322L302.392 167.91C302.284 168.277 302.22 168.659 302.22 169.051V179.024C302.22 180.488 303.008 181.852 304.276 182.582L312.928 187.576C313.322 187.801 313.745 187.946 314.179 188.028V177.528C314.151 176.006 313.732 174.705 311.775 173.322" fill="#EC8B00"/>
<path d="M273.363 158.637C275.056 160.33 275.935 162.451 275.999 165V183C275.935 185.548 275.056 187.67 273.363 189.363C271.67 191.056 269.548 191.935 267 192H249C246.451 191.935 244.33 191.056 242.637 189.363C240.944 187.67 240.065 185.548 240 183V165C240.065 162.451 240.944 160.33 242.637 158.637C244.33 156.944 246.451 156.065 249 156H267C269.548 156.065 271.67 156.944 273.363 158.637ZM270.88 173.121C270.314 172.559 270.02 171.852 269.997 171.003V165C269.979 164.15 269.688 163.443 269.122 162.878C268.557 162.312 267.849 162.021 267 162.003H264.003V176.997L251.997 162.003H249C248.15 162.021 247.443 162.312 246.878 162.878C246.312 163.443 246.021 164.15 246.003 165V171.003C245.979 171.852 245.686 172.559 245.12 173.121C244.555 173.684 243.847 173.976 242.998 174C243.847 174.024 244.555 174.316 245.12 174.879C245.686 175.441 245.979 176.148 246.003 176.997V183C246.021 183.849 246.312 184.557 246.878 185.122C247.443 185.688 248.15 185.979 249 185.997H251.997V171.003L264.003 185.997H267C267.849 185.979 268.557 185.688 269.122 185.122C269.688 184.557 269.979 183.849 269.997 183V176.997C270.02 176.148 270.314 175.441 270.88 174.879C271.445 174.316 272.153 174.024 273.002 174C272.153 173.976 271.445 173.684 270.88 173.121Z" fill="#3C5AFD"/>
<rect x="88" y="63" width="280" height="72" rx="30" fill="white"/>
<defs>
<filter id="filter0_f_204_110" x="178.75" y="-1.10791" width="38.4995" height="41.4143" filterUnits="userSpaceOnUse" color-interpolation-filters="sRGB">
<feFlood flood-opacity="0" result="BackgroundImageFix"/>
<feBlend mode="normal" in="SourceGraphic" in2="BackgroundImageFix" result="shape"/>
<feGaussianBlur stdDeviation="4" result="effect1_foregroundBlur_204_110"/>
</filter>
<filter id="filter1_f_204_110" x="185.99" y="5.52442" width="24.0195" height="26.9343" filterUnits="userSpaceOnUse" color-interpolation-filters="sRGB">
<feFlood flood-opacity="0" result="BackgroundImageFix"/>
<feBlend mode="normal" in="SourceGraphic" in2="BackgroundImageFix" result="shape"/>
<feGaussianBlur stdDeviation="0.38" result="effect1_foregroundBlur_204_110"/>
</filter>
<filter id="filter2_f_204_110" x="352.75" y="-1.10791" width="38.4995" height="41.4143" filterUnits="userSpaceOnUse" color-interpolation-filters="sRGB">
<feFlood flood-opacity="0" result="BackgroundImageFix"/>
<feBlend mode="normal" in="SourceGraphic" in2="BackgroundImageFix" result="shape"/>
<feGaussianBlur stdDeviation="4" result="effect1_foregroundBlur_204_110"/>
</filter>
<filter id="filter3_f_204_110" x="359.99" y="5.52442" width="24.0195" height="26.9343" filterUnits="userSpaceOnUse" color-interpolation-filters="sRGB">
<feFlood flood-opacity="0" result="BackgroundImageFix"/>
<feBlend mode="normal" in="SourceGraphic" in2="BackgroundImageFix" result="shape"/>
<feGaussianBlur stdDeviation="0.38" result="effect1_foregroundBlur_204_110"/>
</filter>
<filter id="filter4_f_204_110" x="178.75" y="148.892" width="38.4995" height="41.4143" filterUnits="userSpaceOnUse" color-interpolation-filters="sRGB">
<feFlood flood-opacity="0" result="BackgroundImageFix"/>
<feBlend mode="normal" in="SourceGraphic" in2="BackgroundImageFix" result="shape"/>
<feGaussianBlur stdDeviation="4" result="effect1_foregroundBlur_204_110"/>
</filter>
<filter id="filter5_f_204_110" x="185.99" y="155.524" width="24.0195" height="26.9343" filterUnits="userSpaceOnUse" color-interpolation-filters="sRGB">
<feFlood flood-opacity="0" result="BackgroundImageFix"/>
<feBlend mode="normal" in="SourceGraphic" in2="BackgroundImageFix" result="shape"/>
<feGaussianBlur stdDeviation="0.38" result="effect1_foregroundBlur_204_110"/>
</filter>
<filter id="filter6_f_204_110" x="352.75" y="148.892" width="38.4995" height="41.4143" filterUnits="userSpaceOnUse" color-interpolation-filters="sRGB">
<feFlood flood-opacity="0" result="BackgroundImageFix"/>
<feBlend mode="normal" in="SourceGraphic" in2="BackgroundImageFix" result="shape"/>
<feGaussianBlur stdDeviation="4" result="effect1_foregroundBlur_204_110"/>
</filter>
<filter id="filter7_f_204_110" x="359.99" y="155.524" width="24.0195" height="26.9343" filterUnits="userSpaceOnUse" color-interpolation-filters="sRGB">
<feFlood flood-opacity="0" result="BackgroundImageFix"/>
<feBlend mode="normal" in="SourceGraphic" in2="BackgroundImageFix" result="shape"/>
<feGaussianBlur stdDeviation="0.38" result="effect1_foregroundBlur_204_110"/>
</filter>
<linearGradient id="paint0_linear_204_110" x1="181.688" y1="5.16168" x2="237.844" y2="-2.85451" gradientUnits="userSpaceOnUse">
<stop offset="0.209466" stop-color="#158915"/>
<stop offset="1" stop-color="#065F18"/>
</linearGradient>
<linearGradient id="paint1_linear_204_110" x1="212.997" y1="37.0368" x2="206.296" y2="3.83523" gradientUnits="userSpaceOnUse">
<stop stop-color="#34A117"/>
<stop offset="1" stop-color="#6AD116"/>
</linearGradient>
<linearGradient id="paint2_linear_204_110" x1="186.75" y1="5.91179" x2="212.46" y2="28.5723" gradientUnits="userSpaceOnUse">
<stop stop-color="#8FDC50"/>
<stop offset="1" stop-color="#7BCA52"/>
</linearGradient>
<linearGradient id="paint3_linear_204_110" x1="187.103" y1="5.99693" x2="188.638" y2="21.2341" gradientUnits="userSpaceOnUse">
<stop stop-color="#C3F488"/>
<stop offset="1" stop-color="#8FDC50"/>
</linearGradient>
<linearGradient id="paint4_linear_204_110" x1="355.688" y1="5.16168" x2="411.844" y2="-2.85451" gradientUnits="userSpaceOnUse">
<stop offset="0.209466" stop-color="#158915"/>
<stop offset="1" stop-color="#065F18"/>
</linearGradient>
<linearGradient id="paint5_linear_204_110" x1="386.997" y1="37.0368" x2="380.296" y2="3.83523" gradientUnits="userSpaceOnUse">
<stop stop-color="#34A117"/>
<stop offset="1" stop-color="#6AD116"/>
</linearGradient>
<linearGradient id="paint6_linear_204_110" x1="360.75" y1="5.91179" x2="386.46" y2="28.5723" gradientUnits="userSpaceOnUse">
<stop stop-color="#8FDC50"/>
<stop offset="1" stop-color="#7BCA52"/>
</linearGradient>
<linearGradient id="paint7_linear_204_110" x1="361.103" y1="5.99693" x2="362.638" y2="21.2341" gradientUnits="userSpaceOnUse">
<stop stop-color="#C3F488"/>
<stop offset="1" stop-color="#8FDC50"/>
</linearGradient>
<linearGradient id="paint8_linear_204_110" x1="181.688" y1="155.162" x2="237.844" y2="147.145" gradientUnits="userSpaceOnUse">
<stop offset="0.209466" stop-color="#158915"/>
<stop offset="1" stop-color="#065F18"/>
</linearGradient>
<linearGradient id="paint9_linear_204_110" x1="212.997" y1="187.037" x2="206.296" y2="153.835" gradientUnits="userSpaceOnUse">
<stop stop-color="#34A117"/>
<stop offset="1" stop-color="#6AD116"/>
</linearGradient>
<linearGradient id="paint10_linear_204_110" x1="186.75" y1="155.912" x2="212.46" y2="178.572" gradientUnits="userSpaceOnUse">
<stop stop-color="#8FDC50"/>
<stop offset="1" stop-color="#7BCA52"/>
</linearGradient>
<linearGradient id="paint11_linear_204_110" x1="187.103" y1="155.997" x2="188.638" y2="171.234" gradientUnits="userSpaceOnUse">
<stop stop-color="#C3F488"/>
<stop offset="1" stop-color="#8FDC50"/>
</linearGradient>
<linearGradient id="paint12_linear_204_110" x1="355.688" y1="155.162" x2="411.844" y2="147.145" gradientUnits="userSpaceOnUse">
<stop offset="0.209466" stop-color="#158915"/>
<stop offset="1" stop-color="#065F18"/>
</linearGradient>
<linearGradient id="paint13_linear_204_110" x1="386.997" y1="187.037" x2="380.296" y2="153.835" gradientUnits="userSpaceOnUse">
<stop stop-color="#34A117"/>
<stop offset="1" stop-color="#6AD116"/>
</linearGradient>
<linearGradient id="paint14_linear_204_110" x1="360.75" y1="155.912" x2="386.46" y2="178.572" gradientUnits="userSpaceOnUse">
<stop stop-color="#8FDC50"/>
<stop offset="1" stop-color="#7BCA52"/>
</linearGradient>
<linearGradient id="paint15_linear_204_110" x1="361.103" y1="155.997" x2="362.638" y2="171.234" gradientUnits="userSpaceOnUse">
<stop stop-color="#C3F488"/>
<stop offset="1" stop-color="#8FDC50"/>
</linearGradient>
</defs>
</svg>
