<svg width="134" height="44" viewBox="0 0 134 44" fill="none" xmlns="http://www.w3.org/2000/svg">
<path fill-rule="evenodd" clip-rule="evenodd" d="M130.553 23.1158C129.3 22.2221 106.882 11.2065 101.725 2.68881C99.8329 -0.442449 97.3332 -0.959054 97.4697 1.77589C97.5851 3.80473 94.5954 11.6412 94.1637 12.9221C94.0996 12.9088 78.5586 4.35039 64.2151 9.23896C63.6748 9.42805 62.1376 8.94324 60.4997 8.13695C47.6168 1.43109 26.5762 3.79941 7.8215 14.0252C6.15972 14.9516 3.71341 16.1168 2.40074 16.6475C-2.78584 18.7836 0.553073 26.5579 11.2431 20.9144C25.9385 13.1913 36.7518 10.3467 48.3372 11.2039C55.1245 11.671 55.393 11.8267 52.6474 13.6318C40.2341 21.7931 47.8599 41.6479 62.7253 43.4502C73.9352 44.8313 81.6268 32.3526 72.7283 18.8178C71.4316 16.8456 70.4665 15.2092 70.5826 15.1329C73.263 13.4814 88.0686 14.6031 92.3036 16.7481C93.1225 17.1513 91.2601 25.3544 90.1784 25.8995C88.3111 26.8502 90.4891 31.5108 93.0407 31.9379C93.6562 32.0317 97.3426 31.6574 101.21 31.0531C109.742 29.7086 115.326 29.693 123.966 29.4403C131.413 29.1414 136.584 27.4031 130.553 23.1158ZM60.4224 18.2127C65.4289 16.1397 71.0299 19.4359 71.6886 24.8184C72.5909 32.2562 67.6897 35.9216 62.4741 36.5814C48.394 38.4166 48.5432 23.1427 60.4224 18.2127Z" fill="black"/>
</svg>
