<svg width="36" height="36" viewBox="0 0 36 36" fill="none" xmlns="http://www.w3.org/2000/svg">
<rect width="36" height="36" rx="5" fill="white"/>
<path d="M18.7206 8.125H14.3752C12.411 8.125 11.4289 8.125 10.8187 8.73519C10.2085 9.34539 10.2085 10.3275 10.2085 12.2917V22.7083C10.2085 24.6725 10.2085 25.6546 10.8187 26.2648C11.4289 26.875 12.411 26.875 14.3752 26.875H20.6252C22.5893 26.875 23.5714 26.875 24.1816 26.2648C24.7918 25.6546 24.7918 24.6725 24.7918 22.7083V14.1963C24.7918 13.7705 24.7918 13.5576 24.7125 13.3662C24.6332 13.1747 24.4827 13.0242 24.1816 12.7231L20.1937 8.73519C19.8926 8.43412 19.7421 8.28358 19.5507 8.20429C19.3592 8.125 19.1463 8.125 18.7206 8.125Z" fill="#FAFAFA" stroke="#000C14" stroke-width="2"/>
<path d="M18.5415 8.125V12.2917C18.5415 13.2738 18.5415 13.7648 18.8466 14.0699C19.1517 14.375 19.6427 14.375 20.6248 14.375H24.7915" stroke="#000C14" stroke-width="2"/>
</svg>
