<svg width="276" height="49" viewBox="0 0 276 49" fill="none" xmlns="http://www.w3.org/2000/svg">
<path fill-rule="evenodd" clip-rule="evenodd" d="M15.3121 13.7822C-0.00876718 15.2416 -1.69917 16.2449 2.90025 20.8366C7.96166 25.9265 18.0256 26.7038 95.7868 24.8331C6.20106 31.1145 -1.9601 33.3727 1.98357 39.3053C7.02351 46.7479 36.6786 44.4037 181.262 37.0574C224.582 34.9086 248.745 35.858 261.031 34.689C278.083 33.0079 273.567 27.2363 266.325 24.8739L270.201 24.0167C280.397 21.7819 273.607 11.4268 260.26 8.99368C248.527 6.86757 181.741 7.50733 117.541 10.3628C32.6257 14.3083 32.7989 12.0783 15.3121 13.7822Z" fill="#F5BD33"/>
</svg>
