<svg width="730" height="346" viewBox="0 0 730 346" fill="none" xmlns="http://www.w3.org/2000/svg">
<path d="M0.426319 156.002C25.6024 131.018 62.6824 121.079 97.2082 127.735C115.406 131.246 130.959 138.312 144.368 150.667C158.415 163.615 177.024 171.639 196.134 172.551C215.609 173.509 234.901 167.491 252.141 158.418C279.598 143.966 301.08 119.985 334.739 121.033C348.513 121.444 362.606 127.553 370.223 139.042C378.478 151.579 376.517 170.591 364.476 180.119C351.477 190.377 331.181 183.037 316.404 182.809C299.894 182.536 284.341 188.234 273.532 202.185C261.491 217.686 261.446 237.838 253.51 256.211C247.945 269.159 239.052 280.556 227.193 285.161C212.006 291.088 197.274 284.66 182.634 277.228C168.312 269.979 151.255 265.557 136.021 265.648C110.8 265.83 87.7672 277 70.5271 296.924C64.7348 303.625 59.6722 311.194 55.5218 319.4C53.0133 324.369 44.3476 339.232 45.8071 345.432C36.2292 304.856 26.469 264.235 16.7087 223.659C15.2492 217.686 -2.99434 159.421 0.426319 156.002Z" fill="#263E4D"/>
<path d="M712.802 137.685L712.027 137.867C702.586 162.669 675.403 170.693 651.458 166.954C627.468 163.262 604.481 150.77 580.628 145.299C545.19 137.183 509.433 145.755 480.653 167.182C444.759 193.944 423.232 235.523 387.019 262.422C372.88 272.954 355.275 282.437 338.035 286.54C314.181 292.193 290.237 283.759 284.262 258.136C276.235 223.852 307.978 203.245 337.715 201.102C363.712 199.233 390.348 196.771 402.845 170.237C415.387 143.566 420.723 115.072 441.065 92.5498C458.852 72.8089 483.116 59.861 509.889 58.5845C529.546 57.6271 547.562 63.6451 566.717 67.2012C601.198 73.6295 635.039 79.146 667.741 63.5539C681.241 57.1256 693.464 48.2353 703.863 37.5214C709.108 32.1417 713.897 26.306 718.184 20.1056C721.331 15.501 725.482 2.82664 729.723 0C728.993 0.501501 729.586 0.136775 728.857 0.592685C729.176 0.82064 729.45 0.45591 729.814 0.683866L712.802 137.685Z" fill="#263E4D"/>
<rect x="283" y="135" width="51" height="50" rx="5" fill="#4C7B99"/>
<path d="M310.855 145.75H304.25C301.264 145.75 299.771 145.75 298.844 146.677C297.917 147.605 297.917 149.098 297.917 152.083V167.917C297.917 170.902 297.917 172.395 298.844 173.323C299.771 174.25 301.264 174.25 304.25 174.25H313.75C316.735 174.25 318.228 174.25 319.156 173.323C320.083 172.395 320.083 170.902 320.083 167.917V154.978C320.083 154.331 320.083 154.008 319.963 153.717C319.842 153.426 319.613 153.197 319.156 152.739L313.094 146.677C312.636 146.22 312.408 145.991 312.117 145.871C311.826 145.75 311.502 145.75 310.855 145.75Z" fill="#FAFAFA" stroke="#000C14"/>
<path d="M310.583 145.75V152.083C310.583 153.576 310.583 154.323 311.047 154.786C311.511 155.25 312.257 155.25 313.75 155.25H320.083" stroke="#000C14"/>
<rect x="345" y="144" width="60" height="60" rx="5" fill="#426982"/>
<path d="M385.292 159.625H363.708C362.005 159.625 360.625 161.005 360.625 162.708V184.292C360.625 185.995 362.005 187.375 363.708 187.375H385.292C386.995 187.375 388.375 185.995 388.375 184.292V162.708C388.375 161.005 386.995 159.625 385.292 159.625Z" fill="#FAFAFA" stroke="#000C14" stroke-linecap="round" stroke-linejoin="round"/>
<path d="M374.5 159.625V187.375" stroke="#000C14" stroke-linecap="round" stroke-linejoin="round"/>
<rect x="416" y="135" width="51" height="50" rx="5" fill="#426982"/>
<path d="M429.333 160C429.333 156.587 429.333 154.881 429.79 153.502C430.685 150.803 432.803 148.685 435.503 147.79C436.881 147.333 438.588 147.333 442 147.333V147.333C445.413 147.333 447.119 147.333 448.498 147.79C451.197 148.685 453.315 150.803 454.21 153.502C454.667 154.881 454.667 156.587 454.667 160V168.667C454.667 170.552 454.667 171.495 454.081 172.081C453.495 172.667 452.552 172.667 450.667 172.667H442C438.588 172.667 436.881 172.667 435.503 172.21C432.803 171.315 430.685 169.197 429.79 166.497C429.333 165.119 429.333 163.413 429.333 160V160Z" fill="#FAFAFA" stroke="#000C14"/>
<path d="M437.25 158.417L446.75 158.417" stroke="#000C14" stroke-linecap="round" stroke-linejoin="round"/>
<path d="M442 164.75H446.75" stroke="#000C14" stroke-linecap="round" stroke-linejoin="round"/>
</svg>
