<svg width="369" height="227" viewBox="0 0 369 227" fill="none" xmlns="http://www.w3.org/2000/svg">
<g clip-path="url(#clip0_861_4812)">
<path d="M69.5128 78V66.3636H73.6605C74.562 66.3636 75.3101 66.5189 75.9048 66.8295C76.5033 67.1402 76.9503 67.5701 77.2457 68.1193C77.5412 68.6648 77.6889 69.2955 77.6889 70.0114C77.6889 70.7235 77.5393 71.3504 77.2401 71.892C76.9446 72.4299 76.4976 72.8485 75.8991 73.1477C75.3045 73.447 74.5563 73.5966 73.6548 73.5966H70.5128V72.0852H73.4957C74.0639 72.0852 74.526 72.0038 74.8821 71.8409C75.242 71.678 75.5052 71.4413 75.6719 71.1307C75.8385 70.8201 75.9219 70.447 75.9219 70.0114C75.9219 69.572 75.8366 69.1913 75.6662 68.8693C75.4995 68.5473 75.2363 68.3011 74.8764 68.1307C74.5204 67.9564 74.0526 67.8693 73.473 67.8693H71.2685V78H69.5128ZM75.2571 72.75L78.1321 78H76.1321L73.3139 72.75H75.2571ZM83.3409 78.1761C82.4811 78.1761 81.7405 77.9924 81.1193 77.625C80.5019 77.2538 80.0246 76.733 79.6875 76.0625C79.3542 75.3883 79.1875 74.5985 79.1875 73.6932C79.1875 72.7992 79.3542 72.0114 79.6875 71.3295C80.0246 70.6477 80.4943 70.1155 81.0966 69.733C81.7027 69.3504 82.411 69.1591 83.2216 69.1591C83.714 69.1591 84.1913 69.2405 84.6534 69.4034C85.1155 69.5663 85.5303 69.822 85.8977 70.1705C86.2652 70.5189 86.5549 70.9716 86.767 71.5284C86.9792 72.0814 87.0852 72.7538 87.0852 73.5455V74.1477H80.1477V72.875H85.4205C85.4205 72.428 85.3295 72.0322 85.1477 71.6875C84.9659 71.339 84.7102 71.0644 84.3807 70.8636C84.0549 70.6629 83.6723 70.5625 83.233 70.5625C82.7557 70.5625 82.339 70.6799 81.983 70.9148C81.6307 71.1458 81.358 71.4489 81.1648 71.8239C80.9754 72.1951 80.8807 72.5985 80.8807 73.0341V74.0284C80.8807 74.6117 80.983 75.108 81.1875 75.517C81.3958 75.9261 81.6856 76.2386 82.0568 76.4545C82.428 76.6667 82.8617 76.7727 83.358 76.7727C83.6799 76.7727 83.9735 76.7273 84.2386 76.6364C84.5038 76.5417 84.733 76.4015 84.9261 76.2159C85.1193 76.0303 85.267 75.8011 85.3693 75.5284L86.9773 75.8182C86.8485 76.2917 86.6174 76.7064 86.2841 77.0625C85.9545 77.4148 85.5398 77.6894 85.0398 77.8864C84.5436 78.0795 83.9773 78.1761 83.3409 78.1761ZM95.5099 71.4034L93.9702 71.6761C93.9058 71.4792 93.8035 71.2917 93.6634 71.1136C93.527 70.9356 93.3414 70.7898 93.1065 70.6761C92.8717 70.5625 92.5781 70.5057 92.2259 70.5057C91.7448 70.5057 91.3433 70.6136 91.0213 70.8295C90.6993 71.0417 90.5384 71.3163 90.5384 71.6534C90.5384 71.9451 90.6463 72.1799 90.8622 72.358C91.0781 72.536 91.4266 72.6818 91.9077 72.7955L93.294 73.1136C94.0971 73.2992 94.6955 73.5852 95.0895 73.9716C95.4834 74.358 95.6804 74.8598 95.6804 75.4773C95.6804 76 95.5289 76.4659 95.2259 76.875C94.9266 77.2803 94.508 77.5985 93.9702 77.8295C93.4361 78.0606 92.8168 78.1761 92.1122 78.1761C91.1349 78.1761 90.3376 77.9678 89.7202 77.5511C89.1027 77.1307 88.724 76.5341 88.5838 75.7614L90.2259 75.5114C90.3281 75.9394 90.5384 76.2633 90.8565 76.483C91.1747 76.6989 91.5895 76.8068 92.1009 76.8068C92.6577 76.8068 93.1027 76.6913 93.4361 76.4602C93.7694 76.2254 93.9361 75.9394 93.9361 75.6023C93.9361 75.3295 93.8338 75.1004 93.6293 74.9148C93.4285 74.7292 93.1198 74.589 92.7031 74.4943L91.2259 74.1705C90.4115 73.9848 89.8092 73.6894 89.419 73.2841C89.0327 72.8788 88.8395 72.3655 88.8395 71.7443C88.8395 71.2292 88.9834 70.7784 89.2713 70.392C89.5592 70.0057 89.9569 69.7045 90.4645 69.4886C90.9721 69.2689 91.5535 69.1591 92.2088 69.1591C93.152 69.1591 93.8944 69.3636 94.4361 69.7727C94.9777 70.178 95.3357 70.7216 95.5099 71.4034ZM101.31 78.1761C100.45 78.1761 99.7093 77.9924 99.0881 77.625C98.4706 77.2538 97.9934 76.733 97.6562 76.0625C97.3229 75.3883 97.1562 74.5985 97.1562 73.6932C97.1562 72.7992 97.3229 72.0114 97.6562 71.3295C97.9934 70.6477 98.4631 70.1155 99.0653 69.733C99.6714 69.3504 100.38 69.1591 101.19 69.1591C101.683 69.1591 102.16 69.2405 102.622 69.4034C103.084 69.5663 103.499 69.822 103.866 70.1705C104.234 70.5189 104.524 70.9716 104.736 71.5284C104.948 72.0814 105.054 72.7538 105.054 73.5455V74.1477H98.1165V72.875H103.389C103.389 72.428 103.298 72.0322 103.116 71.6875C102.935 71.339 102.679 71.0644 102.349 70.8636C102.024 70.6629 101.641 70.5625 101.202 70.5625C100.724 70.5625 100.308 70.6799 99.9517 70.9148C99.5994 71.1458 99.3267 71.4489 99.1335 71.8239C98.9441 72.1951 98.8494 72.5985 98.8494 73.0341V74.0284C98.8494 74.6117 98.9517 75.108 99.1562 75.517C99.3646 75.9261 99.6544 76.2386 100.026 76.4545C100.397 76.6667 100.83 76.7727 101.327 76.7727C101.649 76.7727 101.942 76.7273 102.207 76.6364C102.473 76.5417 102.702 76.4015 102.895 76.2159C103.088 76.0303 103.236 75.8011 103.338 75.5284L104.946 75.8182C104.817 76.2917 104.586 76.7064 104.253 77.0625C103.923 77.4148 103.509 77.6894 103.009 77.8864C102.512 78.0795 101.946 78.1761 101.31 78.1761ZM109.479 78.1932C108.926 78.1932 108.426 78.0909 107.979 77.8864C107.532 77.678 107.178 77.3769 106.916 76.983C106.659 76.589 106.53 76.1061 106.53 75.5341C106.53 75.0417 106.625 74.6364 106.814 74.3182C107.003 74 107.259 73.7481 107.581 73.5625C107.903 73.3769 108.263 73.2367 108.661 73.142C109.058 73.0473 109.464 72.9754 109.876 72.9261C110.399 72.8655 110.823 72.8163 111.149 72.7784C111.475 72.7367 111.712 72.6705 111.859 72.5795C112.007 72.4886 112.081 72.3409 112.081 72.1364V72.0966C112.081 71.6004 111.941 71.2159 111.661 70.9432C111.384 70.6705 110.971 70.5341 110.422 70.5341C109.85 70.5341 109.399 70.661 109.07 70.9148C108.744 71.1648 108.518 71.4432 108.393 71.75L106.797 71.3864C106.986 70.8561 107.263 70.428 107.626 70.1023C107.994 69.7727 108.416 69.5341 108.893 69.3864C109.371 69.2348 109.873 69.1591 110.399 69.1591C110.748 69.1591 111.117 69.2008 111.507 69.2841C111.901 69.3636 112.268 69.5114 112.609 69.7273C112.954 69.9432 113.236 70.2519 113.456 70.6534C113.676 71.0511 113.786 71.5682 113.786 72.2045V78H112.126V76.8068H112.058C111.948 77.0265 111.784 77.2424 111.564 77.4545C111.344 77.6667 111.062 77.8428 110.717 77.983C110.373 78.1231 109.96 78.1932 109.479 78.1932ZM109.848 76.8295C110.318 76.8295 110.719 76.7367 111.053 76.5511C111.39 76.3655 111.645 76.1231 111.82 75.8239C111.998 75.5208 112.087 75.197 112.087 74.8523V73.7273C112.026 73.7879 111.909 73.8447 111.734 73.8977C111.564 73.947 111.369 73.9905 111.149 74.0284C110.929 74.0625 110.715 74.0947 110.507 74.125C110.299 74.1515 110.125 74.1742 109.984 74.1932C109.655 74.2348 109.354 74.3049 109.081 74.4034C108.812 74.5019 108.596 74.6439 108.433 74.8295C108.274 75.0114 108.195 75.2538 108.195 75.5568C108.195 75.9773 108.35 76.2955 108.661 76.5114C108.971 76.7235 109.367 76.8295 109.848 76.8295ZM116.048 78V69.2727H117.69V70.6591H117.781C117.94 70.1894 118.221 69.8201 118.622 69.5511C119.027 69.2784 119.486 69.142 119.997 69.142C120.103 69.142 120.228 69.1458 120.372 69.1534C120.52 69.161 120.635 69.1705 120.719 69.1818V70.8068C120.651 70.7879 120.529 70.767 120.355 70.7443C120.181 70.7178 120.007 70.7045 119.832 70.7045C119.431 70.7045 119.073 70.7898 118.759 70.9602C118.448 71.1269 118.202 71.3598 118.02 71.6591C117.838 71.9545 117.747 72.2917 117.747 72.6705V78H116.048ZM125.553 78.1761C124.708 78.1761 123.981 77.9848 123.371 77.6023C122.765 77.2159 122.299 76.6837 121.973 76.0057C121.647 75.3277 121.484 74.5511 121.484 73.6761C121.484 72.7898 121.651 72.0076 121.984 71.3295C122.318 70.6477 122.787 70.1155 123.393 69.733C124 69.3504 124.714 69.1591 125.536 69.1591C126.198 69.1591 126.789 69.2822 127.308 69.5284C127.827 69.7708 128.246 70.1117 128.564 70.5511C128.886 70.9905 129.077 71.5038 129.138 72.0909H127.484C127.393 71.6818 127.185 71.3295 126.859 71.0341C126.537 70.7386 126.106 70.5909 125.564 70.5909C125.09 70.5909 124.676 70.7159 124.32 70.9659C123.967 71.2121 123.693 71.5644 123.496 72.0227C123.299 72.4773 123.2 73.0152 123.2 73.6364C123.2 74.2727 123.297 74.822 123.49 75.2841C123.683 75.7462 123.956 76.1042 124.308 76.358C124.664 76.6117 125.083 76.7386 125.564 76.7386C125.886 76.7386 126.178 76.6799 126.439 76.5625C126.704 76.4413 126.926 76.2689 127.104 76.0455C127.286 75.822 127.412 75.553 127.484 75.2386H129.138C129.077 75.803 128.893 76.3068 128.587 76.75C128.28 77.1932 127.869 77.5417 127.354 77.7955C126.842 78.0492 126.242 78.1761 125.553 78.1761ZM132.653 72.8182V78H130.955V66.3636H132.631V70.6932H132.739C132.943 70.2235 133.256 69.8504 133.676 69.5739C134.097 69.2973 134.646 69.1591 135.324 69.1591C135.922 69.1591 136.445 69.2822 136.892 69.5284C137.343 69.7746 137.691 70.142 137.938 70.6307C138.188 71.1155 138.312 71.7216 138.312 72.4489V78H136.614V72.6534C136.614 72.0133 136.449 71.517 136.119 71.1648C135.79 70.8087 135.331 70.6307 134.744 70.6307C134.343 70.6307 133.983 70.7159 133.665 70.8864C133.35 71.0568 133.102 71.3068 132.92 71.6364C132.742 71.9621 132.653 72.3561 132.653 72.8182ZM141.699 78.108C141.388 78.108 141.121 77.9981 140.898 77.7784C140.674 77.5549 140.562 77.286 140.562 76.9716C140.562 76.661 140.674 76.3958 140.898 76.1761C141.121 75.9527 141.388 75.8409 141.699 75.8409C142.009 75.8409 142.277 75.9527 142.5 76.1761C142.723 76.3958 142.835 76.661 142.835 76.9716C142.835 77.1799 142.782 77.3712 142.676 77.5455C142.574 77.7159 142.438 77.8523 142.267 77.9545C142.097 78.0568 141.907 78.108 141.699 78.108ZM145.111 81.2727V69.2727H146.77V70.6875H146.912C147.01 70.5057 147.152 70.2955 147.338 70.0568C147.524 69.8182 147.781 69.6098 148.111 69.4318C148.44 69.25 148.876 69.1591 149.418 69.1591C150.122 69.1591 150.751 69.3371 151.304 69.6932C151.857 70.0492 152.291 70.5625 152.605 71.233C152.923 71.9034 153.082 72.7102 153.082 73.6534C153.082 74.5966 152.925 75.4053 152.611 76.0795C152.296 76.75 151.865 77.267 151.315 77.6307C150.766 77.9905 150.139 78.1705 149.435 78.1705C148.904 78.1705 148.471 78.0814 148.134 77.9034C147.8 77.7254 147.539 77.517 147.349 77.2784C147.16 77.0398 147.014 76.8277 146.912 76.642H146.81V81.2727H145.111ZM146.776 73.6364C146.776 74.25 146.865 74.7879 147.043 75.25C147.221 75.7121 147.478 76.0739 147.815 76.3352C148.152 76.5928 148.565 76.7216 149.054 76.7216C149.562 76.7216 149.986 76.5871 150.327 76.3182C150.668 76.0455 150.925 75.6761 151.099 75.2102C151.277 74.7443 151.366 74.2197 151.366 73.6364C151.366 73.0606 151.279 72.5436 151.105 72.0852C150.935 71.6269 150.677 71.2652 150.332 71C149.991 70.7348 149.565 70.6023 149.054 70.6023C148.562 70.6023 148.145 70.7292 147.804 70.983C147.467 71.2367 147.211 71.5909 147.037 72.0455C146.863 72.5 146.776 73.0303 146.776 73.6364ZM158.253 78.1705C157.548 78.1705 156.92 77.9905 156.366 77.6307C155.817 77.267 155.385 76.75 155.071 76.0795C154.76 75.4053 154.605 74.5966 154.605 73.6534C154.605 72.7102 154.762 71.9034 155.077 71.233C155.395 70.5625 155.83 70.0492 156.384 69.6932C156.937 69.3371 157.563 69.1591 158.264 69.1591C158.806 69.1591 159.241 69.25 159.571 69.4318C159.904 69.6098 160.162 69.8182 160.344 70.0568C160.529 70.2955 160.673 70.5057 160.776 70.6875H160.878V66.3636H162.577V78H160.918V76.642H160.776C160.673 76.8277 160.526 77.0398 160.332 77.2784C160.143 77.517 159.882 77.7254 159.548 77.9034C159.215 78.0814 158.783 78.1705 158.253 78.1705ZM158.628 76.7216C159.116 76.7216 159.529 76.5928 159.866 76.3352C160.207 76.0739 160.465 75.7121 160.639 75.25C160.817 74.7879 160.906 74.25 160.906 73.6364C160.906 73.0303 160.819 72.5 160.645 72.0455C160.471 71.5909 160.215 71.2367 159.878 70.983C159.541 70.7292 159.124 70.6023 158.628 70.6023C158.116 70.6023 157.69 70.7348 157.349 71C157.009 71.2652 156.751 71.6269 156.577 72.0852C156.406 72.5436 156.321 73.0606 156.321 73.6364C156.321 74.2197 156.408 74.7443 156.582 75.2102C156.757 75.6761 157.014 76.0455 157.355 76.3182C157.7 76.5871 158.124 76.7216 158.628 76.7216ZM169.155 69.2727V70.6364H164.223V69.2727H169.155ZM165.575 78V68.2614C165.575 67.7159 165.695 67.2633 165.933 66.9034C166.172 66.5398 166.488 66.2689 166.882 66.0909C167.276 65.9091 167.704 65.8182 168.166 65.8182C168.507 65.8182 168.799 65.8466 169.041 65.9034C169.284 65.9564 169.464 66.0057 169.581 66.0511L169.183 67.4261C169.104 67.4034 169.001 67.3769 168.876 67.3466C168.751 67.3125 168.6 67.2955 168.422 67.2955C168.009 67.2955 167.714 67.3977 167.536 67.6023C167.361 67.8068 167.274 68.1023 167.274 68.4886V78H165.575Z" fill="#000C14"/>
<path d="M45.4645 61.75H40.25C37.893 61.75 36.7145 61.75 35.9822 62.4822C35.25 63.2145 35.25 64.393 35.25 66.75V79.25C35.25 81.607 35.25 82.7855 35.9822 83.5178C36.7145 84.25 37.893 84.25 40.25 84.25H47.75C50.107 84.25 51.2855 84.25 52.0178 83.5178C52.75 82.7855 52.75 81.607 52.75 79.25V69.0355C52.75 68.5246 52.75 68.2691 52.6549 68.0394C52.5597 67.8097 52.3791 67.6291 52.0178 67.2678L47.2322 62.4822C46.8709 62.1209 46.6903 61.9403 46.4606 61.8452C46.2309 61.75 45.9754 61.75 45.4645 61.75Z" fill="#D9CAB3"/>
</g>
<g clip-path="url(#clip1_861_4812)">
<g clip-path="url(#clip2_861_4812)">
<path d="M69.5426 168H67.679L71.8665 156.364H73.8949L78.0824 168H76.2188L72.929 158.477H72.8381L69.5426 168ZM69.8551 163.443H75.9006V164.92H69.8551V163.443ZM81.3253 162.818V168H79.6264V159.273H81.2571V160.693H81.3651C81.5658 160.231 81.8802 159.86 82.3082 159.58C82.7401 159.299 83.2836 159.159 83.9389 159.159C84.5336 159.159 85.0545 159.284 85.5014 159.534C85.9484 159.78 86.295 160.148 86.5412 160.636C86.7874 161.125 86.9105 161.729 86.9105 162.449V168H85.2116V162.653C85.2116 162.021 85.0469 161.527 84.7173 161.17C84.3878 160.811 83.9351 160.631 83.3594 160.631C82.9654 160.631 82.6151 160.716 82.3082 160.886C82.0052 161.057 81.7647 161.307 81.5866 161.636C81.4124 161.962 81.3253 162.356 81.3253 162.818ZM91.7287 168.193C91.1757 168.193 90.6757 168.091 90.2287 167.886C89.7817 167.678 89.4276 167.377 89.1662 166.983C88.9086 166.589 88.7798 166.106 88.7798 165.534C88.7798 165.042 88.8745 164.636 89.0639 164.318C89.2533 164 89.509 163.748 89.831 163.562C90.1529 163.377 90.5128 163.237 90.9105 163.142C91.3082 163.047 91.7135 162.975 92.1264 162.926C92.6491 162.866 93.0734 162.816 93.3991 162.778C93.7249 162.737 93.9616 162.67 94.1094 162.58C94.2571 162.489 94.331 162.341 94.331 162.136V162.097C94.331 161.6 94.1908 161.216 93.9105 160.943C93.634 160.67 93.2211 160.534 92.6719 160.534C92.0999 160.534 91.6491 160.661 91.3196 160.915C90.9938 161.165 90.7685 161.443 90.6435 161.75L89.0469 161.386C89.2363 160.856 89.5128 160.428 89.8764 160.102C90.2438 159.773 90.6662 159.534 91.1435 159.386C91.6207 159.235 92.1226 159.159 92.6491 159.159C92.9976 159.159 93.367 159.201 93.7571 159.284C94.151 159.364 94.5185 159.511 94.8594 159.727C95.2041 159.943 95.4863 160.252 95.706 160.653C95.9257 161.051 96.0355 161.568 96.0355 162.205V168H94.3764V166.807H94.3082C94.1984 167.027 94.0336 167.242 93.8139 167.455C93.5942 167.667 93.312 167.843 92.9673 167.983C92.6226 168.123 92.2098 168.193 91.7287 168.193ZM92.098 166.83C92.5677 166.83 92.9692 166.737 93.3026 166.551C93.6397 166.366 93.8954 166.123 94.0696 165.824C94.2476 165.521 94.3366 165.197 94.3366 164.852V163.727C94.276 163.788 94.1586 163.845 93.9844 163.898C93.8139 163.947 93.6188 163.991 93.3991 164.028C93.1795 164.062 92.9654 164.095 92.7571 164.125C92.5488 164.152 92.3745 164.174 92.2344 164.193C91.9048 164.235 91.6037 164.305 91.331 164.403C91.062 164.502 90.8461 164.644 90.6832 164.83C90.5241 165.011 90.4446 165.254 90.4446 165.557C90.4446 165.977 90.5999 166.295 90.9105 166.511C91.2211 166.723 91.617 166.83 92.098 166.83ZM99.9972 156.364V168H98.2983V156.364H99.9972ZM103.357 171.273C103.103 171.273 102.872 171.252 102.663 171.21C102.455 171.172 102.3 171.131 102.197 171.085L102.607 169.693C102.917 169.777 103.194 169.813 103.436 169.801C103.679 169.79 103.893 169.699 104.078 169.528C104.268 169.358 104.434 169.08 104.578 168.693L104.788 168.114L101.595 159.273H103.413L105.624 166.045H105.714L107.925 159.273H109.749L106.152 169.165C105.985 169.619 105.773 170.004 105.516 170.318C105.258 170.636 104.951 170.875 104.595 171.034C104.239 171.193 103.826 171.273 103.357 171.273ZM117.885 161.403L116.345 161.676C116.281 161.479 116.179 161.292 116.038 161.114C115.902 160.936 115.716 160.79 115.482 160.676C115.247 160.562 114.953 160.506 114.601 160.506C114.12 160.506 113.718 160.614 113.396 160.83C113.074 161.042 112.913 161.316 112.913 161.653C112.913 161.945 113.021 162.18 113.237 162.358C113.453 162.536 113.802 162.682 114.283 162.795L115.669 163.114C116.472 163.299 117.071 163.585 117.464 163.972C117.858 164.358 118.055 164.86 118.055 165.477C118.055 166 117.904 166.466 117.601 166.875C117.302 167.28 116.883 167.598 116.345 167.83C115.811 168.061 115.192 168.176 114.487 168.176C113.51 168.176 112.713 167.968 112.095 167.551C111.478 167.131 111.099 166.534 110.959 165.761L112.601 165.511C112.703 165.939 112.913 166.263 113.232 166.483C113.55 166.699 113.964 166.807 114.476 166.807C115.033 166.807 115.478 166.691 115.811 166.46C116.144 166.225 116.311 165.939 116.311 165.602C116.311 165.33 116.209 165.1 116.004 164.915C115.804 164.729 115.495 164.589 115.078 164.494L113.601 164.17C112.786 163.985 112.184 163.689 111.794 163.284C111.408 162.879 111.214 162.366 111.214 161.744C111.214 161.229 111.358 160.778 111.646 160.392C111.934 160.006 112.332 159.705 112.839 159.489C113.347 159.269 113.929 159.159 114.584 159.159C115.527 159.159 116.269 159.364 116.811 159.773C117.353 160.178 117.711 160.722 117.885 161.403ZM123.685 168.176C122.825 168.176 122.084 167.992 121.463 167.625C120.846 167.254 120.368 166.733 120.031 166.062C119.698 165.388 119.531 164.598 119.531 163.693C119.531 162.799 119.698 162.011 120.031 161.33C120.368 160.648 120.838 160.116 121.44 159.733C122.046 159.35 122.755 159.159 123.565 159.159C124.058 159.159 124.535 159.241 124.997 159.403C125.459 159.566 125.874 159.822 126.241 160.17C126.609 160.519 126.899 160.972 127.111 161.528C127.323 162.081 127.429 162.754 127.429 163.545V164.148H120.491V162.875H125.764C125.764 162.428 125.673 162.032 125.491 161.688C125.31 161.339 125.054 161.064 124.724 160.864C124.399 160.663 124.016 160.562 123.577 160.562C123.099 160.562 122.683 160.68 122.327 160.915C121.974 161.146 121.702 161.449 121.509 161.824C121.319 162.195 121.224 162.598 121.224 163.034V164.028C121.224 164.612 121.327 165.108 121.531 165.517C121.74 165.926 122.029 166.239 122.401 166.455C122.772 166.667 123.205 166.773 123.702 166.773C124.024 166.773 124.317 166.727 124.582 166.636C124.848 166.542 125.077 166.402 125.27 166.216C125.463 166.03 125.611 165.801 125.713 165.528L127.321 165.818C127.192 166.292 126.961 166.706 126.628 167.062C126.298 167.415 125.884 167.689 125.384 167.886C124.887 168.08 124.321 168.176 123.685 168.176ZM132.581 168.17C131.876 168.17 131.248 167.991 130.695 167.631C130.145 167.267 129.714 166.75 129.399 166.08C129.089 165.405 128.933 164.597 128.933 163.653C128.933 162.71 129.09 161.903 129.405 161.233C129.723 160.562 130.159 160.049 130.712 159.693C131.265 159.337 131.892 159.159 132.592 159.159C133.134 159.159 133.57 159.25 133.899 159.432C134.232 159.61 134.49 159.818 134.672 160.057C134.857 160.295 135.001 160.506 135.104 160.688H135.206V156.364H136.905V168H135.246V166.642H135.104C135.001 166.828 134.854 167.04 134.661 167.278C134.471 167.517 134.21 167.725 133.876 167.903C133.543 168.081 133.111 168.17 132.581 168.17ZM132.956 166.722C133.445 166.722 133.857 166.593 134.195 166.335C134.536 166.074 134.793 165.712 134.967 165.25C135.145 164.788 135.234 164.25 135.234 163.636C135.234 163.03 135.147 162.5 134.973 162.045C134.799 161.591 134.543 161.237 134.206 160.983C133.869 160.729 133.452 160.602 132.956 160.602C132.445 160.602 132.018 160.735 131.678 161C131.337 161.265 131.079 161.627 130.905 162.085C130.734 162.544 130.649 163.061 130.649 163.636C130.649 164.22 130.736 164.744 130.911 165.21C131.085 165.676 131.342 166.045 131.683 166.318C132.028 166.587 132.452 166.722 132.956 166.722ZM140.449 168.108C140.138 168.108 139.871 167.998 139.648 167.778C139.424 167.555 139.312 167.286 139.312 166.972C139.312 166.661 139.424 166.396 139.648 166.176C139.871 165.953 140.138 165.841 140.449 165.841C140.759 165.841 141.027 165.953 141.25 166.176C141.473 166.396 141.585 166.661 141.585 166.972C141.585 167.18 141.532 167.371 141.426 167.545C141.324 167.716 141.188 167.852 141.017 167.955C140.847 168.057 140.657 168.108 140.449 168.108ZM147.622 168.176C146.762 168.176 146.022 167.992 145.401 167.625C144.783 167.254 144.306 166.733 143.969 166.062C143.635 165.388 143.469 164.598 143.469 163.693C143.469 162.799 143.635 162.011 143.969 161.33C144.306 160.648 144.776 160.116 145.378 159.733C145.984 159.35 146.692 159.159 147.503 159.159C147.995 159.159 148.473 159.241 148.935 159.403C149.397 159.566 149.812 159.822 150.179 160.17C150.546 160.519 150.836 160.972 151.048 161.528C151.26 162.081 151.366 162.754 151.366 163.545V164.148H144.429V162.875H149.702C149.702 162.428 149.611 162.032 149.429 161.688C149.247 161.339 148.991 161.064 148.662 160.864C148.336 160.663 147.954 160.562 147.514 160.562C147.037 160.562 146.62 160.68 146.264 160.915C145.912 161.146 145.639 161.449 145.446 161.824C145.257 162.195 145.162 162.598 145.162 163.034V164.028C145.162 164.612 145.264 165.108 145.469 165.517C145.677 165.926 145.967 166.239 146.338 166.455C146.709 166.667 147.143 166.773 147.639 166.773C147.961 166.773 148.255 166.727 148.52 166.636C148.785 166.542 149.014 166.402 149.207 166.216C149.401 166.03 149.548 165.801 149.651 165.528L151.259 165.818C151.13 166.292 150.899 166.706 150.565 167.062C150.236 167.415 149.821 167.689 149.321 167.886C148.825 168.08 148.259 168.176 147.622 168.176ZM154.389 159.273L156.315 162.67L158.259 159.273H160.116L157.395 163.636L160.139 168H158.281L156.315 164.739L154.355 168H152.491L155.207 163.636L152.526 159.273H154.389Z" fill="#000C14"/>
<path d="M45.4645 151.75H40.25C37.893 151.75 36.7145 151.75 35.9822 152.482C35.25 153.214 35.25 154.393 35.25 156.75V169.25C35.25 171.607 35.25 172.786 35.9822 173.518C36.7145 174.25 37.893 174.25 40.25 174.25H47.75C50.107 174.25 51.2855 174.25 52.0178 173.518C52.75 172.786 52.75 171.607 52.75 169.25V159.036C52.75 158.525 52.75 158.269 52.6548 158.039C52.5597 157.81 52.3791 157.629 52.0178 157.268L47.2322 152.482C46.8709 152.121 46.6903 151.94 46.4606 151.845C46.2309 151.75 45.9754 151.75 45.4645 151.75Z" fill="#D9CAB3"/>
</g>
</g>
<path d="M258.312 49.6926L280.368 22.0233L305.646 38.4583V58.1401C305.646 61.1576 303.199 63.6042 300.182 63.6042H267.679C262.506 63.6042 258.312 59.4093 258.312 54.2366V49.6926Z" fill="#283593"/>
<path d="M258.312 29.891C258.312 26.0096 261.457 22.8649 265.337 22.8649H297.667L305.646 18.9008V38.9094C305.646 41.9284 303.199 44.375 300.182 44.375H267.679C262.506 44.375 258.312 48.5699 258.312 53.7425V29.891Z" fill="url(#paint0_linear_861_4812)"/>
<path d="M258.312 29.891C258.312 26.0096 261.457 22.8649 265.337 22.8649H297.667L305.646 18.9008V38.9094C305.646 41.9284 303.199 44.375 300.182 44.375H267.679C262.506 44.375 258.312 48.5699 258.312 53.7425V29.891Z" fill="#1E88E5" fill-opacity="0.6"/>
<path d="M258.312 15.2842C258.312 10.1115 262.506 5.91663 267.679 5.91663H300.183C303.199 5.91663 305.646 8.36317 305.646 11.3807V19.6803C305.646 22.6993 303.199 25.1458 300.182 25.1458H267.679C262.506 25.1458 258.312 29.3407 258.312 34.5134V15.2842Z" fill="#00E5FF"/>
<path d="M256.094 34.0209H270.885C273.744 34.0209 276.062 36.3387 276.062 39.198V53.9896C276.062 56.8489 273.744 59.1667 270.885 59.1667H256.094C253.234 59.1667 250.917 56.8489 250.917 53.9896V39.198C250.917 36.3387 253.234 34.0209 256.094 34.0209Z" fill="#1565C0"/>
<path d="M272.109 39.4094L269.014 53.7766L265.315 53.7795L263.49 45.1575L261.577 53.7795H257.844L254.871 39.4124H257.921L259.755 48.8938L261.577 39.4124H265.316L267.226 48.8938L269.016 39.4124L272.109 39.4094Z" fill="white"/>
<path d="M343.271 90.625H325.32C324.016 90.625 322.958 91.6175 322.958 92.8413V102.066H343.271V90.625Z" fill="#169154"/>
<path d="M322.958 125.006V134.159C322.958 135.382 324.016 136.375 325.319 136.375H343.271V125.006H322.958Z" fill="#18482A"/>
<path d="M322.958 102.066H343.271V113.506H322.958V102.066Z" fill="#0C8045"/>
<path d="M322.958 113.506H343.271V125.007H322.958V113.506Z" fill="#17472A"/>
<path d="M361.222 90.625H343.271V102.066H363.583V92.8413C363.583 91.6175 362.526 90.625 361.222 90.625Z" fill="#29C27F"/>
<path d="M343.271 125.006V136.375H361.223C362.526 136.375 363.583 135.382 363.583 134.16V125.007L343.271 125.006Z" fill="#27663F"/>
<path d="M343.271 102.066H363.583V113.506H343.271V102.066Z" fill="#19AC65"/>
<path d="M343.271 113.506H363.583V125.007H343.271V113.506Z" fill="#129652"/>
<path d="M334.223 126.208H311.693C310.436 126.208 309.417 125.251 309.417 124.072V102.928C309.417 101.749 310.436 100.792 311.693 100.792H334.223C335.48 100.792 336.5 101.749 336.5 102.928V124.072C336.5 125.251 335.48 126.208 334.223 126.208Z" fill="#0C7238"/>
<path d="M317.28 107.146H320.511L323.133 111.917L325.904 107.146H328.922L324.764 113.5L329.017 119.854H325.833L322.976 114.86L320.131 119.854H316.9L321.224 113.477L317.28 107.146Z" fill="white"/>
<path d="M256.833 191.5C256.833 206.204 268.754 218.125 283.458 218.125C298.163 218.125 310.083 206.204 310.083 191.5H283.458H256.833Z" fill="#DC4C2C"/>
<path d="M283.458 164.875V191.5H310.083C310.083 176.796 298.163 164.875 283.458 164.875Z" fill="#F7A278"/>
<path d="M283.458 164.875C268.754 164.875 256.833 176.796 256.833 191.5H283.458V164.875Z" fill="#C06346"/>
<path d="M278.013 206.292H253.403C252.03 206.292 250.917 205.178 250.917 203.805V179.195C250.917 177.822 252.03 176.708 253.403 176.708H278.013C279.386 176.708 280.5 177.822 280.5 179.195V203.805C280.5 205.178 279.386 206.292 278.013 206.292Z" fill="#9B341F"/>
<path d="M266.704 184.122H259.792V198.914H262.785V193.705H266.152C268.927 193.705 271.177 191.456 271.177 188.681V188.595C271.177 186.125 269.174 184.122 266.704 184.122ZM268.03 189.071C268.03 190.342 266.999 191.373 265.729 191.373H262.785V186.455H265.729C266.999 186.455 268.03 187.486 268.03 188.756V189.071Z" fill="white"/>
<path d="M71.8388 125.17C71.1342 125.17 70.5054 124.991 69.9524 124.631C69.4032 124.267 68.9714 123.75 68.657 123.08C68.3464 122.405 68.1911 121.597 68.1911 120.653C68.1911 119.71 68.3482 118.903 68.6626 118.233C68.9808 117.562 69.4164 117.049 69.9695 116.693C70.5225 116.337 71.1494 116.159 71.8501 116.159C72.3918 116.159 72.8274 116.25 73.157 116.432C73.4903 116.61 73.7479 116.818 73.9297 117.057C74.1153 117.295 74.2592 117.506 74.3615 117.688H74.4638V113.364H76.1626V125H74.5036V123.642H74.3615C74.2592 123.828 74.1115 124.04 73.9183 124.278C73.7289 124.517 73.4676 124.725 73.1342 124.903C72.8009 125.081 72.3691 125.17 71.8388 125.17ZM72.2138 123.722C72.7024 123.722 73.1153 123.593 73.4524 123.335C73.7933 123.074 74.0509 122.712 74.2251 122.25C74.4032 121.788 74.4922 121.25 74.4922 120.636C74.4922 120.03 74.4051 119.5 74.2308 119.045C74.0566 118.591 73.8009 118.237 73.4638 117.983C73.1267 117.729 72.71 117.602 72.2138 117.602C71.7024 117.602 71.2763 117.735 70.9354 118C70.5945 118.265 70.3369 118.627 70.1626 119.085C69.9922 119.544 69.907 120.061 69.907 120.636C69.907 121.22 69.9941 121.744 70.1683 122.21C70.3426 122.676 70.6001 123.045 70.9411 123.318C71.2857 123.587 71.71 123.722 72.2138 123.722ZM81.1271 125.193C80.5741 125.193 80.0741 125.091 79.6271 124.886C79.1802 124.678 78.826 124.377 78.5646 123.983C78.3071 123.589 78.1783 123.106 78.1783 122.534C78.1783 122.042 78.273 121.636 78.4624 121.318C78.6518 121 78.9074 120.748 79.2294 120.562C79.5514 120.377 79.9112 120.237 80.3089 120.142C80.7067 120.047 81.112 119.975 81.5249 119.926C82.0476 119.866 82.4718 119.816 82.7976 119.778C83.1233 119.737 83.3601 119.67 83.5078 119.58C83.6555 119.489 83.7294 119.341 83.7294 119.136V119.097C83.7294 118.6 83.5893 118.216 83.3089 117.943C83.0324 117.67 82.6196 117.534 82.0703 117.534C81.4983 117.534 81.0476 117.661 80.718 117.915C80.3923 118.165 80.1669 118.443 80.0419 118.75L78.4453 118.386C78.6347 117.856 78.9112 117.428 79.2749 117.102C79.6423 116.773 80.0646 116.534 80.5419 116.386C81.0192 116.235 81.5211 116.159 82.0476 116.159C82.3961 116.159 82.7654 116.201 83.1555 116.284C83.5495 116.364 83.9169 116.511 84.2578 116.727C84.6025 116.943 84.8847 117.252 85.1044 117.653C85.3241 118.051 85.4339 118.568 85.4339 119.205V125H83.7749V123.807H83.7067C83.5968 124.027 83.4321 124.242 83.2124 124.455C82.9927 124.667 82.7105 124.843 82.3658 124.983C82.0211 125.123 81.6082 125.193 81.1271 125.193ZM81.4964 123.83C81.9661 123.83 82.3677 123.737 82.701 123.551C83.0381 123.366 83.2938 123.123 83.468 122.824C83.6461 122.521 83.7351 122.197 83.7351 121.852V120.727C83.6745 120.788 83.5571 120.845 83.3828 120.898C83.2124 120.947 83.0173 120.991 82.7976 121.028C82.5779 121.062 82.3639 121.095 82.1555 121.125C81.9472 121.152 81.773 121.174 81.6328 121.193C81.3033 121.235 81.0021 121.305 80.7294 121.403C80.4605 121.502 80.2446 121.644 80.0817 121.83C79.9226 122.011 79.843 122.254 79.843 122.557C79.843 122.977 79.9983 123.295 80.3089 123.511C80.6196 123.723 81.0154 123.83 81.4964 123.83ZM91.7706 116.273V117.636H87.0036V116.273H91.7706ZM88.282 114.182H89.9808V122.438C89.9808 122.767 90.0301 123.015 90.1286 123.182C90.227 123.345 90.3539 123.456 90.5092 123.517C90.6683 123.574 90.8407 123.602 91.0263 123.602C91.1626 123.602 91.282 123.593 91.3842 123.574C91.4865 123.555 91.5661 123.54 91.6229 123.528L91.9297 124.932C91.8312 124.97 91.6911 125.008 91.5092 125.045C91.3274 125.087 91.1001 125.11 90.8274 125.114C90.3804 125.121 89.9638 125.042 89.5774 124.875C89.1911 124.708 88.8786 124.451 88.6399 124.102C88.4013 123.754 88.282 123.316 88.282 122.79V114.182ZM96.1896 125.193C95.6366 125.193 95.1366 125.091 94.6896 124.886C94.2427 124.678 93.8885 124.377 93.6271 123.983C93.3696 123.589 93.2408 123.106 93.2408 122.534C93.2408 122.042 93.3355 121.636 93.5249 121.318C93.7143 121 93.9699 120.748 94.2919 120.562C94.6139 120.377 94.9737 120.237 95.3714 120.142C95.7692 120.047 96.1745 119.975 96.5874 119.926C97.1101 119.866 97.5343 119.816 97.8601 119.778C98.1858 119.737 98.4226 119.67 98.5703 119.58C98.718 119.489 98.7919 119.341 98.7919 119.136V119.097C98.7919 118.6 98.6518 118.216 98.3714 117.943C98.0949 117.67 97.6821 117.534 97.1328 117.534C96.5608 117.534 96.1101 117.661 95.7805 117.915C95.4548 118.165 95.2294 118.443 95.1044 118.75L93.5078 118.386C93.6972 117.856 93.9737 117.428 94.3374 117.102C94.7048 116.773 95.1271 116.534 95.6044 116.386C96.0817 116.235 96.5836 116.159 97.1101 116.159C97.4586 116.159 97.8279 116.201 98.218 116.284C98.612 116.364 98.9794 116.511 99.3203 116.727C99.665 116.943 99.9472 117.252 100.167 117.653C100.387 118.051 100.496 118.568 100.496 119.205V125H98.8374V123.807H98.7692C98.6593 124.027 98.4946 124.242 98.2749 124.455C98.0552 124.667 97.773 124.843 97.4283 124.983C97.0836 125.123 96.6707 125.193 96.1896 125.193ZM96.5589 123.83C97.0286 123.83 97.4302 123.737 97.7635 123.551C98.1006 123.366 98.3563 123.123 98.5305 122.824C98.7086 122.521 98.7976 122.197 98.7976 121.852V120.727C98.737 120.788 98.6196 120.845 98.4453 120.898C98.2749 120.947 98.0798 120.991 97.8601 121.028C97.6404 121.062 97.4264 121.095 97.218 121.125C97.0097 121.152 96.8355 121.174 96.6953 121.193C96.3658 121.235 96.0646 121.305 95.7919 121.403C95.523 121.502 95.3071 121.644 95.1442 121.83C94.9851 122.011 94.9055 122.254 94.9055 122.557C94.9055 122.977 95.0608 123.295 95.3714 123.511C95.6821 123.723 96.0779 123.83 96.5589 123.83ZM106.435 125.176C105.591 125.176 104.863 124.985 104.254 124.602C103.647 124.216 103.182 123.684 102.856 123.006C102.53 122.328 102.367 121.551 102.367 120.676C102.367 119.79 102.534 119.008 102.867 118.33C103.201 117.648 103.67 117.116 104.276 116.733C104.882 116.35 105.596 116.159 106.418 116.159C107.081 116.159 107.672 116.282 108.191 116.528C108.71 116.771 109.129 117.112 109.447 117.551C109.769 117.991 109.96 118.504 110.021 119.091H108.367C108.276 118.682 108.068 118.33 107.742 118.034C107.42 117.739 106.988 117.591 106.447 117.591C105.973 117.591 105.558 117.716 105.202 117.966C104.85 118.212 104.576 118.564 104.379 119.023C104.182 119.477 104.083 120.015 104.083 120.636C104.083 121.273 104.18 121.822 104.373 122.284C104.566 122.746 104.839 123.104 105.191 123.358C105.547 123.612 105.966 123.739 106.447 123.739C106.769 123.739 107.06 123.68 107.322 123.562C107.587 123.441 107.808 123.269 107.987 123.045C108.168 122.822 108.295 122.553 108.367 122.239H110.021C109.96 122.803 109.776 123.307 109.469 123.75C109.163 124.193 108.752 124.542 108.237 124.795C107.725 125.049 107.125 125.176 106.435 125.176ZM113.536 113.364V125H111.837V113.364H113.536ZM115.822 125V116.273H117.521V125H115.822ZM116.68 114.926C116.384 114.926 116.13 114.828 115.918 114.631C115.71 114.43 115.606 114.191 115.606 113.915C115.606 113.634 115.71 113.396 115.918 113.199C116.13 112.998 116.384 112.898 116.68 112.898C116.975 112.898 117.227 112.998 117.435 113.199C117.647 113.396 117.754 113.634 117.754 113.915C117.754 114.191 117.647 114.43 117.435 114.631C117.227 114.828 116.975 114.926 116.68 114.926ZM123.567 125.176C122.708 125.176 121.967 124.992 121.346 124.625C120.728 124.254 120.251 123.733 119.914 123.062C119.581 122.388 119.414 121.598 119.414 120.693C119.414 119.799 119.581 119.011 119.914 118.33C120.251 117.648 120.721 117.116 121.323 116.733C121.929 116.35 122.638 116.159 123.448 116.159C123.941 116.159 124.418 116.241 124.88 116.403C125.342 116.566 125.757 116.822 126.124 117.17C126.492 117.519 126.781 117.972 126.994 118.528C127.206 119.081 127.312 119.754 127.312 120.545V121.148H120.374V119.875H125.647C125.647 119.428 125.556 119.032 125.374 118.688C125.192 118.339 124.937 118.064 124.607 117.864C124.281 117.663 123.899 117.562 123.46 117.562C122.982 117.562 122.566 117.68 122.21 117.915C121.857 118.146 121.585 118.449 121.391 118.824C121.202 119.195 121.107 119.598 121.107 120.034V121.028C121.107 121.612 121.21 122.108 121.414 122.517C121.622 122.926 121.912 123.239 122.283 123.455C122.655 123.667 123.088 123.773 123.585 123.773C123.906 123.773 124.2 123.727 124.465 123.636C124.73 123.542 124.96 123.402 125.153 123.216C125.346 123.03 125.494 122.801 125.596 122.528L127.204 122.818C127.075 123.292 126.844 123.706 126.511 124.062C126.181 124.415 125.766 124.689 125.266 124.886C124.77 125.08 124.204 125.176 123.567 125.176ZM130.896 119.818V125H129.197V116.273H130.827V117.693H130.935C131.136 117.231 131.451 116.86 131.879 116.58C132.31 116.299 132.854 116.159 133.509 116.159C134.104 116.159 134.625 116.284 135.072 116.534C135.519 116.78 135.865 117.148 136.112 117.636C136.358 118.125 136.481 118.729 136.481 119.449V125H134.782V119.653C134.782 119.021 134.617 118.527 134.288 118.17C133.958 117.811 133.505 117.631 132.93 117.631C132.536 117.631 132.185 117.716 131.879 117.886C131.576 118.057 131.335 118.307 131.157 118.636C130.983 118.962 130.896 119.356 130.896 119.818ZM142.833 116.273V117.636H138.066V116.273H142.833ZM139.344 114.182H141.043V122.438C141.043 122.767 141.093 123.015 141.191 123.182C141.29 123.345 141.416 123.456 141.572 123.517C141.731 123.574 141.903 123.602 142.089 123.602C142.225 123.602 142.344 123.593 142.447 123.574C142.549 123.555 142.629 123.54 142.685 123.528L142.992 124.932C142.894 124.97 142.754 125.008 142.572 125.045C142.39 125.087 142.163 125.11 141.89 125.114C141.443 125.121 141.026 125.042 140.64 124.875C140.254 124.708 139.941 124.451 139.702 124.102C139.464 123.754 139.344 123.316 139.344 122.79V114.182Z" fill="#000C14"/>
<path d="M34.8335 113.292C34.8335 111.406 34.8335 110.463 35.4193 109.877C36.0051 109.292 36.9479 109.292 38.8335 109.292H41.9266C42.7441 109.292 43.1529 109.292 43.5204 109.444C43.888 109.596 44.177 109.885 44.7551 110.463L46.7869 112.495C47.365 113.073 47.654 113.362 48.0216 113.514C48.3891 113.667 48.7978 113.667 49.6154 113.667H54.1668C56.0524 113.667 56.9953 113.667 57.581 114.252C58.1668 114.838 58.1668 115.781 58.1668 117.667V125.708C58.1668 127.594 58.1668 128.537 57.581 129.123C56.9953 129.708 56.0524 129.708 54.1668 129.708H38.8335C36.9479 129.708 36.0051 129.708 35.4193 129.123C34.8335 128.537 34.8335 127.594 34.8335 125.708V113.292Z" fill="#D9CAB3"/>
<defs>
<linearGradient id="paint0_linear_861_4812" x1="258.312" y1="36.3209" x2="294.561" y2="36.3209" gradientUnits="userSpaceOnUse">
<stop stop-color="#66C0FF"/>
<stop offset="0.26" stop-color="#0094F0"/>
</linearGradient>
<clipPath id="clip0_861_4812">
<rect y="47" width="194" height="51" rx="5" fill="white"/>
</clipPath>
<clipPath id="clip1_861_4812">
<rect y="130" width="194" height="51" rx="5" fill="white"/>
</clipPath>
<clipPath id="clip2_861_4812">
<rect y="137" width="194" height="51" rx="5" fill="white"/>
</clipPath>
</defs>
</svg>
