<svg width="375" height="227" viewBox="0 0 375 227" fill="none" xmlns="http://www.w3.org/2000/svg">
<g clip-path="url(#clip0_861_4812)">
<rect y="41" width="194" height="51" rx="5" fill="white"/>
<path d="M63.5128 72V60.3636H67.6605C68.562 60.3636 69.3101 60.5189 69.9048 60.8295C70.5033 61.1402 70.9503 61.5701 71.2457 62.1193C71.5412 62.6648 71.6889 63.2955 71.6889 64.0114C71.6889 64.7235 71.5393 65.3504 71.2401 65.892C70.9446 66.4299 70.4976 66.8485 69.8991 67.1477C69.3045 67.447 68.5563 67.5966 67.6548 67.5966H64.5128V66.0852H67.4957C68.0639 66.0852 68.526 66.0038 68.8821 65.8409C69.242 65.678 69.5052 65.4413 69.6719 65.1307C69.8385 64.8201 69.9219 64.447 69.9219 64.0114C69.9219 63.572 69.8366 63.1913 69.6662 62.8693C69.4995 62.5473 69.2363 62.3011 68.8764 62.1307C68.5204 61.9564 68.0526 61.8693 67.473 61.8693H65.2685V72H63.5128ZM69.2571 66.75L72.1321 72H70.1321L67.3139 66.75H69.2571ZM77.3409 72.1761C76.4811 72.1761 75.7405 71.9924 75.1193 71.625C74.5019 71.2538 74.0246 70.733 73.6875 70.0625C73.3542 69.3883 73.1875 68.5985 73.1875 67.6932C73.1875 66.7992 73.3542 66.0114 73.6875 65.3295C74.0246 64.6477 74.4943 64.1155 75.0966 63.733C75.7027 63.3504 76.411 63.1591 77.2216 63.1591C77.714 63.1591 78.1913 63.2405 78.6534 63.4034C79.1155 63.5663 79.5303 63.822 79.8977 64.1705C80.2652 64.5189 80.5549 64.9716 80.767 65.5284C80.9792 66.0814 81.0852 66.7538 81.0852 67.5455V68.1477H74.1477V66.875H79.4205C79.4205 66.428 79.3295 66.0322 79.1477 65.6875C78.9659 65.339 78.7102 65.0644 78.3807 64.8636C78.0549 64.6629 77.6723 64.5625 77.233 64.5625C76.7557 64.5625 76.339 64.6799 75.983 64.9148C75.6307 65.1458 75.358 65.4489 75.1648 65.8239C74.9754 66.1951 74.8807 66.5985 74.8807 67.0341V68.0284C74.8807 68.6117 74.983 69.108 75.1875 69.517C75.3958 69.9261 75.6856 70.2386 76.0568 70.4545C76.428 70.6667 76.8617 70.7727 77.358 70.7727C77.6799 70.7727 77.9735 70.7273 78.2386 70.6364C78.5038 70.5417 78.733 70.4015 78.9261 70.2159C79.1193 70.0303 79.267 69.8011 79.3693 69.5284L80.9773 69.8182C80.8485 70.2917 80.6174 70.7064 80.2841 71.0625C79.9545 71.4148 79.5398 71.6894 79.0398 71.8864C78.5436 72.0795 77.9773 72.1761 77.3409 72.1761ZM89.5099 65.4034L87.9702 65.6761C87.9058 65.4792 87.8035 65.2917 87.6634 65.1136C87.527 64.9356 87.3414 64.7898 87.1065 64.6761C86.8717 64.5625 86.5781 64.5057 86.2259 64.5057C85.7448 64.5057 85.3433 64.6136 85.0213 64.8295C84.6993 65.0417 84.5384 65.3163 84.5384 65.6534C84.5384 65.9451 84.6463 66.1799 84.8622 66.358C85.0781 66.536 85.4266 66.6818 85.9077 66.7955L87.294 67.1136C88.0971 67.2992 88.6955 67.5852 89.0895 67.9716C89.4834 68.358 89.6804 68.8598 89.6804 69.4773C89.6804 70 89.5289 70.4659 89.2259 70.875C88.9266 71.2803 88.508 71.5985 87.9702 71.8295C87.4361 72.0606 86.8168 72.1761 86.1122 72.1761C85.1349 72.1761 84.3376 71.9678 83.7202 71.5511C83.1027 71.1307 82.724 70.5341 82.5838 69.7614L84.2259 69.5114C84.3281 69.9394 84.5384 70.2633 84.8565 70.483C85.1747 70.6989 85.5895 70.8068 86.1009 70.8068C86.6577 70.8068 87.1027 70.6913 87.4361 70.4602C87.7694 70.2254 87.9361 69.9394 87.9361 69.6023C87.9361 69.3295 87.8338 69.1004 87.6293 68.9148C87.4285 68.7292 87.1198 68.589 86.7031 68.4943L85.2259 68.1705C84.4115 67.9848 83.8092 67.6894 83.419 67.2841C83.0327 66.8788 82.8395 66.3655 82.8395 65.7443C82.8395 65.2292 82.9834 64.7784 83.2713 64.392C83.5592 64.0057 83.9569 63.7045 84.4645 63.4886C84.9721 63.2689 85.5535 63.1591 86.2088 63.1591C87.152 63.1591 87.8944 63.3636 88.4361 63.7727C88.9777 64.178 89.3357 64.7216 89.5099 65.4034ZM95.3097 72.1761C94.4498 72.1761 93.7093 71.9924 93.0881 71.625C92.4706 71.2538 91.9934 70.733 91.6562 70.0625C91.3229 69.3883 91.1562 68.5985 91.1562 67.6932C91.1562 66.7992 91.3229 66.0114 91.6562 65.3295C91.9934 64.6477 92.4631 64.1155 93.0653 63.733C93.6714 63.3504 94.3797 63.1591 95.1903 63.1591C95.6828 63.1591 96.16 63.2405 96.6222 63.4034C97.0843 63.5663 97.4991 63.822 97.8665 64.1705C98.2339 64.5189 98.5237 64.9716 98.7358 65.5284C98.9479 66.0814 99.054 66.7538 99.054 67.5455V68.1477H92.1165V66.875H97.3892C97.3892 66.428 97.2983 66.0322 97.1165 65.6875C96.9347 65.339 96.679 65.0644 96.3494 64.8636C96.0237 64.6629 95.6411 64.5625 95.2017 64.5625C94.7244 64.5625 94.3078 64.6799 93.9517 64.9148C93.5994 65.1458 93.3267 65.4489 93.1335 65.8239C92.9441 66.1951 92.8494 66.5985 92.8494 67.0341V68.0284C92.8494 68.6117 92.9517 69.108 93.1562 69.517C93.3646 69.9261 93.6544 70.2386 94.0256 70.4545C94.3968 70.6667 94.8305 70.7727 95.3267 70.7727C95.6487 70.7727 95.9422 70.7273 96.2074 70.6364C96.4725 70.5417 96.7017 70.4015 96.8949 70.2159C97.0881 70.0303 97.2358 69.8011 97.3381 69.5284L98.946 69.8182C98.8172 70.2917 98.5862 70.7064 98.2528 71.0625C97.9233 71.4148 97.5085 71.6894 97.0085 71.8864C96.5123 72.0795 95.946 72.1761 95.3097 72.1761ZM103.479 72.1932C102.926 72.1932 102.426 72.0909 101.979 71.8864C101.532 71.678 101.178 71.3769 100.916 70.983C100.659 70.589 100.53 70.1061 100.53 69.5341C100.53 69.0417 100.625 68.6364 100.814 68.3182C101.003 68 101.259 67.7481 101.581 67.5625C101.903 67.3769 102.263 67.2367 102.661 67.142C103.058 67.0473 103.464 66.9754 103.876 66.9261C104.399 66.8655 104.823 66.8163 105.149 66.7784C105.475 66.7367 105.712 66.6705 105.859 66.5795C106.007 66.4886 106.081 66.3409 106.081 66.1364V66.0966C106.081 65.6004 105.941 65.2159 105.661 64.9432C105.384 64.6705 104.971 64.5341 104.422 64.5341C103.85 64.5341 103.399 64.661 103.07 64.9148C102.744 65.1648 102.518 65.4432 102.393 65.75L100.797 65.3864C100.986 64.8561 101.263 64.428 101.626 64.1023C101.994 63.7727 102.416 63.5341 102.893 63.3864C103.371 63.2348 103.873 63.1591 104.399 63.1591C104.748 63.1591 105.117 63.2008 105.507 63.2841C105.901 63.3636 106.268 63.5114 106.609 63.7273C106.954 63.9432 107.236 64.2519 107.456 64.6534C107.676 65.0511 107.786 65.5682 107.786 66.2045V72H106.126V70.8068H106.058C105.948 71.0265 105.784 71.2424 105.564 71.4545C105.344 71.6667 105.062 71.8428 104.717 71.983C104.373 72.1231 103.96 72.1932 103.479 72.1932ZM103.848 70.8295C104.318 70.8295 104.719 70.7367 105.053 70.5511C105.39 70.3655 105.645 70.1231 105.82 69.8239C105.998 69.5208 106.087 69.197 106.087 68.8523V67.7273C106.026 67.7879 105.909 67.8447 105.734 67.8977C105.564 67.947 105.369 67.9905 105.149 68.0284C104.929 68.0625 104.715 68.0947 104.507 68.125C104.299 68.1515 104.125 68.1742 103.984 68.1932C103.655 68.2348 103.354 68.3049 103.081 68.4034C102.812 68.5019 102.596 68.6439 102.433 68.8295C102.274 69.0114 102.195 69.2538 102.195 69.5568C102.195 69.9773 102.35 70.2955 102.661 70.5114C102.971 70.7235 103.367 70.8295 103.848 70.8295ZM110.048 72V63.2727H111.69V64.6591H111.781C111.94 64.1894 112.221 63.8201 112.622 63.5511C113.027 63.2784 113.486 63.142 113.997 63.142C114.103 63.142 114.228 63.1458 114.372 63.1534C114.52 63.161 114.635 63.1705 114.719 63.1818V64.8068C114.651 64.7879 114.529 64.767 114.355 64.7443C114.181 64.7178 114.007 64.7045 113.832 64.7045C113.431 64.7045 113.073 64.7898 112.759 64.9602C112.448 65.1269 112.202 65.3598 112.02 65.6591C111.838 65.9545 111.747 66.2917 111.747 66.6705V72H110.048ZM119.553 72.1761C118.708 72.1761 117.981 71.9848 117.371 71.6023C116.765 71.2159 116.299 70.6837 115.973 70.0057C115.647 69.3277 115.484 68.5511 115.484 67.6761C115.484 66.7898 115.651 66.0076 115.984 65.3295C116.318 64.6477 116.787 64.1155 117.393 63.733C118 63.3504 118.714 63.1591 119.536 63.1591C120.198 63.1591 120.789 63.2822 121.308 63.5284C121.827 63.7708 122.246 64.1117 122.564 64.5511C122.886 64.9905 123.077 65.5038 123.138 66.0909H121.484C121.393 65.6818 121.185 65.3295 120.859 65.0341C120.537 64.7386 120.106 64.5909 119.564 64.5909C119.09 64.5909 118.676 64.7159 118.32 64.9659C117.967 65.2121 117.693 65.5644 117.496 66.0227C117.299 66.4773 117.2 67.0152 117.2 67.6364C117.2 68.2727 117.297 68.822 117.49 69.2841C117.683 69.7462 117.956 70.1042 118.308 70.358C118.664 70.6117 119.083 70.7386 119.564 70.7386C119.886 70.7386 120.178 70.6799 120.439 70.5625C120.704 70.4413 120.926 70.2689 121.104 70.0455C121.286 69.822 121.412 69.553 121.484 69.2386H123.138C123.077 69.803 122.893 70.3068 122.587 70.75C122.28 71.1932 121.869 71.5417 121.354 71.7955C120.842 72.0492 120.242 72.1761 119.553 72.1761ZM126.653 66.8182V72H124.955V60.3636H126.631V64.6932H126.739C126.943 64.2235 127.256 63.8504 127.676 63.5739C128.097 63.2973 128.646 63.1591 129.324 63.1591C129.922 63.1591 130.445 63.2822 130.892 63.5284C131.343 63.7746 131.691 64.142 131.938 64.6307C132.188 65.1155 132.312 65.7216 132.312 66.4489V72H130.614V66.6534C130.614 66.0133 130.449 65.517 130.119 65.1648C129.79 64.8087 129.331 64.6307 128.744 64.6307C128.343 64.6307 127.983 64.7159 127.665 64.8864C127.35 65.0568 127.102 65.3068 126.92 65.6364C126.742 65.9621 126.653 66.3561 126.653 66.8182ZM135.699 72.108C135.388 72.108 135.121 71.9981 134.898 71.7784C134.674 71.5549 134.562 71.286 134.562 70.9716C134.562 70.661 134.674 70.3958 134.898 70.1761C135.121 69.9527 135.388 69.8409 135.699 69.8409C136.009 69.8409 136.277 69.9527 136.5 70.1761C136.723 70.3958 136.835 70.661 136.835 70.9716C136.835 71.1799 136.782 71.3712 136.676 71.5455C136.574 71.7159 136.438 71.8523 136.267 71.9545C136.097 72.0568 135.907 72.108 135.699 72.108ZM139.111 75.2727V63.2727H140.77V64.6875H140.912C141.01 64.5057 141.152 64.2955 141.338 64.0568C141.524 63.8182 141.781 63.6098 142.111 63.4318C142.44 63.25 142.876 63.1591 143.418 63.1591C144.122 63.1591 144.751 63.3371 145.304 63.6932C145.857 64.0492 146.291 64.5625 146.605 65.233C146.923 65.9034 147.082 66.7102 147.082 67.6534C147.082 68.5966 146.925 69.4053 146.611 70.0795C146.296 70.75 145.865 71.267 145.315 71.6307C144.766 71.9905 144.139 72.1705 143.435 72.1705C142.904 72.1705 142.471 72.0814 142.134 71.9034C141.8 71.7254 141.539 71.517 141.349 71.2784C141.16 71.0398 141.014 70.8277 140.912 70.642H140.81V75.2727H139.111ZM140.776 67.6364C140.776 68.25 140.865 68.7879 141.043 69.25C141.221 69.7121 141.478 70.0739 141.815 70.3352C142.152 70.5928 142.565 70.7216 143.054 70.7216C143.562 70.7216 143.986 70.5871 144.327 70.3182C144.668 70.0455 144.925 69.6761 145.099 69.2102C145.277 68.7443 145.366 68.2197 145.366 67.6364C145.366 67.0606 145.279 66.5436 145.105 66.0852C144.935 65.6269 144.677 65.2652 144.332 65C143.991 64.7348 143.565 64.6023 143.054 64.6023C142.562 64.6023 142.145 64.7292 141.804 64.983C141.467 65.2367 141.211 65.5909 141.037 66.0455C140.863 66.5 140.776 67.0303 140.776 67.6364ZM152.253 72.1705C151.548 72.1705 150.92 71.9905 150.366 71.6307C149.817 71.267 149.385 70.75 149.071 70.0795C148.76 69.4053 148.605 68.5966 148.605 67.6534C148.605 66.7102 148.762 65.9034 149.077 65.233C149.395 64.5625 149.83 64.0492 150.384 63.6932C150.937 63.3371 151.563 63.1591 152.264 63.1591C152.806 63.1591 153.241 63.25 153.571 63.4318C153.904 63.6098 154.162 63.8182 154.344 64.0568C154.529 64.2955 154.673 64.5057 154.776 64.6875H154.878V60.3636H156.577V72H154.918V70.642H154.776C154.673 70.8277 154.526 71.0398 154.332 71.2784C154.143 71.517 153.882 71.7254 153.548 71.9034C153.215 72.0814 152.783 72.1705 152.253 72.1705ZM152.628 70.7216C153.116 70.7216 153.529 70.5928 153.866 70.3352C154.207 70.0739 154.465 69.7121 154.639 69.25C154.817 68.7879 154.906 68.25 154.906 67.6364C154.906 67.0303 154.819 66.5 154.645 66.0455C154.471 65.5909 154.215 65.2367 153.878 64.983C153.541 64.7292 153.124 64.6023 152.628 64.6023C152.116 64.6023 151.69 64.7348 151.349 65C151.009 65.2652 150.751 65.6269 150.577 66.0852C150.406 66.5436 150.321 67.0606 150.321 67.6364C150.321 68.2197 150.408 68.7443 150.582 69.2102C150.757 69.6761 151.014 70.0455 151.355 70.3182C151.7 70.5871 152.124 70.7216 152.628 70.7216ZM163.155 63.2727V64.6364H158.223V63.2727H163.155ZM159.575 72V62.2614C159.575 61.7159 159.695 61.2633 159.933 60.9034C160.172 60.5398 160.488 60.2689 160.882 60.0909C161.276 59.9091 161.704 59.8182 162.166 59.8182C162.507 59.8182 162.799 59.8466 163.041 59.9034C163.284 59.9564 163.464 60.0057 163.581 60.0511L163.183 61.4261C163.104 61.4034 163.001 61.3769 162.876 61.3466C162.751 61.3125 162.6 61.2955 162.422 61.2955C162.009 61.2955 161.714 61.3977 161.536 61.6023C161.361 61.8068 161.274 62.1023 161.274 62.4886V72H159.575Z" fill="#000C14"/>
<path d="M45.4645 55.75H40.25C37.893 55.75 36.7145 55.75 35.9822 56.4822C35.25 57.2145 35.25 58.393 35.25 60.75V73.25C35.25 75.607 35.25 76.7855 35.9822 77.5178C36.7145 78.25 37.893 78.25 40.25 78.25H47.75C50.107 78.25 51.2855 78.25 52.0178 77.5178C52.75 76.7855 52.75 75.607 52.75 73.25V63.0355C52.75 62.5246 52.75 62.2691 52.6548 62.0394C52.5597 61.8097 52.3791 61.6291 52.0178 61.2678L47.2322 56.4822C46.8709 56.1209 46.6903 55.9403 46.4606 55.8452C46.2309 55.75 45.9754 55.75 45.4645 55.75Z" fill="#D9CAB3" stroke="black"/>
</g>
<g clip-path="url(#clip1_861_4812)">
<rect y="124" width="194" height="51" rx="5" fill="white"/>
<path d="M80.8388 155.17C80.1342 155.17 79.5054 154.991 78.9524 154.631C78.4032 154.267 77.9714 153.75 77.657 153.08C77.3464 152.405 77.1911 151.597 77.1911 150.653C77.1911 149.71 77.3482 148.903 77.6626 148.233C77.9808 147.562 78.4164 147.049 78.9695 146.693C79.5225 146.337 80.1494 146.159 80.8501 146.159C81.3918 146.159 81.8274 146.25 82.157 146.432C82.4903 146.61 82.7479 146.818 82.9297 147.057C83.1153 147.295 83.2592 147.506 83.3615 147.688H83.4638V143.364H85.1626V155H83.5036V153.642H83.3615C83.2592 153.828 83.1115 154.04 82.9183 154.278C82.7289 154.517 82.4676 154.725 82.1342 154.903C81.8009 155.081 81.3691 155.17 80.8388 155.17ZM81.2138 153.722C81.7024 153.722 82.1153 153.593 82.4524 153.335C82.7933 153.074 83.0509 152.712 83.2251 152.25C83.4032 151.788 83.4922 151.25 83.4922 150.636C83.4922 150.03 83.4051 149.5 83.2308 149.045C83.0566 148.591 82.8009 148.237 82.4638 147.983C82.1267 147.729 81.71 147.602 81.2138 147.602C80.7024 147.602 80.2763 147.735 79.9354 148C79.5945 148.265 79.3369 148.627 79.1626 149.085C78.9922 149.544 78.907 150.061 78.907 150.636C78.907 151.22 78.9941 151.744 79.1683 152.21C79.3426 152.676 79.6001 153.045 79.9411 153.318C80.2857 153.587 80.71 153.722 81.2138 153.722ZM90.1271 155.193C89.5741 155.193 89.0741 155.091 88.6271 154.886C88.1802 154.678 87.826 154.377 87.5646 153.983C87.3071 153.589 87.1783 153.106 87.1783 152.534C87.1783 152.042 87.273 151.636 87.4624 151.318C87.6518 151 87.9074 150.748 88.2294 150.562C88.5514 150.377 88.9112 150.237 89.3089 150.142C89.7067 150.047 90.112 149.975 90.5249 149.926C91.0476 149.866 91.4718 149.816 91.7976 149.778C92.1233 149.737 92.3601 149.67 92.5078 149.58C92.6555 149.489 92.7294 149.341 92.7294 149.136V149.097C92.7294 148.6 92.5893 148.216 92.3089 147.943C92.0324 147.67 91.6196 147.534 91.0703 147.534C90.4983 147.534 90.0476 147.661 89.718 147.915C89.3923 148.165 89.1669 148.443 89.0419 148.75L87.4453 148.386C87.6347 147.856 87.9112 147.428 88.2749 147.102C88.6423 146.773 89.0646 146.534 89.5419 146.386C90.0192 146.235 90.5211 146.159 91.0476 146.159C91.3961 146.159 91.7654 146.201 92.1555 146.284C92.5495 146.364 92.9169 146.511 93.2578 146.727C93.6025 146.943 93.8847 147.252 94.1044 147.653C94.3241 148.051 94.4339 148.568 94.4339 149.205V155H92.7749V153.807H92.7067C92.5968 154.027 92.4321 154.242 92.2124 154.455C91.9927 154.667 91.7105 154.843 91.3658 154.983C91.0211 155.123 90.6082 155.193 90.1271 155.193ZM90.4964 153.83C90.9661 153.83 91.3677 153.737 91.701 153.551C92.0381 153.366 92.2938 153.123 92.468 152.824C92.6461 152.521 92.7351 152.197 92.7351 151.852V150.727C92.6745 150.788 92.5571 150.845 92.3828 150.898C92.2124 150.947 92.0173 150.991 91.7976 151.028C91.5779 151.062 91.3639 151.095 91.1555 151.125C90.9472 151.152 90.773 151.174 90.6328 151.193C90.3033 151.235 90.0021 151.305 89.7294 151.403C89.4605 151.502 89.2446 151.644 89.0817 151.83C88.9226 152.011 88.843 152.254 88.843 152.557C88.843 152.977 88.9983 153.295 89.3089 153.511C89.6196 153.723 90.0154 153.83 90.4964 153.83ZM100.771 146.273V147.636H96.0036V146.273H100.771ZM97.282 144.182H98.9808V152.438C98.9808 152.767 99.0301 153.015 99.1286 153.182C99.227 153.345 99.3539 153.456 99.5092 153.517C99.6683 153.574 99.8407 153.602 100.026 153.602C100.163 153.602 100.282 153.593 100.384 153.574C100.487 153.555 100.566 153.54 100.623 153.528L100.93 154.932C100.831 154.97 100.691 155.008 100.509 155.045C100.327 155.087 100.1 155.11 99.8274 155.114C99.3804 155.121 98.9638 155.042 98.5774 154.875C98.1911 154.708 97.8786 154.451 97.6399 154.102C97.4013 153.754 97.282 153.316 97.282 152.79V144.182ZM105.19 155.193C104.637 155.193 104.137 155.091 103.69 154.886C103.243 154.678 102.888 154.377 102.627 153.983C102.37 153.589 102.241 153.106 102.241 152.534C102.241 152.042 102.335 151.636 102.525 151.318C102.714 151 102.97 150.748 103.292 150.562C103.614 150.377 103.974 150.237 104.371 150.142C104.769 150.047 105.174 149.975 105.587 149.926C106.11 149.866 106.534 149.816 106.86 149.778C107.186 149.737 107.423 149.67 107.57 149.58C107.718 149.489 107.792 149.341 107.792 149.136V149.097C107.792 148.6 107.652 148.216 107.371 147.943C107.095 147.67 106.682 147.534 106.133 147.534C105.561 147.534 105.11 147.661 104.781 147.915C104.455 148.165 104.229 148.443 104.104 148.75L102.508 148.386C102.697 147.856 102.974 147.428 103.337 147.102C103.705 146.773 104.127 146.534 104.604 146.386C105.082 146.235 105.584 146.159 106.11 146.159C106.459 146.159 106.828 146.201 107.218 146.284C107.612 146.364 107.979 146.511 108.32 146.727C108.665 146.943 108.947 147.252 109.167 147.653C109.387 148.051 109.496 148.568 109.496 149.205V155H107.837V153.807H107.769C107.659 154.027 107.495 154.242 107.275 154.455C107.055 154.667 106.773 154.843 106.428 154.983C106.084 155.123 105.671 155.193 105.19 155.193ZM105.559 153.83C106.029 153.83 106.43 153.737 106.763 153.551C107.101 153.366 107.356 153.123 107.531 152.824C107.709 152.521 107.798 152.197 107.798 151.852V150.727C107.737 150.788 107.62 150.845 107.445 150.898C107.275 150.947 107.08 150.991 106.86 151.028C106.64 151.062 106.426 151.095 106.218 151.125C106.01 151.152 105.835 151.174 105.695 151.193C105.366 151.235 105.065 151.305 104.792 151.403C104.523 151.502 104.307 151.644 104.144 151.83C103.985 152.011 103.906 152.254 103.906 152.557C103.906 152.977 104.061 153.295 104.371 153.511C104.682 153.723 105.078 153.83 105.559 153.83ZM115.435 155.176C114.591 155.176 113.863 154.985 113.254 154.602C112.647 154.216 112.182 153.684 111.856 153.006C111.53 152.328 111.367 151.551 111.367 150.676C111.367 149.79 111.534 149.008 111.867 148.33C112.201 147.648 112.67 147.116 113.276 146.733C113.882 146.35 114.596 146.159 115.418 146.159C116.081 146.159 116.672 146.282 117.191 146.528C117.71 146.771 118.129 147.112 118.447 147.551C118.769 147.991 118.96 148.504 119.021 149.091H117.367C117.276 148.682 117.068 148.33 116.742 148.034C116.42 147.739 115.988 147.591 115.447 147.591C114.973 147.591 114.558 147.716 114.202 147.966C113.85 148.212 113.576 148.564 113.379 149.023C113.182 149.477 113.083 150.015 113.083 150.636C113.083 151.273 113.18 151.822 113.373 152.284C113.566 152.746 113.839 153.104 114.191 153.358C114.547 153.612 114.966 153.739 115.447 153.739C115.769 153.739 116.06 153.68 116.322 153.562C116.587 153.441 116.808 153.269 116.987 153.045C117.168 152.822 117.295 152.553 117.367 152.239H119.021C118.96 152.803 118.776 153.307 118.469 153.75C118.163 154.193 117.752 154.542 117.237 154.795C116.725 155.049 116.125 155.176 115.435 155.176ZM122.536 143.364V155H120.837V143.364H122.536ZM124.822 155V146.273H126.521V155H124.822ZM125.68 144.926C125.384 144.926 125.13 144.828 124.918 144.631C124.71 144.43 124.606 144.191 124.606 143.915C124.606 143.634 124.71 143.396 124.918 143.199C125.13 142.998 125.384 142.898 125.68 142.898C125.975 142.898 126.227 142.998 126.435 143.199C126.647 143.396 126.754 143.634 126.754 143.915C126.754 144.191 126.647 144.43 126.435 144.631C126.227 144.828 125.975 144.926 125.68 144.926ZM132.567 155.176C131.708 155.176 130.967 154.992 130.346 154.625C129.728 154.254 129.251 153.733 128.914 153.062C128.581 152.388 128.414 151.598 128.414 150.693C128.414 149.799 128.581 149.011 128.914 148.33C129.251 147.648 129.721 147.116 130.323 146.733C130.929 146.35 131.638 146.159 132.448 146.159C132.941 146.159 133.418 146.241 133.88 146.403C134.342 146.566 134.757 146.822 135.124 147.17C135.492 147.519 135.781 147.972 135.994 148.528C136.206 149.081 136.312 149.754 136.312 150.545V151.148H129.374V149.875H134.647C134.647 149.428 134.556 149.032 134.374 148.688C134.192 148.339 133.937 148.064 133.607 147.864C133.281 147.663 132.899 147.562 132.46 147.562C131.982 147.562 131.566 147.68 131.21 147.915C130.857 148.146 130.585 148.449 130.391 148.824C130.202 149.195 130.107 149.598 130.107 150.034V151.028C130.107 151.612 130.21 152.108 130.414 152.517C130.622 152.926 130.912 153.239 131.283 153.455C131.655 153.667 132.088 153.773 132.585 153.773C132.906 153.773 133.2 153.727 133.465 153.636C133.73 153.542 133.96 153.402 134.153 153.216C134.346 153.03 134.494 152.801 134.596 152.528L136.204 152.818C136.075 153.292 135.844 153.706 135.511 154.062C135.181 154.415 134.766 154.689 134.266 154.886C133.77 155.08 133.204 155.176 132.567 155.176ZM139.896 149.818V155H138.197V146.273H139.827V147.693H139.935C140.136 147.231 140.451 146.86 140.879 146.58C141.31 146.299 141.854 146.159 142.509 146.159C143.104 146.159 143.625 146.284 144.072 146.534C144.519 146.78 144.865 147.148 145.112 147.636C145.358 148.125 145.481 148.729 145.481 149.449V155H143.782V149.653C143.782 149.021 143.617 148.527 143.288 148.17C142.958 147.811 142.505 147.631 141.93 147.631C141.536 147.631 141.185 147.716 140.879 147.886C140.576 148.057 140.335 148.307 140.157 148.636C139.983 148.962 139.896 149.356 139.896 149.818ZM151.833 146.273V147.636H147.066V146.273H151.833ZM148.344 144.182H150.043V152.438C150.043 152.767 150.093 153.015 150.191 153.182C150.29 153.345 150.416 153.456 150.572 153.517C150.731 153.574 150.903 153.602 151.089 153.602C151.225 153.602 151.344 153.593 151.447 153.574C151.549 153.555 151.629 153.54 151.685 153.528L151.992 154.932C151.894 154.97 151.754 155.008 151.572 155.045C151.39 155.087 151.163 155.11 150.89 155.114C150.443 155.121 150.026 155.042 149.64 154.875C149.254 154.708 148.941 154.451 148.702 154.102C148.464 153.754 148.344 153.316 148.344 152.79V144.182Z" fill="#000C14"/>
<path d="M38.8335 143.292C38.8335 141.406 38.8335 140.463 39.4193 139.877C40.0051 139.292 40.9479 139.292 42.8335 139.292H45.9266C46.7441 139.292 47.1529 139.292 47.5204 139.444C47.888 139.596 48.177 139.885 48.7551 140.463L50.7869 142.495C51.365 143.073 51.654 143.362 52.0216 143.514C52.3891 143.667 52.7978 143.667 53.6154 143.667H58.1668C60.0524 143.667 60.9953 143.667 61.581 144.252C62.1668 144.838 62.1668 145.781 62.1668 147.667V155.708C62.1668 157.594 62.1668 158.537 61.581 159.123C60.9953 159.708 60.0524 159.708 58.1668 159.708H42.8335C40.9479 159.708 40.0051 159.708 39.4193 159.123C38.8335 158.537 38.8335 157.594 38.8335 155.708V143.292Z" fill="#D9CAB3" stroke="black"/>
</g>
<path d="M264.312 49.6926L286.368 22.0233L311.646 38.4583V58.1401C311.646 61.1576 309.199 63.6042 306.182 63.6042H273.679C268.506 63.6042 264.312 59.4093 264.312 54.2366V49.6926Z" fill="#283593"/>
<path d="M264.312 29.891C264.312 26.0096 267.457 22.8649 271.337 22.8649H303.667L311.646 18.9008V38.9094C311.646 41.9284 309.199 44.375 306.182 44.375H273.679C268.506 44.375 264.312 48.5699 264.312 53.7425V29.891Z" fill="url(#paint0_linear_861_4812)"/>
<path d="M264.312 29.891C264.312 26.0096 267.457 22.8649 271.337 22.8649H303.667L311.646 18.9008V38.9094C311.646 41.9284 309.199 44.375 306.182 44.375H273.679C268.506 44.375 264.312 48.5699 264.312 53.7425V29.891Z" fill="#1E88E5" fill-opacity="0.6"/>
<path d="M264.312 15.2842C264.312 10.1115 268.506 5.91663 273.679 5.91663H306.183C309.199 5.91663 311.646 8.36317 311.646 11.3807V19.6803C311.646 22.6993 309.199 25.1458 306.182 25.1458H273.679C268.506 25.1458 264.312 29.3407 264.312 34.5134V15.2842Z" fill="#00E5FF"/>
<path d="M262.094 34.0209H276.885C279.744 34.0209 282.062 36.3387 282.062 39.198V53.9896C282.062 56.8489 279.744 59.1667 276.885 59.1667H262.094C259.234 59.1667 256.917 56.8489 256.917 53.9896V39.198C256.917 36.3387 259.234 34.0209 262.094 34.0209Z" fill="#1565C0"/>
<path d="M278.109 39.4094L275.014 53.7766L271.315 53.7795L269.49 45.1575L267.577 53.7795H263.844L260.871 39.4124H263.921L265.755 48.8938L267.577 39.4124H271.316L273.226 48.8938L275.016 39.4124L278.109 39.4094Z" fill="white"/>
<path d="M349.271 90.625H331.32C330.016 90.625 328.958 91.6175 328.958 92.8413V102.066H349.271V90.625Z" fill="#169154"/>
<path d="M328.958 125.006V134.159C328.958 135.382 330.016 136.375 331.319 136.375H349.271V125.006H328.958Z" fill="#18482A"/>
<path d="M328.958 102.066H349.271V113.506H328.958V102.066Z" fill="#0C8045"/>
<path d="M328.958 113.506H349.271V125.007H328.958V113.506Z" fill="#17472A"/>
<path d="M367.222 90.625H349.271V102.066H369.583V92.8413C369.583 91.6175 368.526 90.625 367.222 90.625Z" fill="#29C27F"/>
<path d="M349.271 125.006V136.375H367.223C368.526 136.375 369.583 135.382 369.583 134.16V125.007L349.271 125.006Z" fill="#27663F"/>
<path d="M349.271 102.066H369.583V113.506H349.271V102.066Z" fill="#19AC65"/>
<path d="M349.271 113.506H369.583V125.007H349.271V113.506Z" fill="#129652"/>
<path d="M340.223 126.208H317.693C316.436 126.208 315.417 125.251 315.417 124.072V102.928C315.417 101.749 316.436 100.792 317.693 100.792H340.223C341.48 100.792 342.5 101.749 342.5 102.928V124.072C342.5 125.251 341.48 126.208 340.223 126.208Z" fill="#0C7238"/>
<path d="M323.28 107.146H326.511L329.133 111.917L331.904 107.146H334.922L330.764 113.5L335.017 119.854H331.833L328.976 114.86L326.131 119.854H322.9L327.224 113.477L323.28 107.146Z" fill="white"/>
<path d="M262.833 191.5C262.833 206.204 274.754 218.125 289.458 218.125C304.163 218.125 316.083 206.204 316.083 191.5H289.458H262.833Z" fill="#DC4C2C"/>
<path d="M289.458 164.875V191.5H316.083C316.083 176.796 304.163 164.875 289.458 164.875Z" fill="#F7A278"/>
<path d="M289.458 164.875C274.754 164.875 262.833 176.796 262.833 191.5H289.458V164.875Z" fill="#C06346"/>
<path d="M284.013 206.292H259.403C258.03 206.292 256.917 205.178 256.917 203.805V179.195C256.917 177.822 258.03 176.708 259.403 176.708H284.013C285.386 176.708 286.5 177.822 286.5 179.195V203.805C286.5 205.178 285.386 206.292 284.013 206.292Z" fill="#9B341F"/>
<path d="M272.704 184.122H265.792V198.914H268.785V193.705H272.152C274.927 193.705 277.177 191.456 277.177 188.681V188.595C277.177 186.125 275.174 184.122 272.704 184.122ZM274.03 189.071C274.03 190.342 272.999 191.373 271.729 191.373H268.785V186.455H271.729C272.999 186.455 274.03 187.486 274.03 188.756V189.071Z" fill="white"/>
<defs>
<linearGradient id="paint0_linear_861_4812" x1="264.312" y1="36.3209" x2="300.561" y2="36.3209" gradientUnits="userSpaceOnUse">
<stop stop-color="#66C0FF"/>
<stop offset="0.26" stop-color="#0094F0"/>
</linearGradient>
<clipPath id="clip0_861_4812">
<rect y="41" width="194" height="51" rx="5" fill="white"/>
</clipPath>
<clipPath id="clip1_861_4812">
<rect y="124" width="194" height="51" rx="5" fill="white"/>
</clipPath>
</defs>
</svg>
