<svg width="130" height="69" viewBox="0 0 130 69" fill="none" xmlns="http://www.w3.org/2000/svg">
<path fill-rule="evenodd" clip-rule="evenodd" d="M123.152 19.8066C117.626 17.574 106.725 11.9984 96.6151 7.29814C78.2452 -1.27677 79.4648 -0.830206 78.1764 1.31447C76.2564 4.5105 77.3036 12.5795 80.7902 21.5416L81.5464 23.4266C62.2433 28.5986 57.8001 30.2788 31.31 39.3169C-0.380619 50.1526 -3.24338 54.1557 -13.1646 57.524C-20.1237 59.8675 -15.7177 64.6319 -8.12798 62.9534C2.03658 60.7042 23.2314 57.8133 39.8232 56.3922C44.2068 56.0497 88.8842 51.4134 88.8842 51.4134C92.393 65.7685 92.552 67.4092 94.983 68.1257C95.9504 68.4207 96.2534 68.2021 97.6849 65.9145C102.215 58.8497 120.786 39.5598 127.168 30.4601C132.127 23.2526 129.276 22.2835 123.152 19.8066ZM121.835 28.2865C116.137 33.3903 102.759 48.4175 98.2632 54.7587L95.6193 58.4928C94.5737 47.5633 94.8784 44.1981 84.1592 45.37C71 46.793 30.9588 50.6663 27.122 51.0512C15.41 52.2562 15.41 52.2562 23.0676 49.7028C39.2578 44.3777 80.6678 29.938 84.4373 29.2839C84.9677 28.6868 89.5597 31.6172 85.0832 17.5392C83.8234 13.6347 83.009 10.5129 83.2698 10.5552C84.2204 10.7828 110.648 23.2828 119.237 26.3248C122.425 27.496 122.593 27.5971 121.835 28.2865Z" fill="black"/>
</svg>
