<svg width="2425" height="779" viewBox="0 0 2425 779" fill="none" xmlns="http://www.w3.org/2000/svg">
<path d="M1123.05 767.813C1124.76 770.745 1125.61 772.211 1125.49 773.415C1125.38 774.464 1124.82 775.418 1123.96 776.039C1122.98 776.75 1121.27 776.75 1117.85 776.75H1056.15C1052.73 776.75 1051.02 776.75 1050.04 776.039C1049.18 775.418 1048.62 774.464 1048.51 773.415C1048.39 772.211 1049.24 770.745 1050.95 767.813L1081.81 714.945C1083.51 712.023 1084.36 710.562 1085.48 710.071C1086.45 709.643 1087.55 709.643 1088.52 710.071C1089.64 710.562 1090.49 712.023 1092.19 714.945" stroke="black" stroke-width="4" stroke-linecap="round" stroke-linejoin="round"/>
<path d="M1158.35 730.91C1158.35 732.854 1157.9 734.687 1156.98 736.41C1156.06 738.134 1154.6 739.545 1152.58 740.645C1150.56 741.709 1147.98 742.24 1144.82 742.24H1137.89V757.75H1131.62V719.525H1144.82C1147.76 719.525 1150.23 720.039 1152.25 721.065C1154.3 722.055 1155.82 723.412 1156.81 725.135C1157.84 726.859 1158.35 728.784 1158.35 730.91ZM1144.82 737.125C1147.21 737.125 1148.99 736.594 1150.16 735.53C1151.33 734.43 1151.92 732.89 1151.92 730.91C1151.92 726.73 1149.55 724.64 1144.82 724.64H1137.89V737.125H1144.82ZM1170.6 731.845C1171.52 730.305 1172.73 729.114 1174.23 728.27C1175.77 727.39 1177.59 726.95 1179.68 726.95V733.44H1178.08C1175.63 733.44 1173.76 734.064 1172.47 735.31C1171.23 736.557 1170.6 738.72 1170.6 741.8V757.75H1164.33V727.445H1170.6V731.845ZM1198.59 758.245C1195.73 758.245 1193.14 757.604 1190.83 756.32C1188.52 755 1186.71 753.167 1185.39 750.82C1184.07 748.437 1183.41 745.687 1183.41 742.57C1183.41 739.49 1184.09 736.759 1185.44 734.375C1186.8 731.992 1188.65 730.159 1191 728.875C1193.34 727.592 1195.97 726.95 1198.86 726.95C1201.76 726.95 1204.38 727.592 1206.73 728.875C1209.07 730.159 1210.93 731.992 1212.28 734.375C1213.64 736.759 1214.32 739.49 1214.32 742.57C1214.32 745.65 1213.62 748.382 1212.23 750.765C1210.83 753.149 1208.93 755 1206.51 756.32C1204.12 757.604 1201.48 758.245 1198.59 758.245ZM1198.59 752.8C1200.2 752.8 1201.7 752.415 1203.1 751.645C1204.53 750.875 1205.68 749.72 1206.56 748.18C1207.44 746.64 1207.88 744.77 1207.88 742.57C1207.88 740.37 1207.46 738.519 1206.62 737.015C1205.77 735.475 1204.66 734.32 1203.26 733.55C1201.87 732.78 1200.37 732.395 1198.75 732.395C1197.14 732.395 1195.64 732.78 1194.24 733.55C1192.89 734.32 1191.8 735.475 1191 737.015C1190.19 738.519 1189.79 740.37 1189.79 742.57C1189.79 745.834 1190.61 748.364 1192.26 750.16C1193.95 751.92 1196.06 752.8 1198.59 752.8ZM1227.83 732.56V749.335C1227.83 750.472 1228.09 751.297 1228.6 751.81C1229.15 752.287 1230.07 752.525 1231.35 752.525H1235.2V757.75H1230.25C1227.43 757.75 1225.26 757.09 1223.76 755.77C1222.26 754.45 1221.51 752.305 1221.51 749.335V732.56H1217.93V727.445H1221.51V719.91H1227.83V727.445H1235.2V732.56H1227.83ZM1268.76 741.855C1268.76 742.992 1268.68 744.019 1268.54 744.935H1245.38C1245.56 747.355 1246.46 749.299 1248.08 750.765C1249.69 752.232 1251.67 752.965 1254.02 752.965C1257.39 752.965 1259.77 751.554 1261.17 748.73H1267.93C1267.01 751.517 1265.35 753.809 1262.93 755.605C1260.54 757.365 1257.57 758.245 1254.02 758.245C1251.12 758.245 1248.52 757.604 1246.21 756.32C1243.93 755 1242.14 753.167 1240.82 750.82C1239.53 748.437 1238.89 745.687 1238.89 742.57C1238.89 739.454 1239.51 736.722 1240.76 734.375C1242.04 731.992 1243.82 730.159 1246.1 728.875C1248.41 727.592 1251.05 726.95 1254.02 726.95C1256.88 726.95 1259.42 727.574 1261.66 728.82C1263.9 730.067 1265.64 731.827 1266.89 734.1C1268.13 736.337 1268.76 738.922 1268.76 741.855ZM1262.21 739.875C1262.17 737.565 1261.35 735.714 1259.74 734.32C1258.12 732.927 1256.12 732.23 1253.74 732.23C1251.58 732.23 1249.73 732.927 1248.19 734.32C1246.65 735.677 1245.73 737.529 1245.44 739.875H1262.21ZM1272.84 742.57C1272.84 739.454 1273.46 736.722 1274.71 734.375C1275.99 731.992 1277.75 730.159 1279.99 728.875C1282.22 727.592 1284.79 726.95 1287.69 726.95C1291.35 726.95 1294.38 727.83 1296.76 729.59C1299.18 731.314 1300.81 733.789 1301.66 737.015H1294.89C1294.34 735.512 1293.46 734.339 1292.25 733.495C1291.04 732.652 1289.52 732.23 1287.69 732.23C1285.12 732.23 1283.07 733.147 1281.53 734.98C1280.02 736.777 1279.27 739.307 1279.27 742.57C1279.27 745.834 1280.02 748.382 1281.53 750.215C1283.07 752.049 1285.12 752.965 1287.69 752.965C1291.32 752.965 1293.72 751.37 1294.89 748.18H1301.66C1300.78 751.26 1299.13 753.717 1296.71 755.55C1294.29 757.347 1291.28 758.245 1287.69 758.245C1284.79 758.245 1282.22 757.604 1279.99 756.32C1277.75 755 1275.99 753.167 1274.71 750.82C1273.46 748.437 1272.84 745.687 1272.84 742.57ZM1315.22 732.56V749.335C1315.22 750.472 1315.48 751.297 1315.99 751.81C1316.54 752.287 1317.46 752.525 1318.74 752.525H1322.59V757.75H1317.64C1314.82 757.75 1312.65 757.09 1311.15 755.77C1309.65 754.45 1308.89 752.305 1308.89 749.335V732.56H1305.32V727.445H1308.89V719.91H1315.22V727.445H1322.59V732.56H1315.22ZM1356.14 741.855C1356.14 742.992 1356.07 744.019 1355.92 744.935H1332.77C1332.95 747.355 1333.85 749.299 1335.46 750.765C1337.08 752.232 1339.06 752.965 1341.4 752.965C1344.78 752.965 1347.16 751.554 1348.55 748.73H1355.32C1354.4 751.517 1352.73 753.809 1350.31 755.605C1347.93 757.365 1344.96 758.245 1341.4 758.245C1338.51 758.245 1335.9 757.604 1333.59 756.32C1331.32 755 1329.52 753.167 1328.2 750.82C1326.92 748.437 1326.28 745.687 1326.28 742.57C1326.28 739.454 1326.9 736.722 1328.15 734.375C1329.43 731.992 1331.21 730.159 1333.48 728.875C1335.79 727.592 1338.43 726.95 1341.4 726.95C1344.26 726.95 1346.81 727.574 1349.05 728.82C1351.28 730.067 1353.03 731.827 1354.27 734.1C1355.52 736.337 1356.14 738.922 1356.14 741.855ZM1349.6 739.875C1349.56 737.565 1348.74 735.714 1347.12 734.32C1345.51 732.927 1343.51 732.23 1341.13 732.23C1338.96 732.23 1337.11 732.927 1335.57 734.32C1334.03 735.677 1333.12 737.529 1332.82 739.875H1349.6ZM1360.22 742.46C1360.22 739.417 1360.85 736.722 1362.09 734.375C1363.38 732.029 1365.1 730.214 1367.26 728.93C1369.46 727.61 1371.9 726.95 1374.58 726.95C1376.56 726.95 1378.5 727.39 1380.41 728.27C1382.35 729.114 1383.89 730.25 1385.03 731.68V717.05H1391.35V757.75H1385.03V753.185C1384 754.652 1382.57 755.862 1380.74 756.815C1378.94 757.769 1376.87 758.245 1374.52 758.245C1371.88 758.245 1369.46 757.585 1367.26 756.265C1365.1 754.909 1363.38 753.039 1362.09 750.655C1360.85 748.235 1360.22 745.504 1360.22 742.46ZM1385.03 742.57C1385.03 740.48 1384.59 738.665 1383.71 737.125C1382.87 735.585 1381.75 734.412 1380.35 733.605C1378.96 732.799 1377.46 732.395 1375.84 732.395C1374.23 732.395 1372.73 732.799 1371.33 733.605C1369.94 734.375 1368.8 735.53 1367.92 737.07C1367.08 738.574 1366.66 740.37 1366.66 742.46C1366.66 744.55 1367.08 746.384 1367.92 747.96C1368.8 749.537 1369.94 750.747 1371.33 751.59C1372.76 752.397 1374.27 752.8 1375.84 752.8C1377.46 752.8 1378.96 752.397 1380.35 751.59C1381.75 750.784 1382.87 749.61 1383.71 748.07C1384.59 746.494 1385.03 744.66 1385.03 742.57Z" fill="black"/>
<path d="M565.977 757.123C565.977 751.897 570.227 747.657 575.453 747.657H603.883V738.177H575.453C570.227 738.177 565.977 733.924 565.977 728.697C565.977 723.47 570.227 719.217 575.453 719.217H603.883V709.75H575.453C565.003 709.75 556.5 718.244 556.5 728.697C556.5 734.39 559.071 739.43 563.051 742.91C559.071 746.39 556.5 751.443 556.5 757.123C556.5 767.577 565.003 776.083 575.453 776.083H771.5V766.604H575.453C570.227 766.604 565.977 762.35 565.977 757.123Z" fill="black"/>
<path d="M631.579 758.521C628 758.521 624.876 757.701 622.208 756.06C619.54 754.419 617.468 752.124 615.993 749.174C614.519 746.224 613.781 742.777 613.781 738.833C613.781 734.873 614.519 731.409 615.993 728.443C617.468 725.476 619.54 723.173 622.208 721.532C624.876 719.892 628 719.071 631.579 719.071C635.159 719.071 638.283 719.892 640.951 721.532C643.619 723.173 645.69 725.476 647.165 728.443C648.64 731.409 649.378 734.873 649.378 738.833C649.378 742.777 648.64 746.224 647.165 749.174C645.69 752.124 643.619 754.419 640.951 756.06C638.283 757.701 635.159 758.521 631.579 758.521ZM631.604 752.281C633.924 752.281 635.847 751.668 637.371 750.442C638.896 749.216 640.023 747.583 640.752 745.545C641.498 743.507 641.871 741.261 641.871 738.808C641.871 736.372 641.498 734.135 640.752 732.097C640.023 730.042 638.896 728.393 637.371 727.15C635.847 725.907 633.924 725.286 631.604 725.286C629.268 725.286 627.329 725.907 625.788 727.15C624.263 728.393 623.128 730.042 622.382 732.097C621.653 734.135 621.288 736.372 621.288 738.808C621.288 741.261 621.653 743.507 622.382 745.545C623.128 747.583 624.263 749.216 625.788 750.442C627.329 751.668 629.268 752.281 631.604 752.281ZM673.757 758.521C670.178 758.521 667.054 757.701 664.386 756.06C661.718 754.419 659.646 752.124 658.171 749.174C656.696 746.224 655.959 742.777 655.959 738.833C655.959 734.873 656.696 731.409 658.171 728.443C659.646 725.476 661.718 723.173 664.386 721.532C667.054 719.892 670.178 719.071 673.757 719.071C677.337 719.071 680.461 719.892 683.129 721.532C685.797 723.173 687.868 725.476 689.343 728.443C690.818 731.409 691.555 734.873 691.555 738.833C691.555 742.777 690.818 746.224 689.343 749.174C687.868 752.124 685.797 754.419 683.129 756.06C680.461 757.701 677.337 758.521 673.757 758.521ZM673.782 752.281C676.102 752.281 678.024 751.668 679.549 750.442C681.074 749.216 682.201 747.583 682.93 745.545C683.675 743.507 684.048 741.261 684.048 738.808C684.048 736.372 683.675 734.135 682.93 732.097C682.201 730.042 681.074 728.393 679.549 727.15C678.024 725.907 676.102 725.286 673.782 725.286C671.445 725.286 669.506 725.907 667.965 727.15C666.441 728.393 665.305 730.042 664.56 732.097C663.831 734.135 663.466 736.372 663.466 738.808C663.466 741.261 663.831 743.507 664.56 745.545C665.305 747.583 666.441 749.216 667.965 750.442C669.506 751.668 671.445 752.281 673.782 752.281ZM706.688 744.799L706.638 735.726H707.931L723.144 719.568H732.043L714.692 737.963H713.524L706.688 744.799ZM699.852 757.75V706.841H707.284V757.75H699.852ZM723.964 757.75L710.292 739.604L715.413 734.409L733.087 757.75H723.964ZM767.428 728.89L760.692 730.083C760.41 729.222 759.962 728.401 759.349 727.622C758.753 726.844 757.941 726.205 756.913 725.708C755.886 725.211 754.601 724.963 753.06 724.963C750.956 724.963 749.199 725.435 747.79 726.38C746.382 727.308 745.677 728.509 745.677 729.984C745.677 731.26 746.15 732.287 747.094 733.066C748.039 733.845 749.564 734.483 751.668 734.98L757.734 736.372C761.247 737.184 763.865 738.436 765.589 740.126C767.312 741.816 768.174 744.012 768.174 746.713C768.174 749 767.511 751.039 766.185 752.828C764.876 754.602 763.045 755.994 760.692 757.005C758.355 758.015 755.645 758.521 752.563 758.521C748.288 758.521 744.799 757.609 742.098 755.786C739.397 753.947 737.739 751.337 737.126 747.956L744.31 746.862C744.758 748.735 745.677 750.152 747.069 751.113C748.462 752.058 750.276 752.53 752.513 752.53C754.949 752.53 756.897 752.025 758.355 751.014C759.813 749.986 760.542 748.735 760.542 747.26C760.542 746.067 760.095 745.064 759.2 744.252C758.322 743.44 756.971 742.827 755.148 742.413L748.685 740.996C745.122 740.184 742.487 738.891 740.78 737.118C739.09 735.345 738.245 733.099 738.245 730.382C738.245 728.128 738.875 726.156 740.134 724.465C741.394 722.775 743.134 721.458 745.354 720.513C747.575 719.552 750.119 719.071 752.986 719.071C757.112 719.071 760.36 719.966 762.73 721.756C765.1 723.529 766.666 725.907 767.428 728.89Z" fill="black"/>
<path d="M1621.54 713.547C1620.89 707.627 1627.54 708.72 1631.82 708.573C1640.82 708.573 1652.92 709.92 1660.76 718.32V707.12C1662.22 679.533 1682.88 670.08 1706.41 670.787C1710.52 671 1718.14 669.587 1717.29 675.787C1717.21 676.213 1714.76 687.067 1707.06 696.88C1700.32 705.507 1688.28 714.773 1668.65 712.2V753.72C1668.64 758.853 1660.8 758.947 1660.76 753.72C1661.74 729.267 1659.09 716.307 1630.82 716.507C1633.36 722.773 1639.37 733.44 1651.57 735.56C1653.72 735.933 1655.14 737.973 1654.76 740.133C1654.41 742.293 1652.33 743.707 1650.22 743.333C1627.52 739.4 1621.78 714.627 1621.54 713.547Z" fill="black"/>
<path d="M1706.35 727.91C1706.35 729.854 1705.9 731.687 1704.98 733.41C1704.06 735.134 1702.6 736.545 1700.58 737.645C1698.56 738.709 1695.98 739.24 1692.82 739.24H1685.89V754.75H1679.62V716.525H1692.82C1695.76 716.525 1698.23 717.039 1700.25 718.065C1702.3 719.055 1703.82 720.412 1704.81 722.135C1705.84 723.859 1706.35 725.784 1706.35 727.91ZM1692.82 734.125C1695.21 734.125 1696.99 733.594 1698.16 732.53C1699.33 731.43 1699.92 729.89 1699.92 727.91C1699.92 723.73 1697.55 721.64 1692.82 721.64H1685.89V734.125H1692.82ZM1718.6 728.845C1719.52 727.305 1720.73 726.114 1722.23 725.27C1723.77 724.39 1725.59 723.95 1727.68 723.95V730.44H1726.08C1723.63 730.44 1721.76 731.064 1720.47 732.31C1719.23 733.557 1718.6 735.72 1718.6 738.8V754.75H1712.33V724.445H1718.6V728.845ZM1746.59 755.245C1743.73 755.245 1741.14 754.604 1738.83 753.32C1736.52 752 1734.71 750.167 1733.39 747.82C1732.07 745.437 1731.41 742.687 1731.41 739.57C1731.41 736.49 1732.09 733.759 1733.44 731.375C1734.8 728.992 1736.65 727.159 1739 725.875C1741.34 724.592 1743.97 723.95 1746.86 723.95C1749.76 723.95 1752.38 724.592 1754.73 725.875C1757.07 727.159 1758.93 728.992 1760.28 731.375C1761.64 733.759 1762.32 736.49 1762.32 739.57C1762.32 742.65 1761.62 745.382 1760.23 747.765C1758.83 750.149 1756.93 752 1754.51 753.32C1752.12 754.604 1749.48 755.245 1746.59 755.245ZM1746.59 749.8C1748.2 749.8 1749.7 749.415 1751.1 748.645C1752.53 747.875 1753.68 746.72 1754.56 745.18C1755.44 743.64 1755.88 741.77 1755.88 739.57C1755.88 737.37 1755.46 735.519 1754.62 734.015C1753.77 732.475 1752.66 731.32 1751.26 730.55C1749.87 729.78 1748.37 729.395 1746.75 729.395C1745.14 729.395 1743.64 729.78 1742.24 730.55C1740.89 731.32 1739.8 732.475 1739 734.015C1738.19 735.519 1737.79 737.37 1737.79 739.57C1737.79 742.834 1738.61 745.364 1740.26 747.16C1741.95 748.92 1744.06 749.8 1746.59 749.8ZM1796.29 738.855C1796.29 739.992 1796.22 741.019 1796.07 741.935H1772.92C1773.1 744.355 1774 746.299 1775.61 747.765C1777.22 749.232 1779.2 749.965 1781.55 749.965C1784.92 749.965 1787.31 748.554 1788.7 745.73H1795.47C1794.55 748.517 1792.88 750.809 1790.46 752.605C1788.08 754.365 1785.11 755.245 1781.55 755.245C1778.65 755.245 1776.05 754.604 1773.74 753.32C1771.47 752 1769.67 750.167 1768.35 747.82C1767.07 745.437 1766.43 742.687 1766.43 739.57C1766.43 736.454 1767.05 733.722 1768.3 731.375C1769.58 728.992 1771.36 727.159 1773.63 725.875C1775.94 724.592 1778.58 723.95 1781.55 723.95C1784.41 723.95 1786.96 724.574 1789.2 725.82C1791.43 727.067 1793.17 728.827 1794.42 731.1C1795.67 733.337 1796.29 735.922 1796.29 738.855ZM1789.75 736.875C1789.71 734.565 1788.88 732.714 1787.27 731.32C1785.66 729.927 1783.66 729.23 1781.28 729.23C1779.11 729.23 1777.26 729.927 1775.72 731.32C1774.18 732.677 1773.26 734.529 1772.97 736.875H1789.75ZM1800.37 739.57C1800.37 736.454 1801 733.722 1802.24 731.375C1803.53 728.992 1805.29 727.159 1807.52 725.875C1809.76 724.592 1812.33 723.95 1815.22 723.95C1818.89 723.95 1821.91 724.83 1824.3 726.59C1826.72 728.314 1828.35 730.789 1829.19 734.015H1822.43C1821.88 732.512 1821 731.339 1819.79 730.495C1818.58 729.652 1817.06 729.23 1815.22 729.23C1812.66 729.23 1810.6 730.147 1809.06 731.98C1807.56 733.777 1806.81 736.307 1806.81 739.57C1806.81 742.834 1807.56 745.382 1809.06 747.215C1810.6 749.049 1812.66 749.965 1815.22 749.965C1818.85 749.965 1821.25 748.37 1822.43 745.18H1829.19C1828.31 748.26 1826.66 750.717 1824.24 752.55C1821.82 754.347 1818.82 755.245 1815.22 755.245C1812.33 755.245 1809.76 754.604 1807.52 753.32C1805.29 752 1803.53 750.167 1802.24 747.82C1801 745.437 1800.37 742.687 1800.37 739.57ZM1848.59 755.245C1845.73 755.245 1843.14 754.604 1840.83 753.32C1838.52 752 1836.71 750.167 1835.39 747.82C1834.07 745.437 1833.41 742.687 1833.41 739.57C1833.41 736.49 1834.08 733.759 1835.44 731.375C1836.8 728.992 1838.65 727.159 1841 725.875C1843.34 724.592 1845.96 723.95 1848.86 723.95C1851.76 723.95 1854.38 724.592 1856.73 725.875C1859.07 727.159 1860.92 728.992 1862.28 731.375C1863.64 733.759 1864.32 736.49 1864.32 739.57C1864.32 742.65 1863.62 745.382 1862.23 747.765C1860.83 750.149 1858.93 752 1856.51 753.32C1854.12 754.604 1851.48 755.245 1848.59 755.245ZM1848.59 749.8C1850.2 749.8 1851.7 749.415 1853.1 748.645C1854.53 747.875 1855.68 746.72 1856.56 745.18C1857.44 743.64 1857.88 741.77 1857.88 739.57C1857.88 737.37 1857.46 735.519 1856.62 734.015C1855.77 732.475 1854.65 731.32 1853.26 730.55C1851.87 729.78 1850.36 729.395 1848.75 729.395C1847.14 729.395 1845.63 729.78 1844.24 730.55C1842.88 731.32 1841.8 732.475 1841 734.015C1840.19 735.519 1839.79 737.37 1839.79 739.57C1839.79 742.834 1840.61 745.364 1842.26 747.16C1843.95 748.92 1846.06 749.8 1848.59 749.8Z" fill="black"/>
<g clip-path="url(#clip0_202_220)">
<path d="M57.4275 74.4974L69.6585 62.2502L57.4275 50.0192L50.1051 42.6968L44.4999 21.7502V102.75L50.1051 81.8198L57.4275 74.4974Z" fill="black"/>
<path d="M84.9999 46.925L97.2309 34.694L104.553 27.3554L125.5 21.7502H44.4999L65.4303 27.3554L84.9999 46.925Z" fill="black"/>
<path d="M119.895 42.6968L112.556 50.0192L100.325 62.2502L119.895 81.8198L125.5 102.75V21.7502L119.895 42.6968Z" fill="black"/>
<path d="M97.2309 89.8227L84.9999 77.5917L72.7527 89.8227L65.4303 97.1451L44.4999 102.75H125.5L104.553 97.1451L97.2309 89.8227Z" fill="black"/>
</g>
<path d="M144.656 39.4775L155.966 57.9665H156.336L167.646 39.4775H175.91L161.183 63.1139L176.002 86.7502H167.692L156.336 68.5152H155.966L144.61 86.7502H136.3L151.373 63.1139L136.393 39.4775H144.656ZM182.43 86.7502V51.2957H189.332V86.7502H182.43ZM185.916 45.8252C184.716 45.8252 183.685 45.4251 182.823 44.6249C181.976 43.8093 181.553 42.8398 181.553 41.7165C181.553 40.5778 181.976 39.6083 182.823 38.8081C183.685 37.9925 184.716 37.5848 185.916 37.5848C187.116 37.5848 188.139 37.9925 188.986 38.8081C189.848 39.6083 190.278 40.5778 190.278 41.7165C190.278 42.8398 189.848 43.8093 188.986 44.6249C188.139 45.4251 187.116 45.8252 185.916 45.8252ZM198.617 86.7502V51.2957H205.288V56.9278H205.657C206.303 55.0197 207.442 53.5193 209.073 52.4267C210.72 51.3188 212.582 50.7648 214.659 50.7648C215.09 50.7648 215.598 50.7802 216.183 50.811C216.783 50.8417 217.252 50.8802 217.591 50.9264V57.5279C217.314 57.451 216.821 57.3664 216.113 57.274C215.406 57.1663 214.698 57.1125 213.99 57.1125C212.359 57.1125 210.905 57.4587 209.627 58.1512C208.365 58.8282 207.365 59.7746 206.627 60.9903C205.888 62.1906 205.519 63.5601 205.519 65.099V86.7502H198.617Z" fill="black"/>
<path d="M577.2 23.4165C575.802 23.7893 574.973 25.2194 575.347 26.6106C575.722 28.0019 577.158 28.8275 578.556 28.4547L585.915 26.4918L569.351 56.5148L557.031 46.1137C556.372 45.5572 555.479 45.3602 554.646 45.5871C553.812 45.8139 553.144 46.4354 552.861 47.2482L545.159 69.3585L534.45 59.688C533.908 59.199 533.186 58.9575 532.458 59.022C531.73 59.0864 531.062 59.4509 530.615 60.0273L517.045 77.5498C516.162 78.6905 516.374 80.3281 517.52 81.2076C518.666 82.087 520.311 81.8752 521.194 80.7345L533.032 65.4495L544.575 75.8733C545.227 76.4617 546.131 76.6852 546.984 76.4685C547.836 76.2517 548.522 75.6236 548.81 74.7962L556.559 52.5539L568.409 62.5583C569.009 63.0647 569.806 63.276 570.579 63.1338C571.353 62.9916 572.021 62.5109 572.4 61.8246L590.41 29.1785L592.349 36.3826C592.724 37.7739 594.16 38.5995 595.558 38.2267C596.955 37.8539 597.784 36.4239 597.41 35.0326L593.817 21.6839C593.443 20.2926 592.006 19.467 590.609 19.8398L577.2 23.4165Z" fill="black"/>
<path d="M634.686 52.4118C634.239 51.0115 633.639 49.7573 632.885 48.6494C632.147 47.526 631.262 46.572 630.231 45.7872C629.2 44.987 628.022 44.3791 626.699 43.9637C625.391 43.5482 623.952 43.3404 622.383 43.3404C619.721 43.3404 617.32 44.0252 615.181 45.3948C613.042 46.7643 611.349 48.7725 610.103 51.4193C608.872 54.0507 608.256 57.2745 608.256 61.0908C608.256 64.9225 608.879 68.1617 610.126 70.8085C611.372 73.4553 613.08 75.4634 615.25 76.833C617.42 78.2025 619.89 78.8873 622.66 78.8873C625.23 78.8873 627.469 78.3641 629.377 77.3177C631.3 76.2713 632.785 74.794 633.832 72.8859C634.893 70.9624 635.424 68.7003 635.424 66.0997L637.271 66.4459H623.745V60.5599H642.326V65.9381C642.326 69.9083 641.48 73.3552 639.787 76.279C638.109 79.1874 635.786 81.4341 632.816 83.0191C629.861 84.6041 626.476 85.3966 622.66 85.3966C618.382 85.3966 614.627 84.4117 611.395 82.442C608.179 80.4723 605.671 77.6793 603.871 74.0631C602.07 70.4315 601.17 66.1228 601.17 61.137C601.17 57.3668 601.693 53.9814 602.74 50.9807C603.786 47.98 605.256 45.4332 607.148 43.3404C609.056 41.2323 611.295 39.6242 613.865 38.5162C616.451 37.3929 619.274 36.8312 622.337 36.8312C624.891 36.8312 627.268 37.2082 629.469 37.9622C631.685 38.7163 633.655 39.7858 635.378 41.1707C637.117 42.5556 638.556 44.2022 639.694 46.1103C640.833 48.0031 641.603 50.1036 642.003 52.4118H634.686ZM650.826 84.7502V49.2957H657.497V54.9278H657.866C658.512 53.0197 659.651 51.5193 661.282 50.4267C662.929 49.3188 664.791 48.7648 666.868 48.7648C667.299 48.7648 667.807 48.7802 668.392 48.811C668.992 48.8417 669.461 48.8802 669.8 48.9264V55.5279C669.523 55.451 669.03 55.3664 668.322 55.274C667.615 55.1663 666.907 55.1125 666.199 55.1125C664.568 55.1125 663.113 55.4587 661.836 56.1512C660.574 56.8282 659.574 57.7746 658.836 58.9903C658.097 60.1906 657.728 61.5601 657.728 63.099V84.7502H650.826ZM689.437 85.4658C686.113 85.4658 683.212 84.7041 680.735 83.1806C678.257 81.6572 676.334 79.5259 674.964 76.7868C673.595 74.0477 672.91 70.847 672.91 67.1845C672.91 63.5068 673.595 60.2906 674.964 57.5361C676.334 54.7816 678.257 52.6426 680.735 51.1192C683.212 49.5958 686.113 48.8341 689.437 48.8341C692.761 48.8341 695.662 49.5958 698.139 51.1192C700.617 52.6426 702.54 54.7816 703.91 57.5361C705.279 60.2906 705.964 63.5068 705.964 67.1845C705.964 70.847 705.279 74.0477 703.91 76.7868C702.54 79.5259 700.617 81.6572 698.139 83.1806C695.662 84.7041 692.761 85.4658 689.437 85.4658ZM689.46 79.6721C691.614 79.6721 693.4 79.1028 694.815 77.964C696.231 76.8253 697.277 75.3095 697.954 73.4168C698.647 71.524 698.993 69.4389 698.993 67.1615C698.993 64.8994 698.647 62.822 697.954 60.9292C697.277 59.0211 696.231 57.4899 694.815 56.3358C693.4 55.1817 691.614 54.6046 689.46 54.6046C687.29 54.6046 685.49 55.1817 684.059 56.3358C682.643 57.4899 681.589 59.0211 680.897 60.9292C680.219 62.822 679.881 64.8994 679.881 67.1615C679.881 69.4389 680.219 71.524 680.897 73.4168C681.589 75.3095 682.643 76.8253 684.059 77.964C685.49 79.1028 687.29 79.6721 689.46 79.6721ZM720.275 84.7502L709.842 49.2957H716.974L723.922 75.3326H724.268L731.239 49.2957H738.372L745.296 75.2172H745.643L752.544 49.2957H759.677L749.267 84.7502H742.226L735.025 59.1519H734.494L727.292 84.7502H720.275ZM782.776 49.2957V54.8355H763.41V49.2957H782.776ZM768.604 40.8014H775.505V74.3401C775.505 75.6789 775.706 76.6868 776.106 77.3639C776.506 78.0256 777.021 78.4795 777.652 78.7257C778.298 78.9566 778.999 79.072 779.753 79.072C780.307 79.072 780.791 79.0335 781.207 78.9566C781.622 78.8796 781.945 78.8181 782.176 78.7719L783.423 84.4733C783.023 84.6271 782.453 84.781 781.715 84.9349C780.976 85.1042 780.053 85.1965 778.945 85.2119C777.129 85.2427 775.436 84.9195 773.867 84.2424C772.297 83.5653 771.027 82.5189 770.058 81.1032C769.089 79.6875 768.604 77.9102 768.604 75.7712V40.8014ZM798.074 63.6991V84.7502H791.173V37.4775H797.982V55.0663H798.421C799.251 53.1581 800.521 51.6424 802.229 50.5191C803.937 49.3957 806.168 48.8341 808.923 48.8341C811.354 48.8341 813.478 49.3342 815.294 50.3344C817.125 51.3346 818.541 52.8273 819.541 54.8124C820.557 56.7821 821.064 59.2442 821.064 62.1988V84.7502H814.163V63.0297C814.163 60.4291 813.493 58.4132 812.155 56.9821C810.816 55.5356 808.954 54.8124 806.569 54.8124C804.937 54.8124 803.476 55.1586 802.183 55.8511C800.906 56.5436 799.898 57.5592 799.159 58.898C798.436 60.2214 798.074 61.8217 798.074 63.6991Z" fill="black"/>
<path d="M1178 76.1331C1178 84.9911 1171 92.2502 1162.27 92.2502L1136.47 92.2502C1134.38 92.2499 1133.38 89.8189 1134.63 88.2971C1136.97 85.4637 1138.42 81.6386 1138.42 77.3948C1138.42 71.7508 1135.85 66.8631 1132.07 64.0471L1130.2 62.6516L1129.66 62.2502L1130.2 61.8489L1132.07 60.4534C1135.85 57.6374 1138.42 52.7497 1138.42 47.1057C1138.42 42.8619 1136.97 39.0368 1134.63 36.2034C1133.38 34.6815 1134.38 32.2506 1136.47 32.2502L1162.27 32.2502C1171 32.2502 1178 39.5094 1178 48.3674C1178 54.2595 1174.9 59.4384 1170.26 62.2502C1174.9 65.0621 1178 70.241 1178 76.1331ZM1173.56 48.3674C1173.56 41.8926 1168.46 36.7209 1162.27 36.7209L1140.3 36.7209C1141.93 39.7736 1142.87 43.3273 1142.87 47.1057C1142.87 51.9757 1141.32 56.4801 1138.71 60.0149L1162.27 60.0149C1168.46 60.0149 1173.56 54.8424 1173.56 48.3674ZM1173.56 76.1331C1173.56 69.6581 1168.46 64.4856 1162.27 64.4856L1138.71 64.4856C1141.32 68.0204 1142.87 72.5248 1142.87 77.3948C1142.87 81.1732 1141.93 84.7269 1140.3 87.7795L1162.27 87.7795C1168.46 87.7795 1173.56 82.6078 1173.56 76.1331Z" fill="black" stroke="black"/>
<path d="M1185.14 89.7502V54.2957H1191.81V59.9278H1192.18C1192.83 58.0197 1193.96 56.5193 1195.6 55.4267C1197.24 54.3188 1199.1 53.7648 1201.18 53.7648C1201.61 53.7648 1202.12 53.7802 1202.71 53.811C1203.31 53.8417 1203.77 53.8802 1204.11 53.9264V60.5279C1203.84 60.451 1203.34 60.3664 1202.64 60.274C1201.93 60.1663 1201.22 60.1125 1200.51 60.1125C1198.88 60.1125 1197.43 60.4587 1196.15 61.1512C1194.89 61.8282 1193.89 62.7746 1193.15 63.9903C1192.41 65.1906 1192.04 66.5601 1192.04 68.099V89.7502H1185.14ZM1210.09 89.7502V54.2957H1216.99V89.7502H1210.09ZM1213.57 48.8252C1212.37 48.8252 1211.34 48.4251 1210.48 47.6249C1209.63 46.8093 1209.21 45.8398 1209.21 44.7165C1209.21 43.5778 1209.63 42.6083 1210.48 41.8081C1211.34 40.9925 1212.37 40.5848 1213.57 40.5848C1214.77 40.5848 1215.79 40.9925 1216.64 41.8081C1217.5 42.6083 1217.93 43.5778 1217.93 44.7165C1217.93 45.8398 1217.5 46.8093 1216.64 47.6249C1215.79 48.4251 1214.77 48.8252 1213.57 48.8252ZM1252.84 62.9516L1246.58 64.0595C1246.32 63.2594 1245.91 62.4976 1245.34 61.7744C1244.78 61.0511 1244.03 60.4587 1243.08 59.997C1242.12 59.5354 1240.93 59.3046 1239.5 59.3046C1237.54 59.3046 1235.91 59.7431 1234.6 60.6203C1233.3 61.482 1232.64 62.5977 1232.64 63.9672C1232.64 65.1521 1233.08 66.1062 1233.96 66.8294C1234.84 67.5527 1236.25 68.1451 1238.21 68.6068L1243.84 69.8994C1247.1 70.6534 1249.53 71.8152 1251.13 73.3848C1252.73 74.9544 1253.53 76.9934 1253.53 79.5017C1253.53 81.6252 1252.92 83.518 1251.69 85.1799C1250.47 86.8265 1248.77 88.1191 1246.58 89.0578C1244.42 89.9965 1241.9 90.4658 1239.04 90.4658C1235.07 90.4658 1231.83 89.6194 1229.32 87.9267C1226.81 86.2186 1225.27 83.795 1224.7 80.6558L1231.37 79.6402C1231.79 81.379 1232.64 82.6947 1233.94 83.5872C1235.23 84.4644 1236.91 84.9029 1238.99 84.9029C1241.25 84.9029 1243.06 84.4336 1244.42 83.4949C1245.77 82.5408 1246.45 81.379 1246.45 80.0095C1246.45 78.9015 1246.03 77.9705 1245.2 77.2165C1244.38 76.4625 1243.13 75.8931 1241.44 75.5084L1235.44 74.1927C1232.13 73.4387 1229.68 72.2384 1228.1 70.5919C1226.53 68.9453 1225.74 66.8602 1225.74 64.3365C1225.74 62.2437 1226.33 60.4125 1227.5 58.8429C1228.67 57.2733 1230.28 56.05 1232.34 55.1728C1234.4 54.2803 1236.77 53.8341 1239.43 53.8341C1243.26 53.8341 1246.28 54.665 1248.48 56.3269C1250.68 57.9735 1252.13 60.1817 1252.84 62.9516ZM1267.47 77.7243L1267.42 69.2992H1268.62L1282.75 54.2957H1291.01L1274.9 71.3767H1273.82L1267.47 77.7243ZM1261.12 89.7502V42.4775H1268.02V89.7502H1261.12ZM1283.51 89.7502L1270.82 72.9001L1275.57 68.0759L1291.98 89.7502H1283.51Z" fill="black"/>
<path fill-rule="evenodd" clip-rule="evenodd" d="M2296.44 74.3472C2296.44 84.8021 2305.42 93.2775 2316.5 93.2775C2327.58 93.2775 2336.56 84.8021 2336.56 74.3472C2336.56 63.8923 2327.58 55.4169 2316.5 55.4169C2305.42 55.4169 2296.44 63.8923 2296.44 74.3472ZM2291.5 74.3472C2291.5 87.3794 2302.69 97.9442 2316.5 97.9442C2330.31 97.9442 2341.5 87.3795 2341.5 74.3472C2341.5 61.315 2330.31 50.7502 2316.5 50.7502C2302.69 50.7502 2291.5 61.315 2291.5 74.3472ZM2301.76 116.877C2305.3 118.669 2310.51 119.906 2316.5 119.906C2322.49 119.906 2327.7 118.669 2331.24 116.877C2334.97 114.99 2335.87 113.092 2335.87 112.064C2335.87 111.035 2334.97 109.138 2331.24 107.251C2327.7 105.459 2322.49 104.222 2316.5 104.222C2310.51 104.222 2305.3 105.459 2301.76 107.251C2298.03 109.138 2297.13 111.035 2297.13 112.064C2297.13 113.092 2298.03 114.99 2301.76 116.877ZM2292.68 112.064C2292.68 118.715 2303.34 124.106 2316.5 124.106C2329.65 124.106 2340.32 118.715 2340.32 112.064C2340.32 105.413 2329.65 100.022 2316.5 100.022C2303.34 100.022 2292.68 105.413 2292.68 112.064ZM2316.5 131.484C2311.22 131.484 2306.48 131.087 2302.98 130.467C2306.48 129.847 2311.22 129.45 2316.5 129.45C2321.78 129.45 2326.51 129.847 2330.02 130.467C2326.51 131.087 2321.78 131.484 2316.5 131.484ZM2316.5 134.75C2304.69 134.75 2295.11 132.833 2295.11 130.467C2295.11 128.101 2304.69 126.184 2316.5 126.184C2328.31 126.184 2337.89 128.101 2337.89 130.467C2337.89 132.833 2328.31 134.75 2316.5 134.75Z" fill="black"/>
<path d="M2203.27 59.3412H2196.18C2195.91 57.826 2195.4 56.4927 2194.66 55.3412C2193.92 54.1896 2193.01 53.2124 2191.93 52.4093C2190.86 51.6063 2189.65 51.0002 2188.32 50.5912C2187 50.1821 2185.6 49.9775 2184.11 49.9775C2181.43 49.9775 2179.03 50.6518 2176.91 52.0002C2174.8 53.3487 2173.14 55.326 2171.91 57.9321C2170.7 60.5381 2170.09 63.7199 2170.09 67.4775C2170.09 71.2654 2170.7 74.4624 2171.91 77.0684C2173.14 79.6745 2174.81 81.6442 2176.93 82.9775C2179.05 84.3108 2181.44 84.9775 2184.09 84.9775C2185.56 84.9775 2186.95 84.7805 2188.27 84.3866C2189.61 83.9775 2190.81 83.379 2191.89 82.5912C2192.96 81.8033 2193.87 80.8412 2194.61 79.7048C2195.37 78.5533 2195.89 77.2351 2196.18 75.7502L2203.27 75.773C2202.89 78.0608 2202.16 80.1669 2201.07 82.0912C2199.99 84.0002 2198.61 85.6518 2196.91 87.0457C2195.23 88.4245 2193.3 89.4927 2191.14 90.2502C2188.97 91.0078 2186.61 91.3866 2184.05 91.3866C2180.02 91.3866 2176.42 90.4321 2173.27 88.523C2170.12 86.5987 2167.64 83.8487 2165.82 80.273C2164.02 76.6972 2163.11 72.4321 2163.11 67.4775C2163.11 62.5078 2164.02 58.2427 2165.84 54.6821C2167.66 51.1063 2170.14 48.3639 2173.3 46.4548C2176.45 44.5305 2180.03 43.5684 2184.05 43.5684C2186.52 43.5684 2188.82 43.9245 2190.95 44.6366C2193.11 45.3336 2195.04 46.3639 2196.75 47.7275C2198.46 49.076 2199.88 50.7275 2201 52.6821C2202.12 54.6215 2202.88 56.8412 2203.27 59.3412ZM2221.29 91.523C2219.08 91.523 2217.08 91.1139 2215.29 90.2957C2213.5 89.4624 2212.09 88.2578 2211.04 86.6821C2210.01 85.1063 2209.49 83.1745 2209.49 80.8866C2209.49 78.9169 2209.87 77.2957 2210.63 76.023C2211.39 74.7502 2212.41 73.7427 2213.7 73.0002C2214.99 72.2578 2216.43 71.6972 2218.02 71.3184C2219.61 70.9396 2221.23 70.6518 2222.88 70.4548C2224.97 70.2124 2226.67 70.0154 2227.97 69.8639C2229.27 69.6972 2230.22 69.4321 2230.81 69.0684C2231.4 68.7048 2231.7 68.1139 2231.7 67.2957V67.1366C2231.7 65.1518 2231.14 63.6139 2230.02 62.523C2228.91 61.4321 2227.26 60.8866 2225.06 60.8866C2222.77 60.8866 2220.97 61.3942 2219.65 62.4093C2218.35 63.4093 2217.45 64.523 2216.95 65.7502L2210.56 64.2957C2211.32 62.1745 2212.43 60.4624 2213.88 59.1593C2215.35 57.8412 2217.04 56.8866 2218.95 56.2957C2220.86 55.6896 2222.87 55.3866 2224.97 55.3866C2226.37 55.3866 2227.84 55.5533 2229.4 55.8866C2230.98 56.2048 2232.45 56.7957 2233.81 57.6593C2235.19 58.523 2236.32 59.7578 2237.2 61.3639C2238.08 62.9548 2238.52 65.023 2238.52 67.5684V90.7502H2231.88V85.9775H2231.61C2231.17 86.8563 2230.51 87.7199 2229.63 88.5684C2228.75 89.4169 2227.62 90.1215 2226.24 90.6821C2224.87 91.2427 2223.21 91.523 2221.29 91.523ZM2222.77 86.0684C2224.65 86.0684 2226.25 85.6972 2227.59 84.9548C2228.93 84.2124 2229.96 83.2427 2230.65 82.0457C2231.37 80.8336 2231.72 79.5381 2231.72 78.1593V73.6593C2231.48 73.9018 2231.01 74.129 2230.31 74.3412C2229.63 74.5381 2228.85 74.7124 2227.97 74.8639C2227.09 75.0002 2226.24 75.129 2225.4 75.2502C2224.57 75.3563 2223.87 75.4472 2223.31 75.523C2221.99 75.6896 2220.79 75.9699 2219.7 76.3639C2218.62 76.7578 2217.76 77.326 2217.11 78.0684C2216.47 78.7957 2216.15 79.7654 2216.15 80.9775C2216.15 82.6593 2216.77 83.9321 2218.02 84.7957C2219.26 85.6442 2220.84 86.0684 2222.77 86.0684ZM2254.36 70.023V90.7502H2247.57V55.8412H2254.09V61.523H2254.52C2255.33 59.6745 2256.58 58.1896 2258.3 57.0684C2260.02 55.9472 2262.2 55.3866 2264.82 55.3866C2267.2 55.3866 2269.28 55.8866 2271.07 56.8866C2272.86 57.8715 2274.24 59.3412 2275.23 61.2957C2276.21 63.2502 2276.7 65.6669 2276.7 68.5457V90.7502H2269.91V69.3639C2269.91 66.8336 2269.25 64.8563 2267.93 63.4321C2266.61 61.9927 2264.8 61.273 2262.5 61.273C2260.92 61.273 2259.52 61.6139 2258.3 62.2957C2257.08 62.9775 2256.12 63.9775 2255.41 65.2957C2254.71 66.5987 2254.36 68.1745 2254.36 70.023ZM2353.57 103.841V55.8412H2360.2V61.5002H2360.77C2361.17 60.773 2361.73 59.9321 2362.48 58.9775C2363.22 58.023 2364.25 57.1896 2365.57 56.4775C2366.89 55.7502 2368.63 55.3866 2370.8 55.3866C2373.61 55.3866 2376.13 56.0987 2378.34 57.523C2380.55 58.9472 2382.29 61.0002 2383.55 63.6821C2384.82 66.3639 2385.45 69.5912 2385.45 73.3639C2385.45 77.1366 2384.83 80.3715 2383.57 83.0684C2382.31 85.7502 2380.58 87.8184 2378.39 89.273C2376.19 90.7124 2373.68 91.4321 2370.86 91.4321C2368.74 91.4321 2367.01 91.076 2365.66 90.3639C2364.33 89.6518 2363.28 88.8184 2362.52 87.8639C2361.77 86.9093 2361.18 86.0608 2360.77 85.3184H2360.36V103.841H2353.57ZM2360.23 73.2957C2360.23 75.7502 2360.58 77.9018 2361.3 79.7502C2362.01 81.5987 2363.04 83.0457 2364.39 84.0912C2365.73 85.1215 2367.39 85.6366 2369.34 85.6366C2371.37 85.6366 2373.07 85.0987 2374.43 84.023C2375.8 82.9321 2376.83 81.4548 2377.52 79.5912C2378.23 77.7275 2378.59 75.629 2378.59 73.2957C2378.59 70.9927 2378.24 68.9245 2377.55 67.0912C2376.86 65.2578 2375.83 63.8108 2374.45 62.7502C2373.09 61.6896 2371.39 61.1593 2369.34 61.1593C2367.37 61.1593 2365.7 61.6669 2364.34 62.6821C2362.99 63.6972 2361.97 65.1139 2361.27 66.9321C2360.58 68.7502 2360.23 70.8715 2360.23 73.2957ZM2396.18 103.841C2395.16 103.841 2394.24 103.758 2393.4 103.591C2392.57 103.44 2391.95 103.273 2391.54 103.091L2393.18 97.523C2394.42 97.8563 2395.52 98.0002 2396.49 97.9548C2397.46 97.9093 2398.32 97.5457 2399.06 96.8639C2399.82 96.1821 2400.49 95.0684 2401.06 93.523L2401.9 91.2048L2389.13 55.8412H2396.4L2405.24 82.9321H2405.61L2414.45 55.8412H2421.74L2407.36 95.4093C2406.69 97.2275 2405.84 98.7654 2404.81 100.023C2403.78 101.296 2402.55 102.25 2401.13 102.887C2399.71 103.523 2398.05 103.841 2396.18 103.841Z" fill="black"/>
<path d="M1621.99 61.1096L1621.35 62.2317L1614.17 74.7815C1613.23 76.4222 1611.14 76.9897 1609.51 76.0383C1607.88 75.0892 1607.33 72.9935 1608.26 71.3567L1613.91 61.4866L1614.13 61.1096H1621.99ZM1648.59 21.1575L1666.51 52.4807L1669.58 57.842L1677.31 71.3567C1678.24 72.9934 1677.69 75.0891 1676.06 76.0383C1674.43 76.9897 1672.34 76.423 1671.41 74.7825L1644.22 27.2629L1644 26.8909L1644.22 26.5178L1647.29 21.1575L1647.94 20.0198L1648.59 21.1575ZM1645.73 26.8899L1672.71 74.0374C1673.24 74.9606 1674.4 75.2713 1675.31 74.7424C1676.22 74.2111 1676.54 73.0289 1676.01 72.1018L1668.27 58.5862L1665.21 53.2258L1647.94 23.0393L1645.73 26.8899ZM1648.11 1.71802C1649.05 0.0774858 1651.13 -0.489258 1652.76 0.462158C1654.39 1.4113 1654.95 3.50709 1654.01 5.1438L1627.14 52.1038H1655.98L1656.2 52.4807L1659.27 57.842L1659.91 58.9641H1603.16C1601.27 58.9641 1599.75 57.4216 1599.75 55.5334C1599.75 53.6454 1601.27 52.1038 1603.16 52.1038H1619.28L1639.07 17.5168L1642.14 12.1565L1648.11 1.71802ZM1601.25 55.5334C1601.25 56.606 1602.11 57.4641 1603.16 57.4641H1657.32L1655.11 53.6038H1624.56L1625.2 52.4807L1652.71 4.39868C1653.24 3.47156 1652.92 2.28935 1652.01 1.75806C1651.1 1.22919 1649.94 1.53984 1649.41 2.46313L1643.44 12.9016L1640.37 18.262L1620.37 53.2258L1620.15 53.6038H1603.16C1602.11 53.6038 1601.25 54.461 1601.25 55.5334Z" stroke="black" stroke-width="1.5"/>
<path d="M1691.69 74.7502H1684.12L1701.13 27.4775H1709.37L1726.38 74.7502H1718.81L1705.44 36.0642H1705.07L1691.69 74.7502ZM1692.96 56.2382H1717.52V62.2396H1692.96V56.2382ZM1732.65 74.7502V39.2957H1739.32V44.9278H1739.69C1740.34 43.0197 1741.48 41.5193 1743.11 40.4267C1744.75 39.3188 1746.62 38.7648 1748.69 38.7648C1749.13 38.7648 1749.63 38.7802 1750.22 38.811C1750.82 38.8417 1751.29 38.8802 1751.63 38.9264V45.5279C1751.35 45.451 1750.86 45.3664 1750.15 45.274C1749.44 45.1663 1748.73 45.1125 1748.03 45.1125C1746.39 45.1125 1744.94 45.4587 1743.66 46.1512C1742.4 46.8282 1741.4 47.7746 1740.66 48.9903C1739.92 50.1906 1739.55 51.5601 1739.55 53.099V74.7502H1732.65ZM1771.26 75.4658C1767.83 75.4658 1764.88 74.6887 1762.4 73.1345C1759.94 71.5649 1758.04 69.4028 1756.72 66.6483C1755.4 63.8938 1754.74 60.7392 1754.74 57.1845C1754.74 53.5837 1755.41 50.406 1756.77 47.6515C1758.12 44.8816 1760.03 42.7196 1762.49 41.1654C1764.95 39.6112 1767.85 38.8341 1771.19 38.8341C1773.89 38.8341 1776.29 39.3342 1778.4 40.3344C1780.5 41.3193 1782.2 42.7042 1783.5 44.4892C1784.8 46.2743 1785.58 48.3594 1785.83 50.7446H1779.11C1778.74 49.0826 1777.9 47.6515 1776.57 46.4512C1775.26 45.251 1773.51 44.6508 1771.31 44.6508C1769.39 44.6508 1767.7 45.1586 1766.25 46.1742C1764.82 47.1745 1763.71 48.6056 1762.91 50.4676C1762.11 52.3142 1761.71 54.4993 1761.71 57.023C1761.71 59.6082 1762.1 61.8395 1762.88 63.7169C1763.67 65.5942 1764.78 67.0484 1766.21 68.0794C1767.65 69.1104 1769.36 69.626 1771.31 69.626C1772.62 69.626 1773.8 69.3874 1774.86 68.9104C1775.94 68.418 1776.84 67.7178 1777.56 66.8099C1778.3 65.902 1778.82 64.8094 1779.11 63.5322H1785.83C1785.58 65.8251 1784.84 67.8717 1783.59 69.6721C1782.34 71.4725 1780.67 72.8883 1778.58 73.9193C1776.5 74.9503 1774.06 75.4658 1771.26 75.4658ZM1803.53 75.535C1801.28 75.535 1799.25 75.1196 1797.43 74.2886C1795.62 73.4422 1794.18 72.2189 1793.12 70.6185C1792.07 69.0181 1791.55 67.0561 1791.55 64.7325C1791.55 62.732 1791.93 61.0855 1792.7 59.7929C1793.47 58.5002 1794.51 57.4769 1795.82 56.7229C1797.13 55.9689 1798.59 55.3995 1800.2 55.0148C1801.82 54.6301 1803.47 54.3377 1805.14 54.1377C1807.27 53.8915 1808.99 53.6914 1810.31 53.5375C1811.64 53.3683 1812.6 53.099 1813.2 52.7296C1813.8 52.3603 1814.1 51.7602 1814.1 50.9292V50.7676C1814.1 48.7518 1813.53 47.1899 1812.39 46.0819C1811.27 44.974 1809.59 44.42 1807.36 44.42C1805.03 44.42 1803.2 44.9355 1801.86 45.9665C1800.54 46.9821 1799.63 48.1132 1799.12 49.3596L1792.63 47.8823C1793.4 45.728 1794.52 43.9891 1796 42.6657C1797.49 41.3269 1799.21 40.3575 1801.15 39.7573C1803.09 39.1418 1805.13 38.8341 1807.27 38.8341C1808.68 38.8341 1810.18 39.0033 1811.77 39.3419C1813.37 39.665 1814.86 40.2652 1816.24 41.1423C1817.65 42.0194 1818.79 43.2736 1819.68 44.9047C1820.58 46.5205 1821.02 48.621 1821.02 51.2062V74.7502H1814.28V69.9029H1814.01C1813.56 70.7955 1812.89 71.6726 1812 72.5343C1811.11 73.3961 1809.96 74.1116 1808.56 74.681C1807.16 75.2504 1805.48 75.535 1803.53 75.535ZM1805.03 69.9953C1806.94 69.9953 1808.57 69.6183 1809.92 68.8642C1811.29 68.1102 1812.33 67.1254 1813.04 65.9097C1813.76 64.6786 1814.12 63.3629 1814.12 61.9626V57.3923C1813.88 57.6385 1813.4 57.8693 1812.69 58.0848C1812 58.2848 1811.21 58.4618 1810.31 58.6157C1809.42 58.7541 1808.55 58.885 1807.7 59.0081C1806.86 59.1158 1806.15 59.2081 1805.58 59.285C1804.24 59.4543 1803.02 59.739 1801.91 60.1391C1800.82 60.5392 1799.94 61.1162 1799.28 61.8703C1798.63 62.6089 1798.31 63.5938 1798.31 64.8248C1798.31 66.5329 1798.94 67.8255 1800.2 68.7027C1801.46 69.5644 1803.07 69.9953 1805.03 69.9953ZM1837.12 53.6991V74.7502H1830.22V39.2957H1836.84V45.0663H1837.28C1838.09 43.1889 1839.37 41.6809 1841.11 40.5421C1842.86 39.4034 1845.07 38.8341 1847.74 38.8341C1850.15 38.8341 1852.27 39.3419 1854.08 40.3575C1855.9 41.3577 1857.31 42.8504 1858.31 44.8355C1859.31 46.8206 1859.81 49.275 1859.81 52.1988V74.7502H1852.91V53.0297C1852.91 50.4599 1852.24 48.4517 1850.9 47.0052C1849.56 45.5433 1847.72 44.8124 1845.38 44.8124C1843.78 44.8124 1842.36 45.1586 1841.11 45.8511C1839.88 46.5436 1838.9 47.5592 1838.18 48.898C1837.47 50.2214 1837.12 51.8217 1837.12 53.6991ZM1884.34 75.4658C1880.85 75.4658 1877.84 74.7195 1875.32 73.2268C1872.81 71.7188 1870.87 69.6029 1869.5 66.8792C1868.15 64.14 1867.47 60.9316 1867.47 57.2538C1867.47 53.6222 1868.15 50.4214 1869.5 47.6515C1870.87 44.8816 1872.78 42.7196 1875.23 41.1654C1877.69 39.6112 1880.57 38.8341 1883.86 38.8341C1885.86 38.8341 1887.8 39.1649 1889.68 39.8266C1891.55 40.4883 1893.24 41.527 1894.73 42.9427C1896.22 44.3584 1897.4 46.1973 1898.26 48.4594C1899.12 50.7061 1899.56 53.4375 1899.56 56.6537V59.1004H1871.37V53.9299H1892.79C1892.79 52.1141 1892.42 50.506 1891.68 49.1057C1890.95 47.69 1889.91 46.5743 1888.57 45.7588C1887.24 44.9432 1885.69 44.5354 1883.91 44.5354C1881.97 44.5354 1880.27 45.0124 1878.83 45.9665C1877.4 46.9052 1876.29 48.1363 1875.5 49.6597C1874.73 51.1677 1874.35 52.8066 1874.35 54.5762V58.6157C1874.35 60.9854 1874.76 63.0013 1875.6 64.6632C1876.44 66.3252 1877.62 67.5947 1879.13 68.4718C1880.64 69.3336 1882.4 69.7644 1884.41 69.7644C1885.72 69.7644 1886.91 69.5798 1887.99 69.2105C1889.07 68.8258 1890 68.2564 1890.78 67.5024C1891.57 66.7484 1892.17 65.8174 1892.58 64.7094L1899.12 65.8866C1898.59 67.8101 1897.65 69.4952 1896.3 70.9417C1894.96 72.3728 1893.28 73.4884 1891.25 74.2886C1889.23 75.0734 1886.93 75.4658 1884.34 75.4658Z" fill="black"/>
<path d="M70.4999 376.33C70.4999 357.232 55.0181 341.75 35.9203 341.75C20.42 341.75 7.30167 351.949 2.9095 366.002C2.62814 366.902 2.48746 367.352 2.50074 367.915C2.51153 368.373 2.65064 368.938 2.85343 369.349C3.10282 369.853 3.4879 370.238 4.25801 371.008L41.2433 407.992C42.0134 408.762 42.3985 409.147 42.9033 409.397C43.3137 409.6 43.8791 409.739 44.3368 409.749C44.8996 409.763 45.3497 409.622 46.2499 409.341C60.3021 404.948 70.4999 391.83 70.4999 376.33Z" stroke="black" stroke-width="5" stroke-linecap="round" stroke-linejoin="round"/>
<path d="M7.08443 368.185C7.90645 368.126 8.73642 368.097 9.57333 368.097C28.6711 368.097 44.1529 383.579 44.1529 402.676C44.1529 403.513 44.1231 404.343 44.0647 405.165C43.9625 406.602 43.9115 407.32 43.4928 407.763C43.1528 408.123 42.5726 408.34 42.0797 408.291C41.4729 408.23 40.921 407.678 39.8173 406.574L5.67571 372.432C4.57195 371.329 4.02007 370.777 3.95928 370.17C3.90991 369.677 4.12645 369.097 4.48666 368.757C4.93016 368.338 5.64825 368.287 7.08443 368.185Z" stroke="black" stroke-width="5" stroke-linecap="round" stroke-linejoin="round"/>
<path d="M93.9959 361.39C97.5479 361.39 100.652 362.078 103.308 363.454C105.996 364.798 108.06 366.75 109.5 369.31C110.972 371.838 111.708 374.798 111.708 378.19C111.708 381.582 110.972 384.526 109.5 387.022C108.06 389.518 105.996 391.438 103.308 392.782C100.652 394.094 97.5479 394.75 93.9959 394.75H83.0999V361.39H93.9959ZM93.9959 390.286C97.8999 390.286 100.892 389.23 102.972 387.118C105.052 385.006 106.092 382.03 106.092 378.19C106.092 374.318 105.052 371.294 102.972 369.118C100.892 366.942 97.8999 365.854 93.9959 365.854H88.5719V390.286H93.9959ZM141.083 368.302V394.75H135.611V391.63C134.747 392.718 133.611 393.582 132.203 394.222C130.827 394.83 129.355 395.134 127.787 395.134C125.707 395.134 123.835 394.702 122.171 393.838C120.539 392.974 119.243 391.694 118.283 389.998C117.355 388.302 116.891 386.254 116.891 383.854V368.302H122.315V383.038C122.315 385.406 122.907 387.23 124.091 388.51C125.275 389.758 126.891 390.382 128.939 390.382C130.987 390.382 132.603 389.758 133.787 388.51C135.003 387.23 135.611 385.406 135.611 383.038V368.302H141.083ZM161.647 367.87C163.727 367.87 165.583 368.302 167.215 369.166C168.879 370.03 170.175 371.31 171.103 373.006C172.031 374.702 172.495 376.75 172.495 379.15V394.75H167.071V379.966C167.071 377.598 166.479 375.79 165.295 374.542C164.111 373.262 162.495 372.622 160.447 372.622C158.399 372.622 156.767 373.262 155.551 374.542C154.367 375.79 153.775 377.598 153.775 379.966V394.75H148.303V368.302H153.775V371.326C154.671 370.238 155.807 369.39 157.183 368.782C158.591 368.174 160.079 367.87 161.647 367.87ZM203.715 380.878C203.715 381.87 203.651 382.766 203.523 383.566H183.315C183.475 385.678 184.259 387.374 185.667 388.654C187.075 389.934 188.803 390.574 190.851 390.574C193.795 390.574 195.875 389.342 197.091 386.878H202.995C202.195 389.31 200.739 391.31 198.627 392.878C196.547 394.414 193.955 395.182 190.851 395.182C188.323 395.182 186.051 394.622 184.035 393.502C182.051 392.35 180.483 390.75 179.331 388.702C178.211 386.622 177.651 384.222 177.651 381.502C177.651 378.782 178.195 376.398 179.283 374.35C180.403 372.27 181.955 370.67 183.939 369.55C185.955 368.43 188.259 367.87 190.851 367.87C193.347 367.87 195.571 368.414 197.523 369.502C199.475 370.59 200.995 372.126 202.083 374.11C203.171 376.062 203.715 378.318 203.715 380.878ZM198.003 379.15C197.971 377.134 197.251 375.518 195.843 374.302C194.435 373.086 192.691 372.478 190.611 372.478C188.723 372.478 187.107 373.086 185.763 374.302C184.419 375.486 183.619 377.102 183.363 379.15H198.003Z" fill="black"/>
<path d="M592.234 407.75H622.577V369.845L598.825 380.049L592.234 407.75Z" fill="#231F20" stroke="#D9D9D9" stroke-width="4"/>
<path d="M558.53 396.766V407.75H590.533L597.089 380.208L558.53 396.766Z" fill="#231F20" stroke="#D9D9D9" stroke-width="4"/>
<mask id="mask0_202_220" style="mask-type:luminance" maskUnits="userSpaceOnUse" x="556" y="376" width="44" height="34">
<path d="M558.53 396.766V407.75H590.533L597.089 380.208L558.53 396.766Z" fill="white" stroke="white" stroke-width="4"/>
</mask>
<g mask="url(#mask0_202_220)">
</g>
<path d="M605.865 374.84L622.546 367.752V343.75H588.096L605.865 374.84Z" fill="#231F20" stroke="#D9D9D9" stroke-width="4"/>
<mask id="mask1_202_220" style="mask-type:luminance" maskUnits="userSpaceOnUse" x="584" y="341" width="41" height="37">
<path d="M605.865 374.84L622.546 367.752V343.75H588.096L605.865 374.84Z" fill="white" stroke="white" stroke-width="4"/>
</mask>
<g mask="url(#mask1_202_220)">
</g>
<path d="M603.874 375.524L586.077 343.844H558.5V395.006L603.874 375.524Z" fill="#231F20" stroke="#D9D9D9" stroke-width="4"/>
<path d="M635.9 374.75C635.9 372.004 636.513 369.55 637.74 367.39C638.993 365.204 640.687 363.51 642.82 362.31C644.98 361.084 647.393 360.47 650.06 360.47C653.18 360.47 655.913 361.27 658.26 362.87C660.607 364.47 662.247 366.684 663.18 369.51H656.74C656.1 368.177 655.193 367.177 654.02 366.51C652.873 365.844 651.54 365.51 650.02 365.51C648.393 365.51 646.94 365.897 645.66 366.67C644.407 367.417 643.42 368.484 642.7 369.87C642.007 371.257 641.66 372.884 641.66 374.75C641.66 376.59 642.007 378.217 642.7 379.63C643.42 381.017 644.407 382.097 645.66 382.87C646.94 383.617 648.393 383.99 650.02 383.99C651.54 383.99 652.873 383.657 654.02 382.99C655.193 382.297 656.1 381.284 656.74 379.95H663.18C662.247 382.804 660.607 385.03 658.26 386.63C655.94 388.204 653.207 388.99 650.06 388.99C647.393 388.99 644.98 388.39 642.82 387.19C640.687 385.964 638.993 384.27 637.74 382.11C636.513 379.95 635.9 377.497 635.9 374.75ZM672.763 370.03C673.483 368.857 674.416 367.937 675.563 367.27C676.736 366.604 678.07 366.27 679.563 366.27V372.15H678.083C676.323 372.15 674.99 372.564 674.083 373.39C673.203 374.217 672.763 375.657 672.763 377.71V388.75H667.163V366.59H672.763V370.03ZM681.095 377.59C681.095 375.35 681.535 373.364 682.415 371.63C683.322 369.897 684.535 368.564 686.055 367.63C687.602 366.697 689.322 366.23 691.215 366.23C692.868 366.23 694.308 366.564 695.535 367.23C696.788 367.897 697.788 368.737 698.535 369.75V366.59H704.175V388.75H698.535V385.51C697.815 386.55 696.815 387.417 695.535 388.11C694.282 388.777 692.828 389.11 691.175 389.11C689.308 389.11 687.602 388.63 686.055 387.67C684.535 386.71 683.322 385.364 682.415 383.63C681.535 381.87 681.095 379.857 681.095 377.59ZM698.535 377.67C698.535 376.31 698.268 375.15 697.735 374.19C697.202 373.204 696.482 372.457 695.575 371.95C694.668 371.417 693.695 371.15 692.655 371.15C691.615 371.15 690.655 371.404 689.775 371.91C688.895 372.417 688.175 373.164 687.615 374.15C687.082 375.11 686.815 376.257 686.815 377.59C686.815 378.924 687.082 380.097 687.615 381.11C688.175 382.097 688.895 382.857 689.775 383.39C690.682 383.924 691.642 384.19 692.655 384.19C693.695 384.19 694.668 383.937 695.575 383.43C696.482 382.897 697.202 382.15 697.735 381.19C698.268 380.204 698.535 379.03 698.535 377.67ZM719.004 371.19H715.124V388.75H709.444V371.19H706.924V366.59H709.444V365.47C709.444 362.75 710.218 360.75 711.764 359.47C713.311 358.19 715.644 357.59 718.764 357.67V362.39C717.404 362.364 716.458 362.59 715.924 363.07C715.391 363.55 715.124 364.417 715.124 365.67V366.59H719.004V371.19ZM728.353 371.19V381.91C728.353 382.657 728.527 383.204 728.873 383.55C729.247 383.87 729.86 384.03 730.713 384.03H733.313V388.75H729.793C725.073 388.75 722.713 386.457 722.713 381.87V371.19H720.073V366.59H722.713V361.11H728.353V366.59H733.313V371.19H728.353ZM757.141 377.19C757.141 377.99 757.088 378.71 756.981 379.35H740.781C740.914 380.95 741.474 382.204 742.461 383.11C743.448 384.017 744.661 384.47 746.101 384.47C748.181 384.47 749.661 383.577 750.541 381.79H756.581C755.941 383.924 754.714 385.684 752.901 387.07C751.088 388.43 748.861 389.11 746.221 389.11C744.088 389.11 742.168 388.644 740.461 387.71C738.781 386.75 737.461 385.404 736.501 383.67C735.568 381.937 735.101 379.937 735.101 377.67C735.101 375.377 735.568 373.364 736.501 371.63C737.434 369.897 738.741 368.564 740.421 367.63C742.101 366.697 744.034 366.23 746.221 366.23C748.328 366.23 750.208 366.684 751.861 367.59C753.541 368.497 754.834 369.79 755.741 371.47C756.674 373.124 757.141 375.03 757.141 377.19ZM751.341 375.59C751.314 374.15 750.794 373.004 749.781 372.15C748.768 371.27 747.528 370.83 746.061 370.83C744.674 370.83 743.501 371.257 742.541 372.11C741.608 372.937 741.034 374.097 740.821 375.59H751.341ZM758.989 377.59C758.989 375.35 759.429 373.364 760.309 371.63C761.215 369.897 762.442 368.564 763.989 367.63C765.535 366.697 767.255 366.23 769.149 366.23C770.589 366.23 771.962 366.55 773.269 367.19C774.575 367.804 775.615 368.63 776.389 369.67V359.15H782.069V388.75H776.389V385.47C775.695 386.564 774.722 387.444 773.469 388.11C772.215 388.777 770.762 389.11 769.109 389.11C767.242 389.11 765.535 388.63 763.989 387.67C762.442 386.71 761.215 385.364 760.309 383.63C759.429 381.87 758.989 379.857 758.989 377.59ZM776.429 377.67C776.429 376.31 776.162 375.15 775.629 374.19C775.095 373.204 774.375 372.457 773.469 371.95C772.562 371.417 771.589 371.15 770.549 371.15C769.509 371.15 768.549 371.404 767.669 371.91C766.789 372.417 766.069 373.164 765.509 374.15C764.975 375.11 764.709 376.257 764.709 377.59C764.709 378.924 764.975 380.097 765.509 381.11C766.069 382.097 766.789 382.857 767.669 383.39C768.575 383.924 769.535 384.19 770.549 384.19C771.589 384.19 772.562 383.937 773.469 383.43C774.375 382.897 775.095 382.15 775.629 381.19C776.162 380.204 776.429 379.03 776.429 377.67Z" fill="#212121"/>
<path d="M1317.01 359.208L1211.99 304.262L1089.5 343.793L1131.43 473.728L1317.01 359.208Z" fill="#212121"/>
<g clip-path="url(#clip1_202_220)">
<path d="M2234.5 345.75H2174.5V405.75H2234.5V345.75Z" fill="white" fill-opacity="0.01"/>
<path fill-rule="evenodd" clip-rule="evenodd" d="M2204.5 350.75C2190.69 350.75 2179.5 361.943 2179.5 375.75C2179.5 389.557 2190.69 400.75 2204.5 400.75V350.75Z" stroke="black" stroke-width="5" stroke-linecap="round" stroke-linejoin="round"/>
<path d="M2204.5 350.75C2218.31 350.75 2229.5 361.943 2229.5 375.75C2229.5 389.557 2218.31 400.75 2204.5 400.75V350.75Z" stroke="black" stroke-width="5" stroke-linejoin="round"/>
<path d="M2204.5 390.75H2185.75" stroke="black" stroke-width="5" stroke-linecap="round" stroke-linejoin="round"/>
<path d="M2204.5 380.75H2180.75" stroke="black" stroke-width="5" stroke-linecap="round" stroke-linejoin="round"/>
<path d="M2204.5 370.75H2180.75" stroke="black" stroke-width="5" stroke-linecap="round" stroke-linejoin="round"/>
<path d="M2204.5 360.75H2185.75" stroke="black" stroke-width="5" stroke-linecap="round" stroke-linejoin="round"/>
</g>
<path d="M2259 398.75H2243.69V351.478H2259.48C2264.11 351.478 2268.09 352.424 2271.42 354.317C2274.74 356.194 2277.29 358.895 2279.06 362.419C2280.84 365.927 2281.73 370.136 2281.73 375.045C2281.73 379.969 2280.83 384.201 2279.03 387.74C2277.25 391.279 2274.66 394.003 2271.28 395.911C2267.89 397.804 2263.8 398.75 2259 398.75ZM2250.83 392.518H2258.6C2262.21 392.518 2265.2 391.841 2267.58 390.487C2269.97 389.117 2271.75 387.14 2272.94 384.555C2274.12 381.954 2274.72 378.784 2274.72 375.045C2274.72 371.336 2274.12 368.189 2272.94 365.604C2271.77 363.019 2270.02 361.057 2267.7 359.718C2265.38 358.379 2262.49 357.71 2259.04 357.71H2250.83V392.518ZM2297.74 398.75L2287.3 363.296H2294.43L2301.38 389.333H2301.73L2308.7 363.296H2315.83L2322.76 389.217H2323.1L2330 363.296H2337.14L2326.73 398.75H2319.69L2312.48 373.152H2311.95L2304.75 398.75H2297.74ZM2357.89 399.466C2354.39 399.466 2351.39 398.719 2348.86 397.227C2346.35 395.719 2344.42 393.603 2343.05 390.879C2341.69 388.14 2341.01 384.932 2341.01 381.254C2341.01 377.622 2341.69 374.421 2343.05 371.652C2344.42 368.882 2346.32 366.72 2348.77 365.165C2351.23 363.611 2354.11 362.834 2357.4 362.834C2359.4 362.834 2361.34 363.165 2363.22 363.827C2365.1 364.488 2366.78 365.527 2368.27 366.943C2369.77 368.358 2370.94 370.197 2371.81 372.459C2372.67 374.706 2373.1 377.438 2373.1 380.654V383.1H2344.92V377.93H2366.34C2366.34 376.114 2365.97 374.506 2365.23 373.106C2364.49 371.69 2363.45 370.574 2362.11 369.759C2360.79 368.943 2359.23 368.535 2357.45 368.535C2355.51 368.535 2353.82 369.012 2352.37 369.967C2350.94 370.905 2349.83 372.136 2349.05 373.66C2348.28 375.168 2347.89 376.807 2347.89 378.576V382.616C2347.89 384.985 2348.31 387.001 2349.14 388.663C2349.99 390.325 2351.16 391.595 2352.67 392.472C2354.18 393.334 2355.94 393.764 2357.96 393.764C2359.27 393.764 2360.46 393.58 2361.53 393.21C2362.61 392.826 2363.54 392.256 2364.33 391.502C2365.11 390.748 2365.71 389.817 2366.13 388.709L2372.66 389.887C2372.14 391.81 2371.2 393.495 2369.84 394.942C2368.51 396.373 2366.82 397.488 2364.79 398.289C2362.77 399.073 2360.47 399.466 2357.89 399.466ZM2387.66 351.478V398.75H2380.76V351.478H2387.66ZM2403.84 351.478V398.75H2396.94V351.478H2403.84Z" fill="black"/>
<path d="M1591.92 360.5C1591.92 340.848 1607.85 324.917 1627.5 324.917C1647.15 324.917 1663.08 340.848 1663.08 360.5V391C1663.08 410.652 1647.15 426.584 1627.5 426.584C1607.85 426.584 1591.92 410.652 1591.92 391V360.5Z" stroke="#333333" stroke-width="3" stroke-linecap="round" stroke-linejoin="round"/>
<path d="M1591.92 357.959H1663.08" stroke="#333333" stroke-width="3" stroke-linecap="round" stroke-linejoin="round"/>
<path d="M1622.42 342.709H1632.58" stroke="#333333" stroke-width="3" stroke-linecap="round" stroke-linejoin="round"/>
<path d="M1591.92 380.834C1591.92 380.834 1605.64 379.309 1609.71 383.375C1613.77 387.442 1612.25 391.937 1612.25 391.937C1619.87 391.937 1627.5 392.34 1627.5 401.167C1627.5 407.521 1617.33 411.334 1610.98 407.187C1610.98 412.604 1609.71 416.417 1602.08 416.417" stroke="#333333" stroke-width="3" stroke-linecap="round" stroke-linejoin="round"/>
<path d="M1663.08 373.209C1663.08 373.209 1654.19 368.125 1650.37 370.667C1646.56 373.209 1647.83 378.292 1647.83 378.292C1644.02 375.75 1637.67 378.292 1637.67 384.646C1637.67 391 1644.02 393.542 1650.37 391C1652.92 398.625 1659.27 398.625 1663.08 396.084" stroke="#333333" stroke-width="3" stroke-linecap="round" stroke-linejoin="round"/>
<path d="M1630.04 426.584C1648.29 426.584 1663.08 411.79 1663.08 393.542V360.5C1663.08 340.848 1647.15 324.917 1627.5 324.917" stroke="#333333" stroke-width="3" stroke-linecap="round" stroke-linejoin="round"/>
<path d="M1624.96 426.584C1606.71 426.584 1591.92 411.79 1591.92 393.542V360.5C1591.92 340.848 1607.85 324.917 1627.5 324.917" stroke="#333333" stroke-width="3" stroke-linecap="round" stroke-linejoin="round"/>
<path d="M1678.36 362.617V356.478H1714.95V362.617H1700.2V403.75H1693.09V362.617H1678.36ZM1718.8 403.75V368.296H1725.47V373.928H1725.84C1726.48 372.02 1727.62 370.519 1729.25 369.427C1730.9 368.319 1732.76 367.765 1734.84 367.765C1735.27 367.765 1735.78 367.78 1736.36 367.811C1736.96 367.842 1737.43 367.88 1737.77 367.926V374.528C1737.49 374.451 1737 374.366 1736.29 374.274C1735.59 374.166 1734.88 374.112 1734.17 374.112C1732.54 374.112 1731.08 374.459 1729.81 375.151C1728.55 375.828 1727.54 376.775 1726.81 377.99C1726.07 379.191 1725.7 380.56 1725.7 382.099V403.75H1718.8ZM1743.74 403.75V368.296H1750.64V403.75H1743.74ZM1747.23 362.825C1746.03 362.825 1745 362.425 1744.14 361.625C1743.29 360.809 1742.87 359.84 1742.87 358.717C1742.87 357.578 1743.29 356.608 1744.14 355.808C1745 354.993 1746.03 354.585 1747.23 354.585C1748.43 354.585 1749.45 354.993 1750.3 355.808C1751.16 356.608 1751.59 357.578 1751.59 358.717C1751.59 359.84 1751.16 360.809 1750.3 361.625C1749.45 362.425 1748.43 362.825 1747.23 362.825ZM1759.93 417.046V368.296H1766.67V374.043H1767.25C1767.65 373.305 1768.22 372.451 1768.98 371.481C1769.73 370.512 1770.78 369.665 1772.12 368.942C1773.46 368.203 1775.23 367.834 1777.43 367.834C1780.29 367.834 1782.84 368.557 1785.09 370.004C1787.34 371.45 1789.1 373.535 1790.38 376.259C1791.67 378.983 1792.31 382.261 1792.31 386.092C1792.31 389.924 1791.68 393.209 1790.4 395.948C1789.12 398.672 1787.37 400.773 1785.14 402.25C1782.9 403.712 1780.36 404.443 1777.5 404.443C1775.34 404.443 1773.58 404.081 1772.21 403.358C1770.86 402.635 1769.79 401.788 1769.02 400.819C1768.25 399.849 1767.66 398.988 1767.25 398.234H1766.83V417.046H1759.93ZM1766.69 386.023C1766.69 388.516 1767.05 390.701 1767.78 392.578C1768.5 394.456 1769.55 395.925 1770.92 396.987C1772.29 398.034 1773.96 398.557 1775.95 398.557C1778.01 398.557 1779.73 398.01 1781.12 396.918C1782.5 395.81 1783.55 394.31 1784.26 392.417C1784.98 390.524 1785.34 388.393 1785.34 386.023C1785.34 383.684 1784.99 381.583 1784.28 379.721C1783.59 377.859 1782.54 376.39 1781.14 375.313C1779.76 374.236 1778.03 373.697 1775.95 373.697C1773.95 373.697 1772.26 374.212 1770.87 375.243C1769.5 376.275 1768.46 377.713 1767.75 379.56C1767.05 381.406 1766.69 383.561 1766.69 386.023ZM1806.65 403.75L1796.22 368.296H1803.35L1810.3 394.333H1810.65L1817.62 368.296H1824.75L1831.68 394.217H1832.02L1838.92 368.296H1846.06L1835.65 403.75H1828.61L1821.4 378.152H1820.87L1813.67 403.75H1806.65ZM1852.61 403.75V368.296H1859.51V403.75H1852.61ZM1856.09 362.825C1854.89 362.825 1853.86 362.425 1853 361.625C1852.15 360.809 1851.73 359.84 1851.73 358.717C1851.73 357.578 1852.15 356.608 1853 355.808C1853.86 354.993 1854.89 354.585 1856.09 354.585C1857.29 354.585 1858.31 354.993 1859.16 355.808C1860.02 356.608 1860.45 357.578 1860.45 358.717C1860.45 359.84 1860.02 360.809 1859.16 361.625C1858.31 362.425 1857.29 362.825 1856.09 362.825ZM1895.36 376.952L1889.1 378.06C1888.84 377.259 1888.43 376.498 1887.86 375.774C1887.3 375.051 1886.55 374.459 1885.6 373.997C1884.64 373.535 1883.45 373.305 1882.02 373.305C1880.06 373.305 1878.43 373.743 1877.12 374.62C1875.82 375.482 1875.16 376.598 1875.16 377.967C1875.16 379.152 1875.6 380.106 1876.48 380.829C1877.36 381.553 1878.77 382.145 1880.73 382.607L1886.36 383.899C1889.62 384.653 1892.05 385.815 1893.65 387.385C1895.25 388.954 1896.05 390.993 1896.05 393.502C1896.05 395.625 1895.44 397.518 1894.21 399.18C1892.99 400.826 1891.29 402.119 1889.1 403.058C1886.93 403.996 1884.42 404.466 1881.56 404.466C1877.59 404.466 1874.35 403.619 1871.84 401.927C1869.33 400.219 1867.79 397.795 1867.22 394.656L1873.89 393.64C1874.31 395.379 1875.16 396.695 1876.46 397.587C1877.75 398.464 1879.43 398.903 1881.51 398.903C1883.77 398.903 1885.58 398.434 1886.93 397.495C1888.29 396.541 1888.97 395.379 1888.97 394.009C1888.97 392.902 1888.55 391.971 1887.72 391.217C1886.9 390.462 1885.65 389.893 1883.96 389.508L1877.96 388.193C1874.65 387.439 1872.2 386.238 1870.62 384.592C1869.05 382.945 1868.26 380.86 1868.26 378.337C1868.26 376.244 1868.85 374.413 1870.02 372.843C1871.18 371.273 1872.8 370.05 1874.86 369.173C1876.92 368.28 1879.29 367.834 1881.95 367.834C1885.78 367.834 1888.8 368.665 1891 370.327C1893.2 371.973 1894.65 374.182 1895.36 376.952ZM1918.92 404.466C1915.43 404.466 1912.42 403.719 1909.9 402.227C1907.39 400.719 1905.45 398.603 1904.08 395.879C1902.72 393.14 1902.05 389.932 1902.05 386.254C1902.05 382.622 1902.72 379.421 1904.08 376.652C1905.45 373.882 1907.36 371.72 1909.8 370.165C1912.27 368.611 1915.14 367.834 1918.44 367.834C1920.44 367.834 1922.38 368.165 1924.25 368.827C1926.13 369.488 1927.82 370.527 1929.31 371.943C1930.8 373.358 1931.98 375.197 1932.84 377.459C1933.7 379.706 1934.13 382.438 1934.13 385.654V388.1H1905.95V382.93H1927.37C1927.37 381.114 1927 379.506 1926.26 378.106C1925.52 376.69 1924.48 375.574 1923.15 374.759C1921.82 373.943 1920.27 373.535 1918.48 373.535C1916.54 373.535 1914.85 374.012 1913.4 374.967C1911.97 375.905 1910.87 377.136 1910.08 378.66C1909.31 380.168 1908.93 381.807 1908.93 383.576V387.616C1908.93 389.985 1909.34 392.001 1910.17 393.663C1911.02 395.325 1912.2 396.595 1913.7 397.472C1915.21 398.334 1916.97 398.764 1918.99 398.764C1920.3 398.764 1921.49 398.58 1922.57 398.21C1923.65 397.826 1924.58 397.256 1925.36 396.502C1926.15 395.748 1926.75 394.817 1927.16 393.709L1933.69 394.887C1933.17 396.81 1932.23 398.495 1930.88 399.942C1929.54 401.373 1927.85 402.488 1925.82 403.289C1923.81 404.073 1921.51 404.466 1918.92 404.466Z" fill="black"/>
<defs>
<clipPath id="clip0_202_220">
<rect width="81" height="81" fill="white" transform="translate(44.4999 21.7502)"/>
</clipPath>
<clipPath id="clip1_202_220">
<rect width="60" height="60" fill="white" transform="translate(2174.5 345.75)"/>
</clipPath>
</defs>
</svg>
